<svg width="9" height="14" viewBox="0 0 9 14" fill="none" xmlns="http://www.w3.org/2000/svg">
<path d="M0.47759 1.76842C0.280459 1.56842 0.170941 1.30526 0.181893 1.03158C0.181893 0.757894 0.29141 0.505262 0.499494 0.305262C0.696625 0.115788 0.970419 -1.61526e-06 1.25517 -1.59037e-06C1.53991 -1.56547e-06 1.81371 0.0947365 2.02179 0.28421L8.22049 6.2421C8.31905 6.33684 8.39571 6.45263 8.45047 6.57895C8.50523 6.70526 8.53809 6.8421 8.53809 6.97895C8.53809 7.11579 8.50523 7.25263 8.45047 7.38947C8.39571 7.51579 8.31905 7.63158 8.22049 7.72632L2.02179 13.6842C1.92322 13.7789 1.80275 13.8632 1.67133 13.9158C1.52896 13.9684 1.38659 14 1.24421 14C1.10184 14 0.948514 13.9789 0.817093 13.9263C0.685672 13.8737 0.565203 13.7895 0.455686 13.6947C0.35712 13.6 0.280458 13.4737 0.225699 13.3474C0.159988 13.2211 0.138084 13.0842 0.138085 12.9368C0.138085 12.8 0.17094 12.6632 0.225699 12.5368C0.280458 12.4105 0.368072 12.2947 0.477589 12.1895L5.89871 6.97895L4.86925 6L0.47759 1.76842Z" fill="#B0B7C3"/>
</svg>
