<svg width="21" height="20" viewBox="0 0 21 20" fill="none" xmlns="http://www.w3.org/2000/svg">
<path d="M10.7718 1.6665C6.17178 1.6665 2.44678 5.39984 2.44678 9.99984C2.44678 14.5998 6.17178 18.3332 10.7718 18.3332C15.3801 18.3332 19.1134 14.5998 19.1134 9.99984C19.1134 5.39984 15.3801 1.6665 10.7718 1.6665ZM14.1134 13.3332C14.0363 13.4104 13.9448 13.4717 13.844 13.5135C13.7432 13.5553 13.6351 13.5769 13.5259 13.5769C13.4168 13.5769 13.3087 13.5553 13.2079 13.5135C13.1071 13.4717 13.0155 13.4104 12.9384 13.3332L10.1968 10.5915C10.118 10.5143 10.0554 10.4223 10.0125 10.3207C9.96957 10.2192 9.94724 10.1101 9.94678 9.99984V6.6665C9.94678 6.20817 10.3218 5.83317 10.7801 5.83317C11.2384 5.83317 11.6134 6.20817 11.6134 6.6665V9.65817L14.1134 12.1582C14.4384 12.4832 14.4384 13.0082 14.1134 13.3332Z" fill="#53B175"/>
</svg>
