<svg width="15" height="17" viewBox="0 0 15 17" fill="none" xmlns="http://www.w3.org/2000/svg">
<path fill-rule="evenodd" clip-rule="evenodd" d="M3.78012 2.24425V4.12941C3.24012 4.84757 3.15012 5.92481 3.78012 6.5532C3.943 6.76982 4.07313 7.01912 4.21003 7.28137C4.30006 7.45384 4.39301 7.63191 4.50012 7.80997C5.58012 9.78491 8.01012 10.5031 9.81012 8.07928C9.99012 7.80997 10.0801 7.63043 10.1701 7.36113C10.2001 7.30128 10.2201 7.23146 10.2401 7.16164C10.2801 7.022 10.3201 6.88235 10.4401 6.82251C11.1601 6.19412 11.1601 5.38619 11.0701 4.57826C10.8901 4.39872 10.7101 4.21918 10.6201 4.03964C10.6201 3.8601 10.6426 3.68056 10.6651 3.50102C10.6876 3.32148 10.7101 3.14194 10.7101 2.9624C10.7101 1.52609 10.1701 0.718159 8.91012 0.269309C8.10012 0 7.29012 0 6.48012 0C5.85012 0 5.31012 0.269309 4.95012 0.718159C4.86012 0.897698 4.68012 1.07724 4.50012 1.07724C3.96012 1.34655 3.78012 1.70563 3.78012 2.24425ZM4.41012 6.10435H4.23012C4.18792 5.93599 4.16551 5.76762 4.14433 5.60851C4.12033 5.42828 4.09792 5.25992 4.05012 5.11688C4.23012 4.93734 4.41012 4.7578 4.59012 4.66803C4.59012 4.19417 4.56504 3.74532 4.54136 3.32148C4.52018 2.94239 4.50012 2.58331 4.50012 2.24425C4.66173 2.08305 4.80012 1.93343 4.9278 1.7954C5.15566 1.54906 5.34941 1.3396 5.58012 1.16701C5.67012 1.07724 5.94012 0.897698 6.21012 0.897698C7.11012 0.807928 8.01012 0.718159 8.91012 1.16701C9.54012 1.43632 9.90012 1.97494 9.90012 2.69309C9.90012 2.9968 9.8791 3.30051 9.85737 3.61436C9.83415 3.94987 9.81012 4.29697 9.81012 4.66803C9.90012 4.84757 10.0801 5.02711 10.2601 5.20664L10.2601 5.20665C10.1701 5.47596 10.1701 5.83503 10.1701 6.10434V6.10435C10.1701 6.01458 10.0801 6.01458 10.0801 6.01458C9.90012 6.46342 9.63013 6.91227 9.36013 7.36111L9.36012 7.36113C9.09012 7.80997 8.82012 8.25882 8.37012 8.52813C7.20012 9.33606 5.67012 8.79744 5.04012 7.36113C4.95012 7.1367 4.83762 6.93472 4.72512 6.73274C4.61262 6.53075 4.50012 6.32877 4.41012 6.10435ZM4.50001 9.51561L4.5 9.5156C3.15 10.0542 1.8 10.6826 0.72 11.6701C0.27 12.1189 0 12.6575 0 13.2859V15.3506C0 16.1586 0.36 16.5176 1.17 16.4279H13.23C14.04 16.4279 14.4 16.0688 14.4 15.2609V13.645C14.49 12.5678 14.04 11.7598 13.14 11.1315C12.15 10.4133 11.07 9.78491 9.9 9.42583C9.45 9.87468 9 10.3011 8.55 10.7275C8.1 11.1539 7.65 11.5803 7.2 12.0292C6.21 11.2212 5.4 10.4133 4.50001 9.51561ZM3.42 12.3882C4.14 12.2087 4.5 12.5678 4.68 13.7348C4.59 13.7797 4.5 13.847 4.41 13.9143C4.32 13.9816 4.23 14.049 4.14 14.0939L4.41 14.6325C4.86 14.5427 5.22 14.4529 5.58 14.3632C5.4 12.2087 4.86 11.6701 3.69 11.5803C3.645 11.4456 3.6 11.3334 3.555 11.2212C3.51 11.109 3.465 10.9968 3.42 10.8621C3.59435 10.8042 3.76871 10.7088 3.96729 10.6001C4.07624 10.5405 4.19247 10.4769 4.32 10.4133C4.75928 10.8515 5.22 11.2682 5.6917 11.6949C6.18642 12.1425 6.69321 12.6009 7.2 13.1064C8.1 12.2087 9.09 11.311 10.08 10.4133C10.374 10.5892 10.668 10.7269 10.9871 10.8762C11.1564 10.9555 11.3328 11.0381 11.52 11.1315C11.4635 11.3569 11.3715 11.5823 11.2886 11.7855C11.2395 11.906 11.1935 12.0187 11.16 12.1189C9.99 12.3882 9.63 12.7473 9.54 13.4655C9.45 14.0939 9.81 14.6325 10.35 14.9018C10.98 15.0813 11.61 14.9916 11.97 14.5427C12.42 14.0041 12.42 13.3757 11.88 12.478C11.925 12.3433 11.97 12.1863 12.015 12.0292C12.06 11.8721 12.105 11.715 12.15 11.5803C13.23 12.0292 13.68 12.6575 13.68 13.645V15.6199C12.96 15.8893 1.62 15.979 0.81 15.7097C0.81 15.6199 0.7875 15.5302 0.765 15.4404C0.7425 15.3506 0.72 15.2609 0.72 15.1711V14.2734C0.72 12.478 0.99 12.1189 2.7 11.2212C2.7 11.4008 2.79 11.5803 2.88 11.7598C1.68503 12.6964 2.02811 13.7943 2.37379 14.9007C2.3926 14.9609 2.41142 15.0211 2.43 15.0813C2.88 15.0813 3.33 15.0813 3.69 14.7222C3.69 14.1955 3.44789 14.2 3.21229 14.2044C3.12669 14.206 3.04195 14.2076 2.97 14.1836C2.61 13.1962 2.7 12.5678 3.42 12.3882ZM11.61 13.645L10.89 14.3632C10.7835 14.2215 10.677 14.1078 10.576 14C10.421 13.8345 10.279 13.6829 10.17 13.4655L10.8 12.8371C11.25 12.9269 11.52 13.1064 11.61 13.645Z" fill="#7165E3"/>
</svg>
