<svg width="20" height="20" viewBox="0 0 20 20" fill="none" xmlns="http://www.w3.org/2000/svg">
<path d="M15.4128 7.49297L16.8795 6.0369C18.7517 7.10917 19.9982 8.59095 19.9982 10.233C19.9982 13.5111 15.0581 16.1611 10.0343 16.168C9.01194 16.1679 7.9924 16.0619 6.99227 15.8515L8.73298 14.1244C9.15744 14.1679 9.59187 14.1907 10.0313 14.1897H10.0333C9.61977 14.1897 9.22121 14.1274 8.84657 14.0116L10.8204 12.0511C11.2887 11.8513 11.6644 11.4783 11.8666 11.0134L13.8395 9.05388C14.0253 9.64454 14.0689 10.2702 13.9669 10.8806C13.8648 11.4911 13.62 12.0692 13.2521 12.5687C12.8842 13.0682 12.4034 13.475 11.8483 13.7565C11.2933 14.038 10.6795 14.1864 10.0562 14.1897C14.2859 14.1748 18.0054 12.0293 18.0054 10.233C18.0054 9.30019 16.9871 8.26848 15.4128 7.49297ZM6.14434 11.0985C6.01376 10.5202 6.01569 9.92025 6.14998 9.34282C6.28428 8.7654 6.54751 8.2253 6.92024 7.76241C7.29297 7.29951 7.76568 6.92565 8.30346 6.66843C8.84124 6.4112 9.43035 6.27719 10.0273 6.27628C5.8245 6.26145 2.0631 8.43071 2.0631 10.233C2.0631 11.1193 2.96385 12.0897 4.38172 12.8484L2.92897 14.2886C1.20023 13.2282 0.0703125 11.8008 0.0703125 10.233C0.0703125 6.95486 5.03635 4.28112 10.0343 4.29794C10.945 4.3009 11.8547 4.39092 12.7335 4.5571L10.9629 6.31387C10.674 6.29211 10.381 6.27925 10.0861 6.27628C10.3671 6.28024 10.6411 6.31288 10.9061 6.37124L6.14334 11.0985H6.14434ZM19.0935 1.04059C19.2803 1.22608 19.3852 1.47764 19.3852 1.73993C19.3852 2.00223 19.2803 2.25378 19.0935 2.43928L2.18466 19.2256C2.09282 19.3201 1.98292 19.3955 1.8614 19.4475C1.73987 19.4994 1.60914 19.5268 1.47684 19.528C1.34455 19.5292 1.21332 19.5043 1.09084 19.4546C0.96835 19.405 0.857049 19.3316 0.763429 19.2388C0.66981 19.146 0.595746 19.0356 0.54556 18.9141C0.495374 18.7925 0.47007 18.6623 0.471125 18.531C0.47218 18.3996 0.499573 18.2698 0.551705 18.1491C0.603838 18.0284 0.679666 17.9192 0.774764 17.8279L17.6836 1.04158C17.7761 0.949606 17.886 0.876646 18.007 0.826867C18.128 0.777087 18.2576 0.751465 18.3885 0.751465C18.5195 0.751465 18.6491 0.777087 18.7701 0.826867C18.8911 0.876646 19.001 0.949606 19.0935 1.04158V1.04059Z" fill="#7C7C7C"/>
</svg>
