<svg width="20" height="20" viewBox="0 0 20 20" fill="none" xmlns="http://www.w3.org/2000/svg">
<path d="M15.4137 7.47688L16.8804 6.01997C18.7526 7.09286 19.9991 8.57551 19.9991 10.2185C19.9991 13.4985 15.059 16.1501 10.0351 16.157C9.01279 16.1569 7.99326 16.0508 6.99313 15.8403L8.73383 14.1122C9.1583 14.1557 9.59273 14.1785 10.0321 14.1775H10.0341C9.62062 14.1775 9.22207 14.1151 8.84742 13.9993L10.8213 12.0377C11.2896 11.8377 11.6652 11.4646 11.8675 10.9994L13.8404 9.03871C14.0261 9.62971 14.0697 10.2557 13.9677 10.8665C13.8657 11.4773 13.6209 12.0558 13.253 12.5556C12.885 13.0553 12.4042 13.4624 11.8492 13.7441C11.2941 14.0258 10.6803 14.1742 10.057 14.1775C14.2867 14.1627 18.0063 12.0159 18.0063 10.2185C18.0063 9.28516 16.988 8.25285 15.4137 7.47688ZM6.1452 11.0845C6.01461 10.5059 6.01654 9.90558 6.15084 9.32782C6.28513 8.75006 6.54837 8.20964 6.9211 7.74648C7.29383 7.28332 7.76654 6.90923 8.30432 6.65186C8.8421 6.39449 9.43121 6.2604 10.0282 6.25949C5.82535 6.24464 2.06396 8.41517 2.06396 10.2185C2.06396 11.1053 2.9647 12.0763 4.38257 12.8354L2.92983 14.2765C1.20108 13.2155 0.071167 11.7872 0.071167 10.2185C0.071167 6.93846 5.0372 4.26316 10.0351 4.27999C10.9458 4.28296 11.8555 4.37302 12.7344 4.5393L10.9638 6.2971C10.6748 6.27533 10.3819 6.26246 10.0869 6.25949C10.3679 6.26345 10.6419 6.29611 10.907 6.35451L6.1442 11.0845H6.1452ZM19.0944 1.02074C19.2812 1.20634 19.3861 1.45804 19.3861 1.72049C19.3861 1.98294 19.2812 2.23464 19.0944 2.42024L2.18552 19.2163C2.09367 19.3109 1.98378 19.3864 1.86225 19.4383C1.74072 19.4903 1.61 19.5177 1.4777 19.5189C1.3454 19.5202 1.21418 19.4952 1.09169 19.4455C0.969204 19.3959 0.857904 19.3224 0.764284 19.2296C0.670664 19.1367 0.596601 19.0263 0.546415 18.9047C0.496228 18.7831 0.470924 18.6527 0.47198 18.5213C0.473035 18.3899 0.500428 18.26 0.55256 18.1392C0.604692 18.0184 0.68052 17.9092 0.775619 17.8178L17.6845 1.02173C17.777 0.929703 17.8869 0.8567 18.0078 0.806891C18.1288 0.757082 18.2585 0.731445 18.3894 0.731445C18.5203 0.731445 18.65 0.757082 18.771 0.806891C18.8919 0.8567 19.0018 0.929703 19.0944 1.02173V1.02074Z" fill="#7C7C7C"/>
</svg>
