<svg width="15" height="16" viewBox="0 0 15 16" fill="none" xmlns="http://www.w3.org/2000/svg">
<path d="M12.1387 10.9688C11.582 10.9688 11.0684 11.1641 10.666 11.4902L6.61914 8.5625C6.6869 8.19056 6.6869 7.80944 6.61914 7.4375L10.666 4.50977C11.0684 4.83594 11.582 5.03125 12.1387 5.03125C13.4316 5.03125 14.4824 3.98047 14.4824 2.6875C14.4824 1.39453 13.4316 0.34375 12.1387 0.34375C10.8457 0.34375 9.79492 1.39453 9.79492 2.6875C9.79492 2.91406 9.82617 3.13086 9.88672 3.33789L6.04297 6.12109C5.47266 5.36523 4.56641 4.875 3.54492 4.875C1.81836 4.875 0.419922 6.27344 0.419922 8C0.419922 9.72656 1.81836 11.125 3.54492 11.125C4.56641 11.125 5.47266 10.6348 6.04297 9.87891L9.88672 12.6621C9.82617 12.8691 9.79492 13.0879 9.79492 13.3125C9.79492 14.6055 10.8457 15.6562 12.1387 15.6562C13.4316 15.6562 14.4824 14.6055 14.4824 13.3125C14.4824 12.0195 13.4316 10.9688 12.1387 10.9688ZM12.1387 1.67188C12.6992 1.67188 13.1543 2.12695 13.1543 2.6875C13.1543 3.24805 12.6992 3.70312 12.1387 3.70312C11.5781 3.70312 11.123 3.24805 11.123 2.6875C11.123 2.12695 11.5781 1.67188 12.1387 1.67188ZM3.54492 9.71875C2.59766 9.71875 1.82617 8.94727 1.82617 8C1.82617 7.05273 2.59766 6.28125 3.54492 6.28125C4.49219 6.28125 5.26367 7.05273 5.26367 8C5.26367 8.94727 4.49219 9.71875 3.54492 9.71875ZM12.1387 14.3281C11.5781 14.3281 11.123 13.873 11.123 13.3125C11.123 12.752 11.5781 12.2969 12.1387 12.2969C12.6992 12.2969 13.1543 12.752 13.1543 13.3125C13.1543 13.873 12.6992 14.3281 12.1387 14.3281Z" fill="#2D2D2D"/>
</svg>
