<svg width="21" height="18" viewBox="0 0 21 18" fill="none" xmlns="http://www.w3.org/2000/svg">
<path d="M3.70385 7.86836L10.5669 14.7314L17.4299 7.86836C18.0366 7.26158 18.3775 6.43862 18.3775 5.58051C18.3775 4.7224 18.0366 3.89943 17.4299 3.29266C17.1294 2.99221 16.7728 2.75389 16.3802 2.59129C15.9876 2.42869 15.5669 2.345 15.142 2.345C14.2839 2.345 13.4609 2.68588 12.8542 3.29266L10.5669 5.57997L8.27955 3.29374C7.67123 2.6951 6.851 2.36109 5.99754 2.36447C5.14407 2.36784 4.32651 2.70833 3.72294 3.31175C3.11937 3.91518 2.77869 4.73266 2.77512 5.58612C2.77154 6.43959 3.10536 7.2599 3.70385 7.86836ZM9.80442 1.76671L10.5669 2.52914L11.3293 1.76671C11.8292 1.26241 12.4238 0.861814 13.0789 0.587924C13.7341 0.314034 14.4368 0.172242 15.1469 0.170687C15.857 0.169132 16.5604 0.307845 17.2167 0.578864C17.873 0.849882 18.4694 1.24787 18.9715 1.74997C19.4736 2.25208 19.8716 2.84841 20.1426 3.50474C20.4136 4.16106 20.5523 4.86446 20.5508 5.57454C20.5492 6.28462 20.4074 6.9874 20.1335 7.64254C19.8596 8.29767 19.459 8.89225 18.9548 9.39215L11.3304 17.0176C11.2302 17.1179 11.1113 17.1974 10.9804 17.2517C10.8495 17.306 10.7091 17.3339 10.5674 17.3339C10.4257 17.3339 10.2853 17.306 10.1544 17.2517C10.0235 17.1974 9.90458 17.1179 9.80442 17.0176L2.17897 9.39323C1.66782 8.89494 1.26069 8.30011 0.981213 7.64325C0.701734 6.98639 0.555466 6.28057 0.550892 5.56674C0.546318 4.85291 0.683531 4.14528 0.95457 3.48489C1.22561 2.8245 1.62508 2.2245 2.12981 1.7197C2.63454 1.2149 3.23448 0.815348 3.89483 0.544215C4.55518 0.273083 5.26279 0.13577 5.97662 0.140243C6.69046 0.144715 7.39629 0.290884 8.0532 0.57027C8.7101 0.849657 9.30498 1.2567 9.80335 1.76778L9.80442 1.76671Z" fill="#2D2D2D"/>
</svg>
