<svg width="31" height="30" viewBox="0 0 31 30" fill="none" xmlns="http://www.w3.org/2000/svg">
<path d="M24.715 10.5853V7.12012C24.715 6.86365 24.5071 6.65576 24.2506 6.65576H13.7251C13.4686 6.65576 13.2607 6.86365 13.2607 7.12012V10.5853H24.715Z" fill="#DBEDFF"/>
<path d="M16.3489 6.65576H13.7251C13.4686 6.65576 13.2607 6.86365 13.2607 7.12012V10.5853H15.9675V7.29648C15.9674 7.02098 16.1221 6.77998 16.3489 6.65576Z" fill="#B5DCFF"/>
<path d="M27.0494 0.435046C26.8112 0.0201435 26.2818 -0.123001 25.8671 0.115124L22.3003 2.16268C21.6678 2.52579 21.2749 3.20436 21.2749 3.93368V10.5845H23.007V3.93368C23.007 3.823 23.0666 3.72005 23.1626 3.66497L26.7294 1.61735C27.1443 1.37923 27.2876 0.84989 27.0494 0.435046Z" fill="#B5DCFF"/>
<path d="M22.9196 1.80713L22.3003 2.16262C21.6678 2.52572 21.2749 3.2043 21.2749 3.93361V10.5845H22.1652V3.39039C22.1652 2.77217 22.4483 2.19115 22.9196 1.80713Z" fill="#8BCAFF"/>
<path d="M13.8799 27.9365L13.9695 29.6817C14.2482 29.8819 14.5897 30.0002 14.959 30.0002H23.0164C23.9544 30.0002 24.7149 29.2398 24.7149 28.3017V27.9365H13.8799Z" fill="#69CB3A"/>
<path d="M13.8799 27.9365L13.9695 29.6817C14.2482 29.8819 14.5897 30.0002 14.959 30.0002H16.3487C16.122 29.876 15.9672 29.635 15.9672 29.3595V27.9365H13.8799Z" fill="#69CB3A"/>
<path d="M13.8799 27.9365L13.9695 29.6817C14.2482 29.8819 14.5897 30.0002 14.959 30.0002H16.3487C16.122 29.876 15.9672 29.635 15.9672 29.3595V27.9365H13.8799Z" fill="black" fill-opacity="0.2"/>
<path d="M13.2607 10.4639V15.8756C16.5268 16.5279 18.9879 19.4107 18.9879 22.8685C18.9879 24.9138 18.1267 26.7577 16.7474 28.0581H24.7151V10.4639H13.2607Z" fill="#FFB640"/>
<path d="M24.7151 10.4639H13.2607V15.8755L13.8863 28.0581H24.7151V10.4639Z" fill="#69CB3A"/>
<path d="M13.2607 10.4639V15.8755L13.8863 28.0581H15.9675V10.4639H13.2607Z" fill="#69CB3A"/>
<path d="M13.2607 10.4639V15.8755L13.8863 28.0581H15.9675V10.4639H13.2607Z" fill="black" fill-opacity="0.2"/>
<path d="M11.8561 29.9998C15.7947 29.9998 18.9876 26.8069 18.9876 22.8683C18.9876 18.9297 15.7947 15.7368 11.8561 15.7368C7.91749 15.7368 4.72461 18.9297 4.72461 22.8683C4.72461 26.8069 7.91749 29.9998 11.8561 29.9998Z" fill="#69CB3A"/>
<path d="M11.8561 29.9998C15.7947 29.9998 18.9876 26.8069 18.9876 22.8683C18.9876 18.9297 15.7947 15.7368 11.8561 15.7368C7.91749 15.7368 4.72461 18.9297 4.72461 22.8683C4.72461 26.8069 7.91749 29.9998 11.8561 29.9998Z" fill="white" fill-opacity="0.2"/>
<path d="M8.64816 22.8683C8.64816 19.6101 10.8332 16.8623 13.8179 16.0102C13.1947 15.8322 12.5366 15.7368 11.8562 15.7368C7.91756 15.7368 4.72461 18.9297 4.72461 22.8683C4.72461 26.807 7.9175 29.9999 11.8562 29.9999C12.5366 29.9999 13.1947 29.9045 13.8179 29.7265C10.8333 28.8744 8.64816 26.1266 8.64816 22.8683Z" fill="#69CB3A"/>
<path d="M11.8561 28.3459C14.8813 28.3459 17.3337 25.8935 17.3337 22.8683C17.3337 19.843 14.8813 17.3906 11.8561 17.3906C8.83084 17.3906 6.37842 19.843 6.37842 22.8683C6.37842 25.8935 8.83084 28.3459 11.8561 28.3459Z" fill="#69CB3A"/>
<path d="M11.1633 17.4341C8.46518 17.7746 6.37842 20.0777 6.37842 22.8683C6.37842 25.6589 8.46518 27.962 11.1633 28.3025C9.62492 26.9944 8.64805 25.0459 8.64805 22.8683C8.64805 20.6907 9.62492 18.7421 11.1633 17.4341Z" fill="#69CB3A"/>
<path d="M11.1633 17.4341C8.46518 17.7746 6.37842 20.0777 6.37842 22.8683C6.37842 25.6589 8.46518 27.962 11.1633 28.3025C9.62492 26.9944 8.64805 25.0459 8.64805 22.8683C8.64805 20.6907 9.62492 18.7421 11.1633 17.4341Z" fill="black" fill-opacity="0.04"/>
<path d="M11.8562 16.938C8.58764 16.938 5.92578 19.5983 5.92578 22.8684C5.92578 26.1346 8.58336 28.7987 11.8562 28.7987C15.1224 28.7987 17.7865 26.1412 17.7865 22.8684C17.7865 19.602 15.1288 16.938 11.8562 16.938ZM6.87336 22.225C6.98943 21.3204 7.34656 20.4904 7.87865 19.8018C7.94111 19.7209 8.06035 19.7128 8.13266 19.7851L10.5365 22.1889C10.6202 22.2726 10.561 22.4156 10.4426 22.4156H7.04117C6.93939 22.4156 6.86041 22.326 6.87336 22.225ZM7.87865 25.9349C7.34656 25.2463 6.98943 24.4162 6.87336 23.5117C6.86041 23.4107 6.93939 23.3211 7.04123 23.3211H10.4427C10.561 23.3211 10.6202 23.4641 10.5366 23.5478L8.13271 25.9516C8.06041 26.0239 7.94117 26.0158 7.87865 25.9349ZM11.4034 27.6833C11.4034 27.7851 11.3138 27.8641 11.2128 27.8511C10.3082 27.7351 9.4782 27.3779 8.78955 26.8458C8.70869 26.7834 8.70061 26.6641 8.77285 26.5918L11.1767 24.188C11.2604 24.1043 11.4034 24.1635 11.4034 24.2818V27.6833ZM11.4034 21.4549C11.4034 21.5732 11.2604 21.6324 11.1767 21.5487L8.77285 19.1449C8.70061 19.0726 8.70869 18.9534 8.78955 18.8909C9.4782 18.3587 10.3082 18.0016 11.2128 17.8855C11.3138 17.8726 11.4034 17.9515 11.4034 18.0534V21.4549ZM15.8336 19.8018C16.3657 20.4905 16.7229 21.3205 16.8389 22.2251C16.8519 22.3261 16.7729 22.4157 16.6711 22.4157H13.2697C13.1514 22.4157 13.0921 22.2727 13.1758 22.189L15.5796 19.7851C15.6519 19.7128 15.7712 19.721 15.8336 19.8018ZM12.3089 18.0534C12.3089 17.9516 12.3985 17.8726 12.4995 17.8856C13.404 18.0016 14.234 18.3588 14.9227 18.8909C15.0036 18.9533 15.0117 19.0726 14.9394 19.1449L12.5356 21.5487C12.4519 21.6324 12.3089 21.5732 12.3089 21.4548V18.0534ZM14.9227 26.8458C14.234 27.3779 13.404 27.7351 12.4995 27.8511C12.3985 27.8641 12.3089 27.7851 12.3089 27.6833V24.2819C12.3089 24.1636 12.4519 24.1044 12.5356 24.188L14.9394 26.5918C15.0117 26.6641 15.0036 26.7833 14.9227 26.8458ZM16.8389 23.5117C16.7229 24.4162 16.3657 25.2462 15.8336 25.9349C15.7712 26.0157 15.6519 26.0238 15.5796 25.9516L13.1758 23.5477C13.0921 23.464 13.1513 23.321 13.2697 23.321H16.6711C16.7729 23.3211 16.8519 23.4107 16.8389 23.5117Z" fill="#69CB3A"/>
<path d="M11.8562 16.938C8.58764 16.938 5.92578 19.5983 5.92578 22.8684C5.92578 26.1346 8.58336 28.7987 11.8562 28.7987C15.1224 28.7987 17.7865 26.1412 17.7865 22.8684C17.7865 19.602 15.1288 16.938 11.8562 16.938ZM6.87336 22.225C6.98943 21.3204 7.34656 20.4904 7.87865 19.8018C7.94111 19.7209 8.06035 19.7128 8.13266 19.7851L10.5365 22.1889C10.6202 22.2726 10.561 22.4156 10.4426 22.4156H7.04117C6.93939 22.4156 6.86041 22.326 6.87336 22.225ZM7.87865 25.9349C7.34656 25.2463 6.98943 24.4162 6.87336 23.5117C6.86041 23.4107 6.93939 23.3211 7.04123 23.3211H10.4427C10.561 23.3211 10.6202 23.4641 10.5366 23.5478L8.13271 25.9516C8.06041 26.0239 7.94117 26.0158 7.87865 25.9349ZM11.4034 27.6833C11.4034 27.7851 11.3138 27.8641 11.2128 27.8511C10.3082 27.7351 9.4782 27.3779 8.78955 26.8458C8.70869 26.7834 8.70061 26.6641 8.77285 26.5918L11.1767 24.188C11.2604 24.1043 11.4034 24.1635 11.4034 24.2818V27.6833ZM11.4034 21.4549C11.4034 21.5732 11.2604 21.6324 11.1767 21.5487L8.77285 19.1449C8.70061 19.0726 8.70869 18.9534 8.78955 18.8909C9.4782 18.3587 10.3082 18.0016 11.2128 17.8855C11.3138 17.8726 11.4034 17.9515 11.4034 18.0534V21.4549ZM15.8336 19.8018C16.3657 20.4905 16.7229 21.3205 16.8389 22.2251C16.8519 22.3261 16.7729 22.4157 16.6711 22.4157H13.2697C13.1514 22.4157 13.0921 22.2727 13.1758 22.189L15.5796 19.7851C15.6519 19.7128 15.7712 19.721 15.8336 19.8018ZM12.3089 18.0534C12.3089 17.9516 12.3985 17.8726 12.4995 17.8856C13.404 18.0016 14.234 18.3588 14.9227 18.8909C15.0036 18.9533 15.0117 19.0726 14.9394 19.1449L12.5356 21.5487C12.4519 21.6324 12.3089 21.5732 12.3089 21.4548V18.0534ZM14.9227 26.8458C14.234 27.3779 13.404 27.7351 12.4995 27.8511C12.3985 27.8641 12.3089 27.7851 12.3089 27.6833V24.2819C12.3089 24.1636 12.4519 24.1044 12.5356 24.188L14.9394 26.5918C15.0117 26.6641 15.0036 26.7833 14.9227 26.8458ZM16.8389 23.5117C16.7229 24.4162 16.3657 25.2462 15.8336 25.9349C15.7712 26.0157 15.6519 26.0238 15.5796 25.9516L13.1758 23.5477C13.0921 23.464 13.1513 23.321 13.2697 23.321H16.6711C16.7729 23.3211 16.8519 23.4107 16.8389 23.5117Z" fill="white" fill-opacity="0.4"/>
<path d="M5.92578 22.8686C5.92578 26.1224 8.5632 28.7783 11.8188 28.7985C11.3568 28.4893 10.9333 28.1276 10.5562 27.7218C9.90623 27.5478 9.30787 27.2465 8.78961 26.846C8.70875 26.7836 8.70066 26.6643 8.77291 26.592L9.36887 25.9961C9.22561 25.7029 9.10303 25.398 9.00049 25.084L8.13271 25.9518C8.06047 26.024 7.94123 26.0159 7.87871 25.9351C7.34662 25.2464 6.98949 24.4164 6.87342 23.5118C6.86047 23.4108 6.93945 23.3212 7.04129 23.3212H8.66387C8.65449 23.1714 8.64816 23.0207 8.64816 22.8685C8.64816 22.7162 8.65449 22.5656 8.66387 22.4158H7.04129C6.93945 22.4158 6.86047 22.3262 6.87342 22.2252C6.98949 21.3206 7.34662 20.4905 7.87871 19.8019C7.94117 19.721 8.06041 19.7129 8.13271 19.7852L9.00049 20.653C9.10303 20.339 9.22561 20.034 9.36887 19.7409L8.77291 19.1449C8.70066 19.0727 8.70875 18.9535 8.78961 18.8909C9.30787 18.4905 9.90629 18.1892 10.5562 18.0151C10.9334 17.6094 11.3569 17.2477 11.8189 16.9385C8.56742 16.9589 5.92578 19.6109 5.92578 22.8686Z" fill="#69CB3A"/>
<path d="M5.92578 22.8686C5.92578 26.1224 8.5632 28.7783 11.8188 28.7985C11.3568 28.4893 10.9333 28.1276 10.5562 27.7218C9.90623 27.5478 9.30787 27.2465 8.78961 26.846C8.70875 26.7836 8.70066 26.6643 8.77291 26.592L9.36887 25.9961C9.22561 25.7029 9.10303 25.398 9.00049 25.084L8.13271 25.9518C8.06047 26.024 7.94123 26.0159 7.87871 25.9351C7.34662 25.2464 6.98949 24.4164 6.87342 23.5118C6.86047 23.4108 6.93945 23.3212 7.04129 23.3212H8.66387C8.65449 23.1714 8.64816 23.0207 8.64816 22.8685C8.64816 22.7162 8.65449 22.5656 8.66387 22.4158H7.04129C6.93945 22.4158 6.86047 22.3262 6.87342 22.2252C6.98949 21.3206 7.34662 20.4905 7.87871 19.8019C7.94117 19.721 8.06041 19.7129 8.13271 19.7852L9.00049 20.653C9.10303 20.339 9.22561 20.034 9.36887 19.7409L8.77291 19.1449C8.70066 19.0727 8.70875 18.9535 8.78961 18.8909C9.30787 18.4905 9.90629 18.1892 10.5562 18.0151C10.9334 17.6094 11.3569 17.2477 11.8189 16.9385C8.56742 16.9589 5.92578 19.6109 5.92578 22.8686Z" fill="white" fill-opacity="0.2"/>
</svg>
