<svg width="14" height="14" viewBox="0 0 14 14" fill="none" xmlns="http://www.w3.org/2000/svg">
<path d="M1.375 4.75H12.625M7 13.1875C10.4172 13.1875 13.1875 10.4172 13.1875 7C13.1875 3.58281 10.4172 0.8125 7 0.8125C3.58281 0.8125 0.8125 3.58281 0.8125 7C0.8125 10.4172 3.58281 13.1875 7 13.1875ZM7 13.1875C8.6875 13.1875 9.25 10.375 9.25 7C9.25 3.625 8.6875 0.8125 7 0.8125C5.3125 0.8125 4.75 3.625 4.75 7C4.75 10.375 5.3125 13.1875 7 13.1875ZM1.375 9.25H12.625H1.375Z" stroke="#5B7FFF" stroke-width="1.5"/>
</svg>
