<svg width="15" height="15" viewBox="0 0 15 15" fill="none" xmlns="http://www.w3.org/2000/svg">
<path d="M6.18625 11.3378C6.7955 11.3378 7.39879 11.2184 7.96167 10.9866C8.52455 10.7547 9.03599 10.4148 9.4668 9.98636C9.8976 9.5579 10.2393 9.04925 10.4725 8.48945C10.7056 7.92965 10.8256 7.32966 10.8256 6.72373C10.8256 6.11781 10.7056 5.51782 10.4725 4.95802C10.2393 4.39821 9.8976 3.88957 9.4668 3.46111C9.03599 3.03266 8.52455 2.69279 7.96167 2.46091C7.39879 2.22904 6.7955 2.10969 6.18625 2.10969C4.95581 2.10969 3.77576 2.59581 2.9057 3.46111C2.03565 4.32641 1.54685 5.50001 1.54685 6.72373C1.54685 7.94745 2.03565 9.12105 2.9057 9.98636C3.77576 10.8517 4.95581 11.3378 6.18625 11.3378ZM11.0731 10.4965L13.8413 13.2495C13.9151 13.3205 13.9739 13.4054 14.0144 13.4993C14.0548 13.5931 14.0761 13.694 14.0769 13.7961C14.0777 13.8983 14.0581 13.9995 14.0191 14.094C13.9802 14.1885 13.9227 14.2743 13.85 14.3464C13.7774 14.4186 13.691 14.4756 13.596 14.5142C13.5009 14.5528 13.3991 14.5722 13.2964 14.5713C13.1937 14.5703 13.0923 14.549 12.998 14.5086C12.9037 14.4683 12.8184 14.4096 12.7471 14.3361L9.97895 11.5831C8.73595 12.5427 7.17196 12.9951 5.60536 12.8483C4.03876 12.7014 2.58732 11.9663 1.54651 10.7926C0.505694 9.6189 -0.0462486 8.09483 0.00303804 6.53065C0.0523247 4.96648 0.699136 3.47977 1.8118 2.37319C2.92446 1.2666 4.41934 0.623328 5.99211 0.574311C7.56488 0.525293 9.09732 1.07422 10.2775 2.10935C11.4576 3.14447 12.1968 4.58798 12.3444 6.14602C12.4921 7.70406 12.0372 9.25951 11.0723 10.4957L11.0731 10.4965Z" fill="white"/>
</svg>
