<svg width="15" height="12" viewBox="0 0 15 12" fill="none" xmlns="http://www.w3.org/2000/svg">
<path d="M10.3307 6.79459L5.04268 1.49209L6.16461 0.367092C6.53859 -0.052908 7.88491 0.0145919 8.78994 0.607092C9.69496 1.20709 9.85952 1.56709 10.9665 2.18209C11.8491 2.66209 12.799 3.12709 14.2949 2.81959L10.3307 6.79459ZM9.79968 7.32709L4.51163 2.02459L3.18774 3.35209C3.1184 3.42148 3.06339 3.50389 3.02586 3.59462C2.98833 3.68535 2.96901 3.78262 2.96901 3.88084C2.96901 3.97907 2.98833 4.07633 3.02586 4.16706C3.06339 4.25779 3.1184 4.34021 3.18774 4.40959L3.98058 5.20459C4.27228 5.49709 4.27228 5.97709 3.98058 6.26959C3.5318 6.71959 2.911 7.10209 2.32759 7.53709C2.06581 7.73209 1.80402 7.93459 1.57216 8.16709C0.569895 9.17209 -0.2005 10.5596 0.547456 11.3021C1.28793 12.0521 2.67165 11.2796 3.67391 10.2821C3.90578 10.0496 4.10773 9.78709 4.30968 9.51709C4.73601 8.93209 5.11747 8.30959 5.57372 7.85959C5.64292 7.79007 5.72511 7.73491 5.8156 7.69727C5.90608 7.65963 6.00307 7.64026 6.10103 7.64026C6.19899 7.64026 6.29599 7.65963 6.38647 7.69727C6.47695 7.73491 6.55915 7.79007 6.62834 7.85959L7.42118 8.65459C7.71288 8.94709 8.18409 8.94709 8.4758 8.65459L9.79968 7.32709Z" fill="#53B175"/>
</svg>
