<svg width="13" height="12" viewBox="0 0 13 12" fill="none" xmlns="http://www.w3.org/2000/svg">
<path d="M11.8475 10.4842C12.0164 10.6556 12.1103 10.8812 12.1009 11.1158C12.1009 11.3504 12.0071 11.5669 11.8287 11.7383C11.6597 11.9008 11.425 12 11.181 12C10.9369 12 10.7022 11.9188 10.5239 11.7564L5.21071 6.64962C5.12622 6.56842 5.06051 6.46917 5.01357 6.3609C4.96664 6.25263 4.93848 6.13534 4.93848 6.01804C4.93848 5.90075 4.96664 5.78346 5.01357 5.66616C5.06051 5.55789 5.12622 5.45865 5.21071 5.37744L10.5239 0.270677C10.6084 0.189474 10.7116 0.117293 10.8243 0.0721804C10.9463 0.0270677 11.0683 0 11.1904 0C11.3124 0 11.4438 0.0180451 11.5565 0.0631579C11.6691 0.108271 11.7724 0.180451 11.8662 0.261654C11.9507 0.342857 12.0164 0.451128 12.0634 0.559398C12.1197 0.667669 12.1385 0.784962 12.1385 0.911278C12.1385 1.02857 12.1103 1.14586 12.0634 1.25414C12.0164 1.36241 11.9413 1.46165 11.8475 1.55188L7.2008 6.01804L8.0832 6.85714L11.8475 10.4842Z" fill="#C3C3C3"/>
<path d="M0.291201 1.51579C0.122231 1.34436 0.028358 1.1188 0.0377455 0.884212C0.0377455 0.649625 0.131618 0.433084 0.309975 0.261655C0.478945 0.0992493 0.713626 1.34027e-06 0.957694 1.36161e-06C1.20176 1.38295e-06 1.43644 0.0812049 1.6148 0.243611L6.92797 5.35038C7.01245 5.43158 7.07816 5.53083 7.1251 5.6391C7.17203 5.74737 7.2002 5.86466 7.2002 5.98196C7.2002 6.09925 7.17203 6.21654 7.1251 6.33384C7.07816 6.44211 7.01245 6.54135 6.92797 6.62256L1.6148 11.7293C1.53031 11.8105 1.42705 11.8827 1.31441 11.9278C1.19237 11.9729 1.07034 12 0.948306 12C0.826272 12 0.69485 11.982 0.582203 11.9368C0.469557 11.8917 0.366297 11.8195 0.272425 11.7383C0.18794 11.6571 0.12223 11.5489 0.0752936 11.4406C0.0189705 11.3323 0.000195572 11.215 0.000195583 11.0887C0.000195593 10.9714 0.0283576 10.8541 0.0752937 10.7459C0.12223 10.6376 0.197327 10.5383 0.2912 10.4481L4.93788 5.98196L4.05548 5.14286L0.291201 1.51579Z" fill="#C3C3C3"/>
</svg>
