<svg width="12" height="13" viewBox="0 0 12 13" fill="none" xmlns="http://www.w3.org/2000/svg">
<path fill-rule="evenodd" clip-rule="evenodd" d="M11.9651 11.6932C11.9738 11.4569 11.8863 11.2298 11.7288 11.0572L8.21906 7.40487L7.39634 6.55994L11.7288 2.06268C11.8163 1.97183 11.8863 1.87189 11.9301 1.76287C11.9738 1.65384 12.0001 1.53573 12.0001 1.41762C12.0001 1.29043 11.9826 1.17232 11.9301 1.06329C11.8863 0.954268 11.825 0.845244 11.7463 0.763475C11.6587 0.681707 11.5625 0.609024 11.4574 0.563598C11.3524 0.518171 11.2299 0.5 11.1161 0.5C11.0023 0.5 10.8885 0.527256 10.7748 0.572683C10.6697 0.61811 10.5735 0.690793 10.4947 0.772561L6.01313 5.42461L1.50541 0.745388C1.33912 0.581852 1.12031 0.500083 0.892744 0.500083C0.665182 0.500083 0.446372 0.600022 0.288829 0.763558C0.122534 0.93618 0.0350105 1.15423 0.0350105 1.39045C0.0262581 1.62667 0.113782 1.8538 0.271325 2.02642L3.78103 5.67874L4.60375 6.52368L0.271324 11.0209C0.1838 11.1118 0.113781 11.2117 0.0700191 11.3207C0.0262572 11.4298 0 11.5479 0 11.666C0 11.7932 0.0175047 11.9113 0.070019 12.0203C0.113781 12.1293 0.175048 12.2384 0.253819 12.3201C0.341343 12.4019 0.437619 12.4746 0.542647 12.52C0.647676 12.5654 0.770209 12.5836 0.88399 12.5836C0.997771 12.5836 1.11155 12.5564 1.22533 12.5109C1.33036 12.4655 1.42664 12.3928 1.50541 12.3111L5.98696 7.659L10.4947 12.3382C10.661 12.5018 10.8798 12.5835 11.1073 12.5835C11.3349 12.5835 11.5537 12.4836 11.7113 12.3201C11.8776 12.1474 11.9651 11.9294 11.9651 11.6932Z" fill="#181725"/>
</svg>
