<svg width="162" height="48" viewBox="0 0 162 48" fill="none" xmlns="http://www.w3.org/2000/svg">
<g clip-path="url(#clip0_1_5912)">
<path d="M149.099 1.86709e-05H12.908C12.4115 1.86709e-05 11.921 1.8671e-05 11.4259 0.00241867C11.0115 0.00481867 10.6003 0.0117907 10.1819 0.0176587C9.2728 0.0271408 8.36589 0.0980302 7.46899 0.229711C6.57336 0.364258 5.70578 0.617918 4.8956 0.982111C4.08641 1.34938 3.34704 1.82662 2.70429 2.3965C2.05817 2.96478 1.51958 3.62164 1.10923 4.34181C0.697744 5.06055 0.412419 5.83075 0.263109 6.6258C0.112379 7.41984 0.0312704 8.22304 0.0205099 9.0282C0.00794675 9.39612 0.00662003 9.76526 0 10.1332V37.8703C0.00662003 38.2429 0.00794675 38.6039 0.0205099 38.9766C0.0312737 39.7817 0.112383 40.5849 0.263109 41.3789C0.412007 42.1744 0.697348 42.9451 1.10923 43.6641C1.51939 44.3819 2.05806 45.0361 2.70429 45.6012C3.3446 46.1736 4.08445 46.6512 4.8956 47.0157C5.70577 47.3808 6.57326 47.636 7.46899 47.7726C8.36604 47.9032 9.27286 47.9742 10.1819 47.9848C10.6003 47.9929 11.0115 47.9976 11.4259 47.9976C11.921 48 12.4115 48 12.908 48H149.099C149.586 48 150.08 48 150.567 47.9976C150.979 47.9976 151.402 47.9929 151.815 47.9848C152.722 47.9747 153.627 47.9038 154.522 47.7726C155.421 47.635 156.292 47.3799 157.106 47.0157C157.916 46.651 158.655 46.1734 159.295 45.6012C159.94 45.0339 160.48 44.3802 160.895 43.6641C161.304 42.9445 161.586 42.174 161.733 41.3789C161.884 40.5848 161.968 39.7818 161.984 38.9766C161.989 38.6039 161.989 38.2429 161.989 37.8703C162 37.4344 162 37.0008 162 36.5578V11.4434C162 11.0039 162 10.568 161.989 10.1332C161.989 9.76526 161.989 9.39612 161.984 9.02815C161.968 8.22293 161.884 7.4199 161.733 6.62575C161.586 5.83116 161.303 5.06102 160.895 4.34176C160.059 2.89825 158.734 1.72325 157.106 0.982003C156.292 0.6187 155.421 0.365107 154.522 0.229603C153.627 0.097342 152.722 0.026428 151.815 0.0174907C151.402 0.0116347 150.979 0.00460267 150.567 0.00226267C150.08 -0.000137329 149.586 -0.000137329 149.099 -0.000137329V1.86709e-05Z" fill="#A6A6A6"/>
<path d="M11.3162 46.9536C10.903 46.9536 10.4998 46.9489 10.0899 46.9408C9.24064 46.931 8.3934 46.8655 7.55508 46.745C6.7734 46.6258 6.01615 46.4042 5.30833 46.0874C4.607 45.7732 3.96733 45.3612 3.41382 44.8672C2.8523 44.379 2.38481 43.8128 2.02988 43.1911C1.67103 42.5652 1.42269 41.8944 1.2935 41.202C1.15399 40.458 1.07851 39.7057 1.06771 38.9515C1.05911 38.6984 1.04785 37.8556 1.04785 37.8556V10.1291C1.04785 10.1291 1.05984 9.29925 1.06777 9.05544C1.07811 8.3025 1.15316 7.55135 1.29225 6.80849C1.42168 6.11417 1.67022 5.44142 2.02925 4.81355C2.38288 4.1922 2.84778 3.62558 3.40591 3.13566C3.96342 2.64109 4.60514 2.22698 5.30767 1.90844C6.01386 1.59263 6.76967 1.37255 7.54978 1.25557C8.39085 1.13383 9.24104 1.06801 10.0932 1.05866L11.3169 1.04401H150.684L151.922 1.05925C152.767 1.06813 153.609 1.13337 154.443 1.2544C155.231 1.37285 155.994 1.59446 156.709 1.91196C158.116 2.55391 159.261 3.56953 159.984 4.81648C160.337 5.44002 160.582 6.10727 160.709 6.7956C160.85 7.54456 160.929 8.30161 160.945 9.06072C160.949 9.40063 160.949 9.76575 160.949 10.1291C160.96 10.5792 160.96 11.0076 160.96 11.4395V36.5592C160.96 36.9952 160.96 37.4207 160.949 37.8497C160.949 38.24 160.949 38.5976 160.944 38.9656C160.928 39.7111 160.851 40.4547 160.712 41.1902C160.586 41.8877 160.339 42.5637 159.98 43.1947C159.622 43.8097 159.158 44.371 158.602 44.8578C158.048 45.3545 157.408 45.7689 156.705 46.0851C155.992 46.4044 155.23 46.6268 154.443 46.745C153.604 46.8662 152.757 46.9316 151.908 46.9408C151.511 46.9489 151.095 46.9536 150.691 46.9536L149.221 46.956L11.3162 46.9536Z" fill="black"/>
<path d="M39.3564 24.3608C39.3693 23.3592 39.6353 22.3772 40.1298 21.506C40.6242 20.6349 41.3309 19.9029 42.1843 19.3783C41.6422 18.6041 40.927 17.967 40.0956 17.5175C39.2643 17.0681 38.3395 16.8187 37.3949 16.7891C35.3798 16.5776 33.4262 17.9949 32.3994 17.9949C31.3527 17.9949 29.7717 16.8101 28.0692 16.8451C26.968 16.8807 25.8948 17.2009 24.9541 17.7746C24.0135 18.3483 23.2374 19.1558 22.7017 20.1186C20.3809 24.1367 22.112 30.0419 24.3351 33.2899C25.4474 34.8803 26.7473 36.6568 28.4483 36.5938C30.1127 36.5248 30.7344 35.5325 32.7436 35.5325C34.7341 35.5325 35.3173 36.5938 37.0528 36.5538C38.8388 36.5248 39.9641 34.9563 41.0374 33.3508C41.8365 32.2176 42.4515 30.9651 42.8595 29.6398C41.8218 29.2009 40.9363 28.4663 40.3134 27.5276C39.6904 26.5888 39.3576 25.4874 39.3564 24.3608Z" fill="white"/>
<path d="M36.0785 14.6531C37.0523 13.484 37.5321 11.9814 37.4159 10.4643C35.9281 10.6206 34.5538 11.3316 33.5668 12.4558C33.0842 13.005 32.7146 13.644 32.4792 14.3361C32.2437 15.0282 32.1469 15.76 32.1944 16.4895C32.9385 16.4972 33.6747 16.3359 34.3475 16.0178C35.0203 15.6997 35.6122 15.233 36.0785 14.6531Z" fill="white"/>
<path d="M60.3963 32.5676H54.7162L53.3521 36.5953H50.9463L56.3264 21.6937H58.826L64.2061 36.5953H61.7592L60.3963 32.5676ZM55.3045 30.709H59.8069L57.5874 24.1723H57.5252L55.3045 30.709Z" fill="white"/>
<path d="M75.8248 31.1637C75.8248 34.5398 74.0178 36.709 71.2909 36.709C70.6001 36.7451 69.9131 36.586 69.3085 36.2498C68.704 35.9137 68.2063 35.414 67.8725 34.8082H67.8209V40.1894H65.5908V25.7309H67.7494V27.5379H67.7905C68.1396 26.9349 68.6457 26.4379 69.2548 26.0997C69.864 25.7615 70.5535 25.5947 71.2498 25.6172C74.0072 25.6172 75.8248 27.7969 75.8248 31.1637ZM73.5326 31.1637C73.5326 28.9641 72.3959 27.518 70.6615 27.518C68.9576 27.518 67.8115 28.9945 67.8115 31.1637C67.8115 33.3527 68.9576 34.8188 70.6615 34.8188C72.3959 34.8188 73.5326 33.3832 73.5326 31.1637Z" fill="white"/>
<path d="M87.7828 31.1637C87.7828 34.5398 85.9758 36.709 83.2489 36.709C82.5581 36.7451 81.8711 36.586 81.2665 36.2498C80.662 35.9136 80.1643 35.414 79.8305 34.8082H79.7789V40.1894H77.5488V25.7308H79.7074V27.5379H79.7484C80.0976 26.9349 80.6037 26.4379 81.2128 26.0997C81.822 25.7615 82.5114 25.5947 83.2078 25.6172C85.9653 25.6172 87.7828 27.7969 87.7828 31.1637ZM85.4907 31.1637C85.4907 28.9641 84.3539 27.518 82.6196 27.518C80.9157 27.518 79.7696 28.9945 79.7696 31.1637C79.7696 33.3527 80.9157 34.8187 82.6196 34.8187C84.3539 34.8187 85.4907 33.3832 85.4907 31.1637H85.4907Z" fill="white"/>
<path d="M95.6862 32.4433C95.8514 33.9211 97.287 34.8913 99.2487 34.8913C101.128 34.8913 102.481 33.921 102.481 32.5886C102.481 31.432 101.665 30.7394 99.7338 30.2648L97.8026 29.7995C95.0663 29.1386 93.7959 27.8589 93.7959 25.7823C93.7959 23.2113 96.0366 21.4452 99.2182 21.4452C102.367 21.4452 104.526 23.2113 104.598 25.7823H102.347C102.212 24.2952 100.983 23.3976 99.1865 23.3976C97.39 23.3976 96.1608 24.3058 96.1608 25.6277C96.1608 26.6812 96.9459 27.3011 98.8666 27.7757L100.508 28.1788C103.566 28.9018 104.836 30.13 104.836 32.3097C104.836 35.0975 102.615 36.8436 99.0834 36.8436C95.7787 36.8436 93.5475 35.1386 93.4033 32.4432L95.6862 32.4433Z" fill="white"/>
<path d="M109.649 23.1597V25.7308H111.715V27.4969H109.649V33.4863C109.649 34.4168 110.063 34.8504 110.971 34.8504C111.217 34.8461 111.461 34.8289 111.705 34.7988V36.5542C111.297 36.6305 110.882 36.6651 110.466 36.6574C108.267 36.6574 107.409 35.8312 107.409 33.7242V27.4969H105.829V25.7308H107.409V23.1597H109.649Z" fill="white"/>
<path d="M112.911 31.1637C112.911 27.7453 114.924 25.5973 118.064 25.5973C121.214 25.5973 123.218 27.7453 123.218 31.1637C123.218 34.5914 121.224 36.7301 118.064 36.7301C114.904 36.7301 112.911 34.5914 112.911 31.1637ZM120.945 31.1637C120.945 28.8187 119.871 27.4348 118.064 27.4348C116.257 27.4348 115.183 28.8293 115.183 31.1637C115.183 33.518 116.257 34.8914 118.064 34.8914C119.871 34.8914 120.945 33.518 120.945 31.1637H120.945Z" fill="white"/>
<path d="M125.057 25.7308H127.184V27.58H127.235C127.379 27.0025 127.717 26.4921 128.193 26.1346C128.669 25.7772 129.254 25.5944 129.848 25.6172C130.105 25.6163 130.362 25.6442 130.613 25.7004V27.7863C130.288 27.6872 129.95 27.6416 129.611 27.6515C129.287 27.6384 128.964 27.6955 128.664 27.819C128.364 27.9424 128.094 28.1293 127.874 28.3668C127.653 28.6043 127.486 28.8867 127.385 29.1947C127.283 29.5027 127.25 29.829 127.287 30.1511V36.5953H125.057L125.057 25.7308Z" fill="white"/>
<path d="M140.895 33.4043C140.595 35.3765 138.674 36.7301 136.217 36.7301C133.056 36.7301 131.095 34.6125 131.095 31.2152C131.095 27.8074 133.067 25.5972 136.123 25.5972C139.129 25.5972 141.019 27.6621 141.019 30.9562V31.7203H133.346V31.8551C133.31 32.2549 133.361 32.6577 133.493 33.0367C133.625 33.4157 133.836 33.7622 134.113 34.0533C134.389 34.3444 134.724 34.5733 135.096 34.7248C135.468 34.8764 135.867 34.9472 136.269 34.9324C136.796 34.9818 137.324 34.8597 137.776 34.5844C138.229 34.3091 138.58 33.8952 138.778 33.4043L140.895 33.4043ZM133.356 30.1617H138.788C138.808 29.8022 138.754 29.4424 138.628 29.105C138.502 28.7675 138.308 28.4597 138.058 28.2007C137.808 27.9418 137.507 27.7374 137.174 27.6004C136.841 27.4633 136.483 27.3965 136.123 27.4043C135.76 27.4021 135.4 27.4719 135.064 27.6096C134.728 27.7473 134.423 27.9501 134.165 28.2065C133.908 28.4629 133.704 28.7676 133.565 29.1032C133.426 29.4388 133.356 29.7985 133.356 30.1617V30.1617Z" fill="white"/>
<path d="M55.0248 10.4772C55.4923 10.4436 55.9615 10.5143 56.3984 10.684C56.8354 10.8537 57.2292 11.1183 57.5515 11.4586C57.8738 11.799 58.1165 12.2066 58.2622 12.6522C58.4079 13.0977 58.4529 13.57 58.3939 14.035C58.3939 16.3225 57.1576 17.6374 55.0248 17.6374H52.4385V10.4772H55.0248ZM53.5506 16.6248H54.9006C55.2347 16.6448 55.569 16.59 55.8792 16.4645C56.1895 16.3389 56.4678 16.1458 56.694 15.8991C56.9202 15.6524 57.0886 15.3584 57.1868 15.0385C57.285 14.7185 57.3107 14.3807 57.2619 14.0496C57.3071 13.7198 57.2789 13.3841 57.1791 13.0665C57.0794 12.7489 56.9107 12.4573 56.685 12.2126C56.4593 11.9678 56.1823 11.7761 55.8738 11.651C55.5653 11.5259 55.233 11.4706 54.9006 11.489H53.5506V16.6248Z" fill="white"/>
<path d="M59.6497 14.9332C59.6158 14.5781 59.6564 14.2198 59.769 13.8813C59.8816 13.5429 60.0637 13.2316 60.3037 12.9677C60.5436 12.7037 60.836 12.4928 61.1623 12.3484C61.4885 12.2041 61.8413 12.1295 62.198 12.1295C62.5547 12.1295 62.9075 12.2041 63.2337 12.3484C63.5599 12.4928 63.8524 12.7037 64.0923 12.9677C64.3323 13.2316 64.5144 13.5429 64.627 13.8813C64.7396 14.2198 64.7802 14.5781 64.7462 14.9332C64.7809 15.2887 64.7407 15.6474 64.6284 15.9865C64.5161 16.3255 64.3341 16.6373 64.0941 16.9018C63.8541 17.1663 63.5614 17.3776 63.2349 17.5223C62.9083 17.6669 62.5551 17.7416 62.198 17.7416C61.8408 17.7416 61.4876 17.6669 61.1611 17.5223C60.8345 17.3776 60.5419 17.1663 60.3019 16.9018C60.0619 16.6373 59.8799 16.3255 59.7676 15.9865C59.6553 15.6474 59.6151 15.2887 59.6497 14.9332ZM63.6494 14.9332C63.6494 13.7619 63.1232 13.077 62.1998 13.077C61.2728 13.077 60.7513 13.7619 60.7513 14.9332C60.7513 16.1139 61.2728 16.7936 62.1998 16.7936C63.1232 16.7935 63.6494 16.1092 63.6494 14.9332H63.6494Z" fill="white"/>
<path d="M71.5213 17.6373H70.415L69.2982 13.6576H69.2139L68.1018 17.6373H67.0061L65.5166 12.2338H66.5982L67.5662 16.357H67.6459L68.7568 12.2338H69.7799L70.8908 16.357H70.9752L71.9385 12.2338H73.0049L71.5213 17.6373Z" fill="white"/>
<path d="M74.2578 12.2338H75.2844V13.0922H75.3641C75.4993 12.7839 75.7273 12.5254 76.0163 12.3528C76.3054 12.1803 76.641 12.1022 76.9766 12.1295C77.2395 12.1097 77.5035 12.1493 77.749 12.2455C77.9945 12.3416 78.2153 12.4917 78.3949 12.6847C78.5745 12.8777 78.7084 13.1087 78.7866 13.3605C78.8649 13.6122 78.8855 13.8784 78.8469 14.1392V17.6372H77.7805V14.407C77.7805 13.5387 77.4031 13.1068 76.6145 13.1068C76.436 13.0985 76.2578 13.1289 76.0921 13.1959C75.9264 13.2629 75.7772 13.3649 75.6546 13.495C75.5321 13.625 75.4391 13.78 75.3821 13.9494C75.325 14.1188 75.3053 14.2984 75.3242 14.4761V17.6373H74.2578L74.2578 12.2338Z" fill="white"/>
<path d="M80.5459 10.1244H81.6123V17.6373H80.5459V10.1244Z" fill="white"/>
<path d="M83.095 14.9332C83.0611 14.5781 83.1017 14.2198 83.2144 13.8813C83.327 13.5428 83.5091 13.2316 83.7491 12.9676C83.9891 12.7036 84.2815 12.4927 84.6078 12.3483C84.934 12.204 85.2868 12.1294 85.6436 12.1294C86.0003 12.1294 86.3531 12.204 86.6794 12.3483C87.0056 12.4927 87.2981 12.7036 87.538 12.9676C87.778 13.2316 87.9601 13.5428 88.0728 13.8813C88.1854 14.2198 88.226 14.5781 88.1921 14.9332C88.2267 15.2887 88.1865 15.6475 88.0742 15.9865C87.9618 16.3255 87.7798 16.6373 87.5398 16.9018C87.2997 17.1663 87.0071 17.3776 86.6805 17.5223C86.3539 17.6669 86.0007 17.7416 85.6436 17.7416C85.2864 17.7416 84.9332 17.6669 84.6066 17.5223C84.2801 17.3776 83.9874 17.1663 83.7474 16.9018C83.5074 16.6373 83.3253 16.3255 83.213 15.9865C83.1006 15.6475 83.0605 15.2887 83.095 14.9332ZM87.0946 14.9332C87.0946 13.7619 86.5685 13.077 85.645 13.077C84.7181 13.077 84.1966 13.7619 84.1966 14.9332C84.1966 16.1139 84.7181 16.7936 85.645 16.7936C86.5685 16.7935 87.0946 16.1092 87.0946 14.9332H87.0946Z" fill="white"/>
<path d="M89.3145 16.1092C89.3145 15.1365 90.0387 14.5758 91.3242 14.4961L92.7879 14.4117V13.9453C92.7879 13.3746 92.4106 13.0523 91.6816 13.0523C91.0863 13.0523 90.6738 13.2709 90.5555 13.6529H89.523C89.632 12.7248 90.5051 12.1295 91.7309 12.1295C93.0856 12.1295 93.8496 12.8039 93.8496 13.9453V17.6373H92.8231V16.8779H92.7387C92.5674 17.1503 92.3269 17.3724 92.0418 17.5214C91.7566 17.6705 91.437 17.7412 91.1156 17.7263C90.8888 17.7499 90.6595 17.7257 90.4426 17.6553C90.2257 17.5848 90.0259 17.4697 89.8562 17.3174C89.6865 17.165 89.5507 16.9788 89.4573 16.7707C89.364 16.5626 89.3153 16.3372 89.3145 16.1092ZM92.7879 15.6474V15.1957L91.4684 15.2801C90.7242 15.3299 90.3867 15.583 90.3867 16.0594C90.3867 16.5457 90.8086 16.8287 91.3887 16.8287C91.5587 16.8459 91.7304 16.8287 91.8936 16.7782C92.0568 16.7277 92.2082 16.6449 92.3387 16.5347C92.4693 16.4245 92.5763 16.2891 92.6535 16.1367C92.7306 15.9843 92.7764 15.8179 92.7879 15.6474Z" fill="white"/>
<path d="M95.251 14.9332C95.251 13.2258 96.1287 12.1441 97.4939 12.1441C97.8316 12.1286 98.1668 12.2095 98.4602 12.3773C98.7537 12.5452 98.9932 12.7931 99.151 13.0921H99.2307V10.1244H100.297V17.6373H99.2752V16.7836H99.1908C99.0209 17.0806 98.773 17.3254 98.4739 17.4916C98.1748 17.6577 97.8359 17.7389 97.494 17.7263C96.1193 17.7264 95.251 16.6447 95.251 14.9332ZM96.3526 14.9332C96.3526 16.0793 96.8928 16.7689 97.7963 16.7689C98.6951 16.7689 99.2506 16.0693 99.2506 14.9379C99.2506 13.8117 98.6893 13.1021 97.7963 13.1021C96.8986 13.1021 96.3525 13.7965 96.3525 14.9332H96.3526Z" fill="white"/>
<path d="M104.709 14.9332C104.675 14.5781 104.716 14.2198 104.829 13.8813C104.941 13.5429 105.123 13.2316 105.363 12.9677C105.603 12.7037 105.896 12.4928 106.222 12.3484C106.548 12.2041 106.901 12.1295 107.258 12.1295C107.614 12.1295 107.967 12.2041 108.293 12.3484C108.62 12.4928 108.912 12.7037 109.152 12.9677C109.392 13.2316 109.574 13.5429 109.687 13.8813C109.799 14.2198 109.84 14.5781 109.806 14.9332C109.84 15.2887 109.8 15.6474 109.688 15.9865C109.576 16.3255 109.394 16.6373 109.154 16.9018C108.914 17.1663 108.621 17.3776 108.294 17.5223C107.968 17.6669 107.615 17.7416 107.258 17.7416C106.9 17.7416 106.547 17.6669 106.221 17.5223C105.894 17.3776 105.601 17.1663 105.361 16.9018C105.121 16.6373 104.939 16.3255 104.827 15.9865C104.715 15.6474 104.675 15.2887 104.709 14.9332ZM108.709 14.9332C108.709 13.7619 108.183 13.077 107.259 13.077C106.332 13.077 105.811 13.7619 105.811 14.9332C105.811 16.1139 106.332 16.7936 107.259 16.7936C108.183 16.7935 108.709 16.1092 108.709 14.9332Z" fill="white"/>
<path d="M111.236 12.2338H112.263V13.0922H112.343C112.478 12.7839 112.706 12.5254 112.995 12.3528C113.284 12.1803 113.62 12.1022 113.955 12.1295C114.218 12.1097 114.482 12.1493 114.728 12.2455C114.973 12.3416 115.194 12.4917 115.373 12.6847C115.553 12.8777 115.687 13.1087 115.765 13.3605C115.843 13.6122 115.864 13.8784 115.825 14.1392V17.6372H114.759V14.407C114.759 13.5387 114.382 13.1068 113.593 13.1068C113.414 13.0985 113.236 13.1289 113.071 13.1959C112.905 13.2629 112.756 13.3649 112.633 13.495C112.511 13.625 112.418 13.78 112.361 13.9494C112.304 14.1188 112.284 14.2984 112.303 14.4761V17.6373H111.236V12.2338Z" fill="white"/>
<path d="M121.851 10.8885V12.2584H123.022V13.1566H121.851V15.9351C121.851 16.5012 122.084 16.749 122.615 16.749C122.751 16.7486 122.887 16.7404 123.022 16.7244V17.6127C122.83 17.6469 122.636 17.6652 122.442 17.6672C121.256 17.6672 120.784 17.25 120.784 16.2082V13.1566H119.926V12.2583H120.784V10.8885H121.851Z" fill="white"/>
<path d="M124.479 10.1244H125.536V13.1021H125.62C125.762 12.7909 125.996 12.531 126.291 12.3578C126.586 12.1846 126.927 12.1065 127.268 12.1342C127.529 12.1199 127.791 12.1636 128.033 12.262C128.276 12.3605 128.494 12.5113 128.672 12.7037C128.85 12.8961 128.983 13.1254 129.062 13.3751C129.14 13.6249 129.163 13.889 129.128 14.1486V17.6373H128.061V14.4117C128.061 13.5486 127.659 13.1115 126.906 13.1115C126.722 13.0965 126.538 13.1217 126.365 13.1853C126.193 13.249 126.036 13.3496 125.907 13.4801C125.777 13.6105 125.678 13.7678 125.615 13.9407C125.553 14.1137 125.529 14.2982 125.545 14.4814V17.6373H124.479L124.479 10.1244Z" fill="white"/>
<path d="M135.347 16.1783C135.202 16.6722 134.888 17.0993 134.46 17.3851C134.032 17.6709 133.517 17.7971 133.005 17.7416C132.649 17.751 132.296 17.6828 131.969 17.5418C131.642 17.4007 131.349 17.1902 131.112 16.9249C130.874 16.6595 130.697 16.3456 130.593 16.005C130.489 15.6645 130.461 15.3053 130.509 14.9525C130.462 14.5987 130.491 14.2388 130.595 13.8971C130.699 13.5555 130.875 13.2402 131.111 12.9725C131.347 12.7048 131.638 12.491 131.964 12.3456C132.29 12.2001 132.644 12.1264 133.001 12.1295C134.504 12.1295 135.411 13.1567 135.411 14.8535V15.2256H131.596V15.2854C131.579 15.4836 131.604 15.6832 131.669 15.8713C131.734 16.0594 131.837 16.2319 131.973 16.3776C132.108 16.5234 132.273 16.6392 132.456 16.7177C132.639 16.7962 132.836 16.8356 133.035 16.8334C133.29 16.864 133.548 16.818 133.777 16.7014C134.006 16.5847 134.195 16.4027 134.32 16.1783L135.347 16.1783ZM131.596 14.4369H134.325C134.338 14.2556 134.314 14.0734 134.253 13.9021C134.191 13.7309 134.095 13.5743 133.97 13.4425C133.845 13.3106 133.693 13.2065 133.525 13.1367C133.357 13.0668 133.177 13.0329 132.995 13.0371C132.81 13.0348 132.627 13.0694 132.457 13.139C132.286 13.2085 132.131 13.3115 132 13.442C131.87 13.5724 131.767 13.7277 131.697 13.8985C131.628 14.0694 131.593 14.2525 131.596 14.4369H131.596Z" fill="white"/>
</g>
<defs>
<clipPath id="clip0_1_5912">
<rect width="162" height="48" fill="white"/>
</clipPath>
</defs>
</svg>
