<svg width="32" height="32" viewBox="0 0 32 32" fill="none" xmlns="http://www.w3.org/2000/svg">
<g id="brain icon">
<path id="Path" d="M18.3124 25.4907H13.6875L14.3272 30.4191C14.4098 31.055 14.955 31.5311 15.6007 31.5311H16.3993C17.045 31.5311 17.5902 31.055 17.6728 30.4191L18.3124 25.4907Z" fill="#EDA1AB"/>
<path id="Path_2" d="M14.231 29.6783C14.8034 29.8057 15.3965 29.8715 16 29.8715C16.6034 29.8715 17.1965 29.8057 17.7689 29.6783L18.3124 25.4907H13.6875L14.231 29.6783Z" fill="#E8899E"/>
<path id="Oval" d="M16.0002 27.9971C18.9926 27.9971 21.4184 25.8927 21.4184 23.2969C21.4184 20.701 18.9926 18.5967 16.0002 18.5967C13.0078 18.5967 10.582 20.701 10.582 23.2969C10.582 25.8927 13.0078 27.9971 16.0002 27.9971Z" fill="#F6EE86"/>
<path id="Path_3" d="M26.7052 7.51089C26.7052 7.50602 26.7056 7.5012 26.7056 7.49627C26.7056 3.61776 23.5393 0.473633 19.6334 0.473633C18.8783 0.473633 18.1511 0.591364 17.4689 0.809142C16.5949 1.08816 16 1.89266 16 2.80426C16 1.89266 15.4051 1.08816 14.5311 0.809142C13.849 0.591364 13.1217 0.473633 12.3666 0.473633C8.46075 0.473633 5.29444 3.61776 5.29444 7.49627C5.29444 7.5012 5.29482 7.50602 5.29482 7.51089C2.69337 8.84655 0.914062 11.5409 0.914062 14.6495C0.914062 18.8069 4.09441 22.2266 8.17102 22.6409C9.28358 24.2513 11.1497 25.3082 13.265 25.3082C13.7358 25.3082 14.1942 25.2556 14.6347 25.1562C15.4322 24.9762 16 24.275 16 23.4629C16 24.275 16.5678 24.9762 17.3654 25.1562C17.8059 25.2556 18.2642 25.3082 18.7351 25.3082C20.8504 25.3082 22.7165 24.2513 23.829 22.6409C27.9056 22.2266 31.086 18.807 31.086 14.6495C31.086 11.5409 29.3067 8.84655 26.7052 7.51089Z" fill="#EDA1AB"/>
<path id="Path_4" d="M8.83979 13.7867C7.59363 12.3965 7.37079 9.88134 7.63107 6.73278C7.18835 6.18793 6.75608 4.01346 8.4279 1.66309C6.53808 2.92376 5.29444 5.0658 5.29444 7.49641C5.29444 7.50135 5.29482 7.50616 5.29482 7.51103C2.69337 8.8467 0.914062 11.541 0.914062 14.6496C0.914062 18.8071 4.09441 22.2268 8.17102 22.641C9.28358 24.2514 11.1497 25.3083 13.265 25.3083C13.7358 25.3083 14.1942 25.2558 14.6347 25.1564C14.9 25.0965 15.1391 24.9779 15.3411 24.8177C9.20095 24.1806 7.91256 16.9662 8.95879 14.6276C9.08465 14.3462 9.04595 14.0168 8.83979 13.7867Z" fill="#E8899E"/>
<path id="Path_5" d="M17.4207 7.26954V5.19725C17.4207 4.99065 17.252 4.82324 17.044 4.82324H14.9571C14.7491 4.82324 14.5804 4.99072 14.5804 5.19725V7.26948C14.5804 7.47607 14.4118 7.64348 14.2038 7.64348H12.1169C11.9089 7.64348 11.7402 7.81096 11.7402 8.01755V10.0898C11.7402 10.2964 11.9089 10.4638 12.1169 10.4638H14.2038C14.4118 10.4638 14.5804 10.6313 14.5804 10.8378V12.91C14.5804 13.1166 14.7491 13.284 14.9571 13.284H17.044C17.252 13.284 17.4207 13.1166 17.4207 12.91V10.8378C17.4207 10.6312 17.5894 10.4638 17.7974 10.4638H19.8843C20.0923 10.4638 20.261 10.2963 20.261 10.0898V8.01755C20.261 7.81096 20.0923 7.64348 19.8843 7.64348H17.7974C17.5894 7.64354 17.4207 7.47607 17.4207 7.26954Z" fill="white"/>
<g id="Group">
<path id="Oval_2" d="M11.0679 19.0917C12.0731 19.0917 12.8879 18.4473 12.8879 17.6525C12.8879 16.8577 12.0731 16.2134 11.0679 16.2134C10.0628 16.2134 9.24805 16.8577 9.24805 17.6525C9.24805 18.4473 10.0628 19.0917 11.0679 19.0917Z" fill="white"/>
<path id="Oval_3" d="M20.9323 19.0917C21.9374 19.0917 22.7522 18.4473 22.7522 17.6525C22.7522 16.8577 21.9374 16.2134 20.9323 16.2134C19.9271 16.2134 19.1123 16.8577 19.1123 17.6525C19.1123 18.4473 19.9271 19.0917 20.9323 19.0917Z" fill="white"/>
</g>
<path id="Shape" fill-rule="evenodd" clip-rule="evenodd" d="M17.3244 0.362974C22.0899 -1.15847 26.9973 2.28929 27.1728 7.22851C29.8852 8.73427 31.558 11.552 31.5581 14.6496C31.5581 16.8017 30.7466 18.8552 29.2732 20.4317C29.0958 20.6214 28.7972 20.6324 28.6062 20.4564C28.4151 20.2803 28.4039 19.9837 28.5813 19.794C29.8922 18.3914 30.6141 16.5643 30.6141 14.6495C30.6141 10.4215 27.1561 7.08459 22.9958 7.08459C22.7351 7.08459 22.5238 6.87475 22.5238 6.61592C22.5238 6.35709 22.7351 6.14724 22.9958 6.14724C24.1064 6.14724 25.178 6.35384 26.1919 6.76146C25.7307 2.67636 21.5904 -0.0146538 17.6134 1.25533C16.9307 1.4733 16.4721 2.09576 16.4721 2.80427C16.4721 3.06311 16.2608 3.27295 16.0001 3.27295C15.7394 3.27295 15.5281 3.06311 15.5281 2.80427C15.5281 2.09576 15.0695 1.4733 14.3867 1.25533C12.6216 0.691609 10.6183 0.880392 8.94312 1.89173C8.72053 2.02608 8.42992 1.95597 8.29461 1.73476C8.15919 1.5136 8.22998 1.22527 8.4527 1.0908C9.62938 0.380471 10.9828 0.00496817 12.3666 0.00496817C13.1547 0.00496817 13.9316 0.125449 14.6756 0.362974C15.2262 0.538821 15.6842 0.882141 16 1.32551C16.3158 0.882141 16.7738 0.538758 17.3244 0.362974ZM26.9324 21.1276C26.244 21.541 25.508 21.838 24.7354 22.0163C25.1597 21.1347 25.3813 20.1697 25.3813 19.1776C25.3813 18.9188 25.17 18.7089 24.9093 18.7089C24.6486 18.7089 24.4373 18.9188 24.4373 19.1776C24.4373 22.8057 21.0369 25.5042 17.4703 24.6992C16.8827 24.5666 16.4724 24.0582 16.4724 23.4628V20.9092C16.4724 20.6504 16.2611 20.4405 16.0004 20.4405C15.7397 20.4405 15.5284 20.6504 15.5284 20.9092V23.4628C15.5284 24.0581 15.1181 24.5666 14.5305 24.6992C10.9745 25.5017 7.56347 22.8178 7.56347 19.1776C7.56347 18.9188 7.35221 18.7089 7.09149 18.7089C6.83076 18.7089 6.6195 18.9188 6.6195 19.1776C6.6195 20.1695 6.8409 21.1342 7.26499 22.0157C3.83688 21.2201 1.38641 18.1742 1.38641 14.6496C1.38641 10.4196 4.8468 7.08466 9.00472 7.08466C9.26544 7.08466 9.4767 6.87482 9.4767 6.61598C9.4767 6.35715 9.26544 6.14731 9.00472 6.14731C7.89474 6.14731 6.82365 6.35365 5.81021 6.76083C5.95753 5.46673 6.48917 4.23798 7.3468 3.24133C7.51608 3.04449 7.49274 2.74872 7.29457 2.58056C7.09633 2.41234 6.79842 2.43571 6.62913 2.63243C5.52274 3.91816 4.88852 5.54115 4.82773 7.22851C2.11522 8.73421 0.442383 11.552 0.442383 14.6495C0.442383 18.937 3.6574 22.5425 7.90846 23.0826C8.5917 24.0056 9.49407 24.723 10.5171 25.185C11.0818 26.4492 12.1803 27.4416 13.5365 27.9906L13.8595 30.4792C13.9721 31.3462 14.7208 32 15.6011 32H16.3997C17.28 32 18.0288 31.3462 18.1413 30.4792L18.4643 27.9906C19.8205 27.4416 20.919 26.4493 21.4837 25.185C22.5067 24.7232 23.4091 24.0057 24.0924 23.0827C25.2769 22.9329 26.3957 22.5455 27.421 21.9298C27.6441 21.7958 27.7156 21.5077 27.5806 21.2862C27.4457 21.0646 27.1555 20.9938 26.9324 21.1276ZM5.1016 12.9558C4.91728 13.1389 4.91728 13.4356 5.1016 13.6186C5.28599 13.8016 5.58479 13.8016 5.76911 13.6186C6.33851 13.0532 7.09551 12.7418 7.90077 12.7418C8.1615 12.7418 8.37276 12.532 8.37276 12.2731C8.37276 12.0143 8.1615 11.8044 7.90077 11.8044C6.84341 11.8045 5.84935 12.2133 5.1016 12.9558ZM16.3997 31.0626C16.8068 31.0626 17.153 30.7602 17.205 30.3594L17.4722 28.3006C16.502 28.5208 15.4977 28.5206 14.5285 28.3006L14.7957 30.3594C14.8478 30.7602 15.194 31.0626 15.6011 31.0626H16.3997ZM11.8763 25.6309C12.8454 25.8367 13.8254 25.8196 14.7395 25.6133C15.2562 25.4968 15.694 25.2124 16.0002 24.8255C16.3064 25.2124 16.7443 25.4968 17.2609 25.6133C18.1769 25.82 19.1568 25.8364 20.1242 25.631C18.1693 28.1591 13.8304 28.1581 11.8763 25.6309ZM26.8992 13.6186C26.7149 13.8017 26.4161 13.8017 26.2317 13.6186C25.6623 13.0532 24.9053 12.7419 24.1 12.7419C23.8393 12.7419 23.6281 12.5321 23.6281 12.2732C23.6281 12.0144 23.8393 11.8046 24.1 11.8046C25.1574 11.8046 26.1515 12.2134 26.8992 12.9559C27.0835 13.1388 27.0835 13.4356 26.8992 13.6186ZM10.7906 16.0868C10.7906 16.3456 11.0018 16.5554 11.2626 16.5554C11.5233 16.5554 11.7345 16.3456 11.7345 16.0868C11.7345 15.8708 11.9114 15.6953 12.1288 15.6953C12.3462 15.6953 12.5231 15.8709 12.5231 16.0868C12.5231 16.3456 12.7343 16.5554 12.9951 16.5554C13.2558 16.5554 13.467 16.3456 13.467 16.0868C13.467 15.354 12.8667 14.7579 12.1288 14.7579C11.3909 14.7579 10.7906 15.3541 10.7906 16.0868ZM16.5637 16.7842C16.4214 16.9462 16.2163 17.0391 16.0006 17.0391C15.785 17.0391 15.5797 16.9462 15.4375 16.7842C15.2663 16.5891 14.9681 16.5688 14.7716 16.7388C14.5751 16.9089 14.5547 17.205 14.726 17.4001C15.0475 17.7664 15.5121 17.9765 16.0006 17.9765C16.4892 17.9765 16.9537 17.7664 17.2753 17.4001C17.4466 17.205 17.4261 16.9089 17.2296 16.7388C17.0331 16.5687 16.735 16.589 16.5637 16.7842ZM19.0059 16.5554C18.7451 16.5554 18.5339 16.3456 18.5339 16.0868C18.5339 15.3541 19.1342 14.7579 19.8721 14.7579C20.61 14.7579 21.2103 15.354 21.2103 16.0868C21.2103 16.3456 20.9991 16.5554 20.7383 16.5554C20.4776 16.5554 20.2664 16.3456 20.2664 16.0868C20.2664 15.8709 20.0895 15.6953 19.8721 15.6953C19.6547 15.6953 19.4778 15.8708 19.4778 16.0868C19.4778 16.3456 19.2666 16.5554 19.0059 16.5554ZM17.0439 4.35468H14.957C14.4891 4.35468 14.1084 4.73268 14.1084 5.19736V7.17498H12.1169C11.6489 7.17498 11.2683 7.55305 11.2683 8.01772V10.09C11.2683 10.5546 11.649 10.9326 12.1169 10.9326H14.1084V12.9103C14.1084 13.3749 14.4891 13.7529 14.957 13.7529H17.0439C17.5119 13.7529 17.8926 13.3749 17.8926 12.9103V10.9326H19.8841C20.352 10.9326 20.7328 10.5546 20.7328 10.09V8.01772C20.7328 7.55305 20.352 7.17498 19.8841 7.17498H17.8926V5.19736C17.8926 4.73268 17.5118 4.35468 17.0439 4.35468ZM19.7886 9.99521V8.11226H17.7971C17.3292 8.11226 16.9484 7.73426 16.9484 7.26958V5.29196H15.0521V7.26958C15.0521 7.73426 14.6715 8.11226 14.2035 8.11226H12.212V9.99521H14.2035C14.6714 9.99521 15.0521 10.3732 15.0521 10.8379V12.8155H16.9484V10.8379C16.9484 10.3732 17.3291 9.99521 17.7971 9.99521H19.7886Z" fill="black"/>
</g>
</svg>
