<svg width="162" height="48" viewBox="0 0 162 48" fill="none" xmlns="http://www.w3.org/2000/svg">
<path d="M155.999 0H5.99997C2.68628 0 0 2.68628 0 5.99997V41.9998C0 45.3135 2.68628 47.9998 5.99997 47.9998H155.999C159.313 47.9998 161.999 45.3135 161.999 41.9998V5.99997C161.999 2.68628 159.313 0 155.999 0Z" fill="black"/>
<path d="M155.999 0.959969C157.335 0.961513 158.617 1.49304 159.561 2.43794C160.506 3.38284 161.038 4.66394 161.039 6.00018V42C161.038 43.3362 160.506 44.6173 159.561 45.5622C158.617 46.5071 157.335 47.0387 155.999 47.0402H5.99997C4.66372 47.0387 3.38264 46.5072 2.43779 45.5623C1.49293 44.6174 0.961472 43.3363 0.959995 42V6.00018C0.96145 4.66392 1.4929 3.38281 2.43776 2.4379C3.38262 1.493 4.66371 0.961487 5.99997 0.959969H155.999ZM155.999 0.000213623H5.99997C4.41011 0.00486732 2.8867 0.638499 1.76249 1.7627C0.638286 2.88691 0.00465369 4.41032 0 6.00018L0 42C0.00465369 43.5899 0.638286 45.1133 1.76249 46.2375C2.8867 47.3617 4.41011 47.9953 5.99997 48H155.999C157.589 47.9953 159.112 47.3617 160.237 46.2375C161.361 45.1133 161.995 43.5899 161.999 42V6.00018C161.995 4.41032 161.361 2.88691 160.237 1.7627C159.112 0.638499 157.589 0.00486732 155.999 0.000213623Z" fill="#A6A6A6"/>
<path d="M56.9021 12.2919C56.9239 12.7322 56.8559 13.1724 56.7021 13.5856C56.5484 13.9988 56.3122 14.3764 56.0079 14.6954C55.6668 15.0491 55.2549 15.3268 54.7991 15.5104C54.3434 15.6939 53.854 15.7792 53.363 15.7606C52.8688 15.765 52.3788 15.6706 51.9216 15.483C51.4645 15.2953 51.0495 15.0181 50.701 14.6678C50.3525 14.3174 50.0776 13.9009 49.8924 13.4428C49.7072 12.9847 49.6154 12.4942 49.6224 12.0001C49.6154 11.5059 49.7073 11.0154 49.8925 10.5573C50.0777 10.0991 50.3526 9.68263 50.7011 9.33224C51.0496 8.98185 51.4646 8.70464 51.9217 8.51688C52.3788 8.32913 52.8688 8.23462 53.363 8.23891C53.871 8.23737 54.374 8.34009 54.8407 8.54071C55.2743 8.71644 55.6601 8.99208 55.9669 9.34518L55.3341 9.97854C55.0929 9.69468 54.7897 9.47003 54.448 9.32191C54.1062 9.17379 53.735 9.10617 53.363 9.12427C52.9885 9.12233 52.6174 9.19599 52.2721 9.34084C51.9267 9.4857 51.6141 9.69876 51.3531 9.96727C51.092 10.2358 50.8878 10.5542 50.7528 10.9035C50.6177 11.2528 50.5545 11.6258 50.567 12.0001C50.558 12.5607 50.7158 13.1113 51.0202 13.5822C51.3247 14.0531 51.7621 14.4229 52.277 14.6448C52.7919 14.8668 53.3611 14.9308 53.9125 14.8288C54.4638 14.7268 54.9725 14.4634 55.3739 14.072C55.7434 13.6738 55.9575 13.1563 55.9774 12.6135H53.363V11.7487H56.8517C56.8847 11.9279 56.9015 12.1097 56.9021 12.2919Z" fill="white" stroke="white" stroke-width="0.2" stroke-miterlimit="10"/>
<path d="M62.433 9.28484H59.1541V11.5676H62.1108V12.4325H59.1541V14.7153H62.433V15.6H58.2295V8.40009H62.433V9.28484Z" fill="white" stroke="white" stroke-width="0.2" stroke-miterlimit="10"/>
<path d="M66.3342 15.6H65.4084V9.28484H63.3975V8.40009H68.3451V9.28484H66.3342V15.6Z" fill="white" stroke="white" stroke-width="0.2" stroke-miterlimit="10"/>
<path d="M71.9248 15.6V8.40009H72.8494V15.6H71.9248Z" fill="white" stroke="white" stroke-width="0.2" stroke-miterlimit="10"/>
<path d="M76.9532 15.6H76.0274V9.28484H74.0166V8.40009H78.9642V9.28484H76.9532V15.6Z" fill="white" stroke="white" stroke-width="0.2" stroke-miterlimit="10"/>
<path d="M88.331 14.6696C87.6302 15.3683 86.681 15.7606 85.6914 15.7606C84.7018 15.7606 83.7525 15.3683 83.0517 14.6696C82.705 14.3184 82.4325 13.9011 82.2503 13.4425C82.0681 12.9839 81.98 12.4934 81.9912 12.0001C81.98 11.5067 82.0681 11.0162 82.2503 10.5576C82.4325 10.099 82.705 9.68171 83.0517 9.33056C83.3981 8.98408 83.8094 8.70932 84.2621 8.522C84.7149 8.33468 85.2001 8.23849 85.69 8.23892C86.1799 8.23936 86.665 8.33641 87.1173 8.52453C87.5697 8.71265 87.9805 8.98814 88.3263 9.33524C88.6732 9.68546 88.9463 10.1018 89.1293 10.5596C89.3123 11.0173 89.4015 11.5072 89.3915 12.0001C89.4024 12.4934 89.3142 12.9838 89.132 13.4424C88.9498 13.9009 88.6774 14.3182 88.331 14.6696ZM83.7349 14.0667C84.2539 14.5848 84.9574 14.8759 85.6908 14.8759C86.4242 14.8759 87.1276 14.5848 87.6466 14.0667C87.9128 13.7942 88.1209 13.4706 88.2585 13.1154C88.3961 12.7602 88.4602 12.3808 88.447 12.0001C88.4602 11.6194 88.3961 11.24 88.2585 10.8848C88.1209 10.5296 87.9128 10.2059 87.6466 9.93343C87.1276 9.41528 86.4242 9.12427 85.6908 9.12427C84.9574 9.12427 84.2539 9.41528 83.7349 9.93343C83.4691 10.2061 83.2613 10.5298 83.1239 10.885C82.9866 11.2402 82.9225 11.6195 82.9357 12.0001C82.9225 12.3806 82.9866 12.7599 83.1239 13.1151C83.2613 13.4703 83.4691 13.794 83.7349 14.0667Z" fill="white" stroke="white" stroke-width="0.2" stroke-miterlimit="10"/>
<path d="M90.6895 15.6V8.40009H91.8156L95.3148 14.0011H95.3547L95.3148 12.6135V8.40009H96.2406V15.6H95.275L91.614 9.72776H91.5742L91.614 11.1153V15.6H90.6895Z" fill="white" stroke="white" stroke-width="0.2" stroke-miterlimit="10"/>
<path d="M81.7621 26.1019C80.7535 26.1057 79.7686 26.4083 78.9319 26.9714C78.0951 27.5346 77.4439 28.333 77.0606 29.2659C76.6773 30.1989 76.579 31.2245 76.7781 32.2132C76.9772 33.202 77.4648 34.1096 78.1794 34.8214C78.8939 35.5333 79.8034 36.0174 80.7929 36.2128C81.7824 36.4082 82.8076 36.3059 83.7391 35.9191C84.6705 35.5322 85.4665 34.878 86.0265 34.0391C86.5864 33.2002 86.8852 32.2142 86.8852 31.2056C86.8951 30.531 86.7693 29.8613 86.5151 29.2363C86.2609 28.6113 85.8836 28.0439 85.4056 27.5677C84.9276 27.0916 84.3587 26.7164 83.7328 26.4646C83.1069 26.2128 82.4367 26.0894 81.7621 26.1019ZM81.7621 34.2988C81.141 34.3431 80.5209 34.1994 79.9826 33.8863C79.4442 33.5732 79.0127 33.1054 78.744 32.5436C78.4753 31.9818 78.382 31.3521 78.4762 30.7366C78.5704 30.121 78.8478 29.5481 79.2721 29.0924C79.6965 28.6366 80.2483 28.3192 80.8556 28.1815C81.4629 28.0437 82.0976 28.092 82.677 28.32C83.2565 28.548 83.7539 28.9452 84.1045 29.4599C84.4551 29.9746 84.6426 30.5829 84.6426 31.2056C84.6614 31.599 84.6014 31.9922 84.466 32.3621C84.3306 32.7319 84.1225 33.0709 83.8541 33.3592C83.5857 33.6474 83.2623 33.879 82.9031 34.0404C82.5438 34.2018 82.1559 34.2896 81.7621 34.2988ZM70.5861 26.1019C69.5775 26.1057 68.5926 26.4083 67.7558 26.9714C66.919 27.5345 66.2679 28.3329 65.8845 29.2659C65.5012 30.1988 65.4028 31.2244 65.6019 32.2132C65.801 33.2019 66.2887 34.1095 67.0032 34.8214C67.7177 35.5332 68.6272 36.0174 69.6167 36.2128C70.6062 36.4082 71.6314 36.306 72.5629 35.9191C73.4944 35.5322 74.2904 34.878 74.8503 34.0391C75.4103 33.2002 75.7091 32.2142 75.7091 31.2056C75.719 30.531 75.5931 29.8613 75.3389 29.2363C75.0847 28.6114 74.7074 28.0439 74.2295 27.5678C73.7515 27.0916 73.1826 26.7164 72.5567 26.4646C71.9308 26.2128 71.2606 26.0894 70.5861 26.1019ZM70.5861 34.2988C69.9649 34.3431 69.3448 34.1994 68.8065 33.8863C68.2682 33.5732 67.8366 33.1054 67.568 32.5436C67.2993 31.9818 67.206 31.3521 67.3002 30.7366C67.3944 30.121 67.6717 29.5481 68.0961 29.0924C68.5205 28.6366 69.0723 28.3192 69.6796 28.1815C70.2868 28.0437 70.9215 28.092 71.501 28.32C72.0805 28.548 72.5779 28.9452 72.9285 29.4599C73.279 29.9746 73.4665 30.5829 73.4665 31.2056C73.4854 31.599 73.4254 31.9922 73.29 32.3621C73.1546 32.7319 72.9465 33.0709 72.6781 33.3592C72.4097 33.6474 72.0863 33.879 71.727 34.0404C71.3678 34.2018 70.9798 34.2896 70.5861 34.2988ZM57.2916 27.6679V29.833H62.4728C62.398 30.8486 61.9825 31.8091 61.2934 32.559C60.7742 33.0882 60.1498 33.5027 59.4605 33.7757C58.7712 34.0488 58.0324 34.1743 57.2916 34.1441C55.7772 34.1236 54.3317 33.5076 53.268 32.4295C52.2044 31.3513 51.608 29.8976 51.608 28.3831C51.608 26.8685 52.2044 25.4149 53.268 24.3367C54.3317 23.2585 55.7772 22.6425 57.2916 22.622C58.7462 22.603 60.1496 23.1588 61.1968 24.1686L62.7241 22.6414C62.0095 21.934 61.161 21.3764 60.2281 21.0012C59.2953 20.6261 58.2969 20.441 57.2916 20.4568C56.241 20.4415 55.1978 20.6352 54.2227 21.0267C53.2477 21.4181 52.3601 21.9995 51.6118 22.7371C50.8634 23.4746 50.2692 24.3536 49.8635 25.3229C49.4579 26.2921 49.249 27.3324 49.249 28.3831C49.249 29.4338 49.4579 30.474 49.8635 31.4433C50.2692 32.4126 50.8634 33.2915 51.6118 34.0291C52.3601 34.7666 53.2477 35.348 54.2227 35.7395C55.1978 36.131 56.241 36.3247 57.2916 36.3094C58.3181 36.352 59.342 36.1758 60.2952 35.7925C61.2485 35.4092 62.1093 34.8275 62.8207 34.0862C64.0836 32.7077 64.7567 30.8897 64.696 29.0211C64.701 28.5674 64.6621 28.1142 64.5799 27.6679H57.2916ZM111.661 29.3497C111.355 28.4252 110.771 27.6176 109.989 27.0366C109.207 26.4555 108.266 26.1292 107.292 26.1019C106.636 26.106 105.988 26.243 105.387 26.5046C104.786 26.7663 104.244 27.1471 103.794 27.6242C103.344 28.1012 102.995 28.6646 102.769 29.2801C102.543 29.8957 102.444 30.5507 102.478 31.2056C102.464 31.8766 102.584 32.5437 102.833 33.1671C103.082 33.7904 103.454 34.3572 103.927 34.8336C104.399 35.31 104.963 35.6862 105.585 35.9398C106.206 36.1934 106.872 36.3191 107.543 36.3094C108.384 36.3141 109.213 36.1098 109.955 35.715C110.698 35.3202 111.33 34.7473 111.797 34.0475L110.057 32.8876C109.796 33.3205 109.427 33.6782 108.987 33.9256C108.546 34.173 108.049 34.3016 107.543 34.2988C107.024 34.3187 106.51 34.1819 106.068 33.9061C105.627 33.6304 105.279 33.2284 105.069 32.7523L111.893 29.9298L111.661 29.3497ZM104.702 31.051C104.678 30.6796 104.728 30.307 104.85 29.9552C104.971 29.6035 105.162 29.2795 105.41 29.0022C105.659 28.725 105.96 28.5001 106.296 28.3407C106.633 28.1813 106.998 28.0906 107.369 28.0739C107.757 28.0484 108.143 28.1375 108.48 28.33C108.817 28.5225 109.089 28.81 109.264 29.1565L104.702 31.051ZM99.1531 36.0001H101.396V20.9982H99.1531V36.0001ZM95.4799 27.2425H95.4027C95.0617 26.8721 94.6456 26.5787 94.1822 26.382C93.7188 26.1853 93.2187 26.0898 92.7154 26.1019C91.3994 26.1579 90.1558 26.7201 89.2444 27.6711C88.333 28.6221 87.8242 29.8884 87.8242 31.2057C87.8242 32.5229 88.333 33.7892 89.2444 34.7402C90.1558 35.6912 91.3994 36.2534 92.7154 36.3094C93.2207 36.3229 93.7228 36.2261 94.1869 36.0257C94.651 35.8254 95.0659 35.5264 95.4027 35.1495H95.4799V35.8841C95.4799 37.8368 94.4361 38.8806 92.754 38.8806C92.1935 38.8672 91.6496 38.6872 91.1917 38.3636C90.7338 38.0399 90.3826 37.5873 90.1829 37.0634L88.2303 37.8754C88.5983 38.7714 89.2255 39.5371 90.0314 40.0744C90.8374 40.6117 91.7854 40.8961 92.754 40.8912C95.3833 40.8912 97.6066 39.3447 97.6066 35.5748V26.4111H95.4799V27.2425ZM92.9088 34.2988C92.1337 34.2331 91.4115 33.8787 90.8852 33.3059C90.3589 32.7331 90.0669 31.9836 90.0669 31.2057C90.0669 30.4278 90.3589 29.6782 90.8852 29.1054C91.4115 28.5326 92.1337 28.1782 92.9088 28.1125C93.2945 28.1313 93.6724 28.2276 94.02 28.3956C94.3676 28.5636 94.6778 28.7998 94.9322 29.0903C95.1866 29.3807 95.3799 29.7194 95.5005 30.0862C95.6212 30.4529 95.6668 30.8402 95.6346 31.2249C95.6648 31.6073 95.6175 31.9918 95.4956 32.3554C95.3738 32.7191 95.1798 33.0545 94.9253 33.3414C94.6708 33.6284 94.3611 33.8611 94.0146 34.0256C93.6682 34.1901 93.2921 34.283 92.9088 34.2988ZM122.166 20.9984H116.8V36.0001H119.039V30.3164H122.166C122.799 30.3511 123.433 30.2564 124.028 30.0379C124.624 29.8195 125.168 29.4819 125.629 29.0459C126.09 28.6098 126.457 28.0845 126.707 27.5019C126.958 26.9193 127.087 26.2917 127.087 25.6574C127.087 25.0232 126.958 24.3956 126.707 23.813C126.457 23.2304 126.09 22.705 125.629 22.269C125.168 21.8329 124.624 21.4954 124.028 21.2769C123.433 21.0585 122.799 20.9637 122.166 20.9984ZM122.224 28.2287H119.039V23.0863H122.224C122.566 23.0792 122.906 23.1405 123.224 23.2665C123.542 23.3925 123.832 23.5808 124.077 23.8203C124.321 24.0597 124.515 24.3456 124.648 24.661C124.78 24.9765 124.849 25.3153 124.849 25.6575C124.849 25.9997 124.78 26.3385 124.648 26.6539C124.515 26.9694 124.321 27.2552 124.077 27.4947C123.832 27.7342 123.542 27.9224 123.224 28.0484C122.906 28.1745 122.566 28.2357 122.224 28.2287ZM136.062 26.0743C135.244 26.0266 134.431 26.2185 133.721 26.6265C133.012 27.0345 132.437 27.6408 132.067 28.371L134.054 29.2009C134.252 28.8385 134.55 28.5414 134.913 28.346C135.277 28.1506 135.689 28.0653 136.1 28.1007C136.668 28.0453 137.235 28.2173 137.676 28.5791C138.118 28.9408 138.398 29.4629 138.455 30.0307V30.1851C137.736 29.8031 136.934 29.6043 136.12 29.6061C133.977 29.6061 131.796 30.7834 131.796 32.9836C131.817 33.4473 131.931 33.9021 132.131 34.321C132.331 34.7399 132.613 35.1143 132.96 35.4221C133.308 35.7299 133.713 35.9648 134.153 36.1129C134.593 36.2609 135.058 36.319 135.521 36.2839C136.085 36.317 136.647 36.1985 137.15 35.9405C137.652 35.6825 138.076 35.2946 138.378 34.8171H138.455V35.9751H140.616V30.2238C140.616 27.5604 138.628 26.0743 136.062 26.0743ZM135.791 34.2959C135.058 34.2959 134.035 33.9293 134.035 33.0221C134.035 31.8643 135.309 31.4203 136.409 31.4203C137.124 31.4012 137.83 31.5746 138.455 31.9221C138.373 32.5728 138.058 33.1717 137.568 33.6081C137.078 34.0445 136.447 34.2888 135.791 34.2959ZM148.491 26.4024L145.924 32.9063H145.847L143.183 26.4024H140.771L144.766 35.4926L142.489 40.5491H144.824L150.98 26.4024H148.491ZM128.322 36.0001H130.561V20.9984H128.322V36.0001Z" fill="white"/>
<path d="M12.5226 9.04568C12.1291 9.51616 11.9304 10.1193 11.9673 10.7315V37.2707C11.9303 37.883 12.129 38.4862 12.5226 38.9566L12.6114 39.0431L27.4781 24.1765V23.8258L12.6114 8.95856L12.5226 9.04568Z" fill="url(#paint0_linear_2403_838)"/>
<path d="M32.4328 29.1342L27.4775 24.1765V23.8257L32.434 18.8693L32.5457 18.933L38.417 22.2691C40.0942 23.2219 40.0942 24.7809 38.417 25.7343L32.5457 29.0704L32.4328 29.1342Z" fill="url(#paint1_linear_2403_838)"/>
<path d="M32.5462 29.0698L27.478 24.0012L12.5225 38.9566C12.8642 39.258 13.3006 39.4303 13.756 39.4438C14.2114 39.4572 14.6572 39.311 15.0162 39.0303L32.5462 29.0698Z" fill="url(#paint2_linear_2403_838)"/>
<path d="M32.5462 18.9324L15.0162 8.97199C14.6572 8.6913 14.2114 8.54501 13.756 8.55847C13.3006 8.57193 12.8642 8.74428 12.5225 9.04567L27.478 24.0012L32.5462 18.9324Z" fill="url(#paint3_linear_2403_838)"/>
<path opacity="0.2" d="M32.4344 28.9583L15.0162 38.855C14.6711 39.1177 14.2499 39.261 13.8162 39.2633C13.3824 39.2656 12.9597 39.1268 12.6119 38.8678L12.5225 38.9572L12.6113 39.0437L12.6119 39.0431C12.9597 39.3023 13.3824 39.4412 13.8162 39.4389C14.2499 39.4366 14.6711 39.2931 15.0162 39.0303L32.5462 29.0699L32.4344 28.9583Z" fill="black"/>
<path opacity="0.12" d="M12.5226 38.7819C12.1291 38.3114 11.9304 37.7082 11.9672 37.096V37.2713C11.9304 37.8836 12.1291 38.4867 12.5226 38.9572L12.612 38.8678L12.5226 38.7819Z" fill="black"/>
<path opacity="0.12" d="M38.4176 25.5584L32.4346 28.9583L32.5463 29.0699L38.4176 25.7338C38.763 25.5839 39.0619 25.3441 39.2831 25.0395C39.5044 24.7349 39.6399 24.3765 39.6756 24.0017C39.6013 24.3411 39.449 24.6585 39.2306 24.9288C39.0123 25.199 38.7339 25.4146 38.4176 25.5584Z" fill="black"/>
<path opacity="0.25" d="M15.0159 9.14792L38.4172 22.4439C38.7336 22.5877 39.012 22.8033 39.2304 23.0737C39.4488 23.3441 39.6011 23.6617 39.6751 24.0012C39.6397 23.6263 39.5043 23.2677 39.283 22.9629C39.0617 22.6582 38.7627 22.4184 38.4172 22.2685L15.0159 8.9726C13.3388 8.01969 11.9668 8.8112 11.9668 10.7322V10.9075C11.9668 8.98664 13.3388 8.19513 15.0159 9.14792Z" fill="white"/>
<defs>
<linearGradient id="paint0_linear_2403_838" x1="26.1597" y1="10.4517" x2="6.02096" y2="30.5905" gradientUnits="userSpaceOnUse">
<stop stop-color="#00A0FF"/>
<stop offset="0.00657" stop-color="#00A1FF"/>
<stop offset="0.2601" stop-color="#00BEFF"/>
<stop offset="0.5122" stop-color="#00D2FF"/>
<stop offset="0.7604" stop-color="#00DFFF"/>
<stop offset="1" stop-color="#00E3FF"/>
</linearGradient>
<linearGradient id="paint1_linear_2403_838" x1="40.6006" y1="24.0017" x2="11.5645" y2="24.0017" gradientUnits="userSpaceOnUse">
<stop stop-color="#FFE000"/>
<stop offset="0.4087" stop-color="#FFBD00"/>
<stop offset="0.7754" stop-color="#FFA500"/>
<stop offset="1" stop-color="#FF9C00"/>
</linearGradient>
<linearGradient id="paint2_linear_2403_838" x1="29.7922" y1="26.7553" x2="2.48244" y2="54.0651" gradientUnits="userSpaceOnUse">
<stop stop-color="#FF3A44"/>
<stop offset="1" stop-color="#C31162"/>
</linearGradient>
<linearGradient id="paint3_linear_2403_838" x1="8.7568" y1="0.211526" x2="20.9518" y2="12.4065" gradientUnits="userSpaceOnUse">
<stop stop-color="#32A071"/>
<stop offset="0.0685" stop-color="#2DA771"/>
<stop offset="0.4762" stop-color="#15CF74"/>
<stop offset="0.8009" stop-color="#06E775"/>
<stop offset="1" stop-color="#00F076"/>
</linearGradient>
</defs>
</svg>
