<svg width="86" height="86" viewBox="0 0 86 86" fill="none" xmlns="http://www.w3.org/2000/svg">
<rect x="0.134277" y="67.7485" width="70" height="70" rx="18" transform="rotate(-75 0.134277 67.7485)" fill="url(#paint0_linear_1_15521)"/>
<path d="M47.144 29.7989H42.4565C41.8094 29.7989 41.2847 29.2742 41.2847 28.627V24.1719C41.2847 23.5247 41.8094 23 42.4565 23H47.144C47.7912 23 48.3159 23.5247 48.3159 24.1719V28.627C48.3159 29.2743 47.7912 29.7989 47.144 29.7989Z" fill="#AB7A19"/>
<path d="M47.144 29.7989H42.4565C41.8094 29.7989 41.2847 29.2742 41.2847 28.627V24.1719C41.2847 23.5247 41.8094 23 42.4565 23H47.144C47.7912 23 48.3159 23.5247 48.3159 24.1719V28.627C48.3159 29.2743 47.7912 29.7989 47.144 29.7989Z" fill="black" fill-opacity="0.2"/>
<path d="M47.1431 23H44.7993V29.7989H47.1431C47.7903 29.7989 48.3149 29.2742 48.3149 28.627V24.1719C48.3149 23.5247 47.7903 23 47.1431 23V23Z" fill="#AB7A19"/>
<path d="M33.9898 56.4792C30.8485 56.4792 27.8278 55.2375 25.5909 53.0006C23.1464 50.556 21.8903 47.1749 22.1446 43.7242C22.1873 43.1449 22.6479 42.6843 23.2272 42.6417C26.678 42.3874 30.059 43.6435 32.5035 46.088C34.948 48.5325 36.2041 51.9135 35.9498 55.3643C35.9072 55.9436 35.4466 56.4042 34.8673 56.4469C34.5743 56.4684 34.2812 56.4792 33.9898 56.4792Z" fill="#69CB3A"/>
<path d="M29.0464 63.0001C25.5894 63.0001 22.3104 61.4976 20.0502 58.8776C19.6708 58.4379 19.6708 57.7865 20.0502 57.3466C22.3104 54.7267 25.5894 53.2241 29.0464 53.2241C32.5034 53.2241 35.7825 54.7267 38.0426 57.3466C38.4221 57.7864 38.4221 58.4378 38.0426 58.8776C35.7825 61.4976 32.5035 63.0001 29.0464 63.0001Z" fill="#A7FB7E"/>
<path d="M52.201 62.9999H37.3995C37.1567 62.9999 36.9199 62.9245 36.7219 62.7841C33.0237 60.1627 30.8159 55.8951 30.8159 51.368C30.8159 46.264 33.5972 41.565 38.0745 39.1048C39.9536 38.0722 41.0313 36.2504 41.0313 34.1066V28.627C41.0313 27.9798 41.556 27.4551 42.2032 27.4551H47.3975C48.0447 27.4551 48.5694 27.9798 48.5694 28.627V34.1066C48.5694 36.2505 49.647 38.0723 51.5262 39.1048C56.0034 41.565 58.7847 46.2641 58.7847 51.368C58.7847 55.8951 56.5769 60.1627 52.8788 62.7841C52.6805 62.9245 52.4438 62.9999 52.201 62.9999Z" fill="#DBEDFF"/>
<path d="M51.5251 39.1048C49.646 38.0723 48.5683 36.2505 48.5683 34.1066V28.627C48.5683 27.9798 48.0436 27.4551 47.3964 27.4551H44.7993V62.9999H52.2C52.4428 62.9999 52.6796 62.9245 52.8777 62.7841C56.5758 60.1627 58.7836 55.8951 58.7836 51.368C58.7837 46.2641 56.0024 41.5651 51.5251 39.1048Z" fill="#DBEDFF"/>
<path d="M51.5251 39.1048C49.646 38.0723 48.5683 36.2505 48.5683 34.1066V28.627C48.5683 27.9798 48.0436 27.4551 47.3964 27.4551H44.7993V62.9999H52.2C52.4428 62.9999 52.6796 62.9245 52.8777 62.7841C56.5758 60.1627 58.7836 55.8951 58.7836 51.368C58.7837 46.2641 56.0024 41.5651 51.5251 39.1048Z" fill="black" fill-opacity="0.1"/>
<path d="M33.1592 51.3681C33.1592 55.0148 34.8805 58.4596 37.7821 60.6562H51.8174C54.719 58.4595 56.4404 55.0148 56.4404 51.3681C56.4404 49.7519 56.1044 48.1847 55.4839 46.75H34.1155C33.495 48.1847 33.1592 49.7518 33.1592 51.3681Z" fill="#69CB3A"/>
<path d="M33.1592 51.3681C33.1592 55.0148 34.8805 58.4596 37.7821 60.6562H51.8174C54.719 58.4595 56.4404 55.0148 56.4404 51.3681C56.4404 49.7519 56.1044 48.1847 55.4839 46.75H34.1155C33.495 48.1847 33.1592 49.7518 33.1592 51.3681Z" fill="white" fill-opacity="0.3"/>
<path d="M48.4716 29.5708H41.1279C40.4807 29.5708 39.9561 29.0461 39.9561 28.3989C39.9561 27.7517 40.4807 27.2271 41.1279 27.2271H48.4716C49.1188 27.2271 49.6435 27.7517 49.6435 28.3989C49.6435 29.0461 49.1188 29.5708 48.4716 29.5708Z" fill="#DBEDFF"/>
<path d="M48.4716 29.5708H41.1279C40.4807 29.5708 39.9561 29.0461 39.9561 28.3989C39.9561 27.7517 40.4807 27.2271 41.1279 27.2271H48.4716C49.1188 27.2271 49.6435 27.7517 49.6435 28.3989C49.6435 29.0461 49.1188 29.5708 48.4716 29.5708Z" fill="black" fill-opacity="0.04"/>
<path d="M55.4836 46.75H44.7993V60.6562H51.8169C54.7185 58.4596 56.4399 55.0149 56.4399 51.3682C56.4399 49.7519 56.104 48.1848 55.4836 46.75Z" fill="#69CB3A"/>
<path d="M48.4712 27.2271H44.7993V29.5708H48.4712C49.1184 29.5708 49.6431 29.0461 49.6431 28.3989C49.6431 27.7517 49.1184 27.2271 48.4712 27.2271Z" fill="#DBEDFF"/>
<path d="M48.4712 27.2271H44.7993V29.5708H48.4712C49.1184 29.5708 49.6431 29.0461 49.6431 28.3989C49.6431 27.7517 49.1184 27.2271 48.4712 27.2271Z" fill="black" fill-opacity="0.2"/>
<defs>
<linearGradient id="paint0_linear_1_15521" x1="35.4573" y1="67.7485" x2="35.4573" y2="138.75" gradientUnits="userSpaceOnUse">
<stop stop-color="#69CB3A" stop-opacity="0.2"/>
<stop offset="1" stop-color="#69CB3A" stop-opacity="0"/>
</linearGradient>
</defs>
</svg>
