<svg width="86" height="86" viewBox="0 0 86 86" fill="none" xmlns="http://www.w3.org/2000/svg">
<rect x="0.134277" y="67.7485" width="70" height="70" rx="18" transform="rotate(-75 0.134277 67.7485)" fill="url(#paint0_linear_1_15494)"/>
<g clip-path="url(#clip0_1_15494)">
<path d="M45.1865 42.0001L58.9796 39.9312L59.9934 40.3587L59.8417 41.1036C58.9521 45.6296 54.9854 48.8943 50.3727 48.8967H49.3245L45.1865 42.0001Z" fill="#805333"/>
<path d="M34.1519 33.0347V36.6347L49.1036 44.6898C53.8001 44.4553 57.8208 42.7657 59.9932 40.3588C61.0755 39.2486 61.6987 37.7708 61.7381 36.2209V33.0347H34.1519Z" fill="#A56A43"/>
<path d="M35.1036 36.1103C34.4841 35.2041 34.1524 34.1321 34.1519 33.0344C34.1519 29.1517 38.6208 25.8965 44.6139 25.0068L55.9519 26.3034C59.8691 27.993 62.9381 31.3172 61.3036 35.1448C59.7725 38.7379 54.407 41.3861 47.945 41.3861C47.076 41.3861 46.8346 41.3517 46.7588 41.3517L35.1036 36.1103Z" fill="#CB8252"/>
<path d="M58.635 34.4139C57.4074 36.7932 53.1177 38.5518 47.9453 38.5518C46.1431 38.5635 44.3475 38.3315 42.6074 37.8622L37.7798 35.1725C37.4566 34.807 37.2103 34.3801 37.0557 33.9173C38.9729 32.7173 41.9453 30.4691 42.435 28.2622C43.1177 25.1863 48.5384 21.6622 51.3936 22.0001C54.7315 22.4346 56.4832 27.4208 58.2281 31.007C58.3315 31.2208 58.835 32.2415 58.9177 32.2897C59.0999 33.0078 58.9987 33.7685 58.635 34.4139Z" fill="#C03A2B"/>
<path d="M42.4281 28.2622C41.9316 30.4691 38.9798 32.7243 37.0488 33.9174C36.1729 31.0829 39.5316 29.0898 42.4281 28.2622Z" fill="#805333"/>
<path d="M47.2556 28.2069C47.6365 28.2069 47.9452 27.8982 47.9452 27.5173C47.9452 27.1364 47.6365 26.8276 47.2556 26.8276C46.8747 26.8276 46.5659 27.1364 46.5659 27.5173C46.5659 27.8982 46.8747 28.2069 47.2556 28.2069Z" fill="#E64C3C"/>
<path d="M51.3933 30.2758C51.7742 30.2758 52.0829 29.967 52.0829 29.5861C52.0829 29.2053 51.7742 28.8965 51.3933 28.8965C51.0124 28.8965 50.7036 29.2053 50.7036 29.5861C50.7036 29.967 51.0124 30.2758 51.3933 30.2758Z" fill="#E64C3C"/>
<path d="M50.7038 34.414C51.0847 34.414 51.3935 34.1052 51.3935 33.7243C51.3935 33.3434 51.0847 33.0347 50.7038 33.0347C50.3229 33.0347 50.0142 33.3434 50.0142 33.7243C50.0142 34.1052 50.3229 34.414 50.7038 34.414Z" fill="#E64C3C"/>
<path d="M45.8762 32.3446C46.2571 32.3446 46.5658 32.0359 46.5658 31.655C46.5658 31.2741 46.2571 30.9653 45.8762 30.9653C45.4953 30.9653 45.1865 31.2741 45.1865 31.655C45.1865 32.0359 45.4953 32.3446 45.8762 32.3446Z" fill="#E64C3C"/>
<path d="M51.3933 26.8276C51.7742 26.8276 52.0829 26.5188 52.0829 26.1379C52.0829 25.757 51.7742 25.4482 51.3933 25.4482C51.0124 25.4482 50.7036 25.757 50.7036 26.1379C50.7036 26.5188 51.0124 26.8276 51.3933 26.8276Z" fill="#E64C3C"/>
<path d="M47.5795 53.4619L47.4277 54.2067C46.5381 58.7328 42.5714 61.9975 37.9588 61.9999H33.1312C28.5082 62.0107 24.5262 58.743 23.6346 54.2067L23.4829 53.4619H47.5795Z" fill="#805333"/>
<path d="M21.7383 46.1382V49.3244C21.7383 54.0209 27.9452 57.8623 35.5314 57.8623C43.1176 57.8623 49.3245 54.0554 49.3245 49.3589V46.1382H21.7383Z" fill="#CB8252"/>
<path d="M32.2004 38.1104C26.2072 39 21.7383 42.2552 21.7383 46.1379C21.7383 50.731 27.9452 54.4552 35.5314 54.4552C41.959 54.4552 47.359 51.8069 48.89 48.2483C50.5176 44.4345 47.5107 41.1035 43.5383 39.4069L32.2004 38.1104Z" fill="#CF976A"/>
<path d="M46.221 47.5172C44.9934 49.8965 40.7037 51.6551 35.5313 51.6551C30.3589 51.6551 26.0692 49.8965 24.8417 47.5172C24.761 47.3568 24.6919 47.1909 24.6348 47.0206C26.552 45.8206 29.5244 43.5724 30.0141 41.3655C30.7037 38.2896 36.1244 34.7655 38.9796 35.1586C42.3175 35.5931 44.0692 40.5793 45.8141 44.1655C45.9175 44.3793 46.421 45.4 46.5037 45.4482C46.6713 46.149 46.5705 46.8871 46.221 47.5172Z" fill="#F0C419"/>
<path d="M30.014 41.3657C29.5175 43.5726 26.5658 45.8278 24.6347 47.0209C23.7589 44.1864 27.1175 42.1933 30.014 41.3657Z" fill="#805333"/>
<path d="M34.8415 41.9999C35.2224 41.9999 35.5312 41.6911 35.5312 41.3103C35.5312 40.9294 35.2224 40.6206 34.8415 40.6206C34.4606 40.6206 34.1519 40.9294 34.1519 41.3103C34.1519 41.6911 34.4606 41.9999 34.8415 41.9999Z" fill="#F29C1F"/>
<path d="M40.3591 45.4482C40.74 45.4482 41.0487 45.1394 41.0487 44.7585C41.0487 44.3776 40.74 44.0688 40.3591 44.0688C39.9782 44.0688 39.6694 44.3776 39.6694 44.7585C39.6694 45.1394 39.9782 45.4482 40.3591 45.4482Z" fill="#F29C1F"/>
<path d="M36.2209 48.8969C36.6018 48.8969 36.9106 48.5881 36.9106 48.2072C36.9106 47.8263 36.6018 47.5176 36.2209 47.5176C35.84 47.5176 35.5312 47.8263 35.5312 48.2072C35.5312 48.5881 35.84 48.8969 36.2209 48.8969Z" fill="#F29C1F"/>
<path d="M30.7038 48.2069C31.0847 48.2069 31.3935 47.8982 31.3935 47.5173C31.3935 47.1364 31.0847 46.8276 30.7038 46.8276C30.3229 46.8276 30.0142 47.1364 30.0142 47.5173C30.0142 47.8982 30.3229 48.2069 30.7038 48.2069Z" fill="#F29C1F"/>
<path d="M38.9797 39.9311C39.3606 39.9311 39.6694 39.6223 39.6694 39.2414C39.6694 38.8605 39.3606 38.5518 38.9797 38.5518C38.5988 38.5518 38.29 38.8605 38.29 39.2414C38.29 39.6223 38.5988 39.9311 38.9797 39.9311Z" fill="#F29C1F"/>
</g>
<defs>
<linearGradient id="paint0_linear_1_15494" x1="35.4573" y1="67.7485" x2="35.4573" y2="138.75" gradientUnits="userSpaceOnUse">
<stop stop-color="#C03A2B" stop-opacity="0.2"/>
<stop offset="1" stop-color="#C03A2B" stop-opacity="0"/>
</linearGradient>
<clipPath id="clip0_1_15494">
<rect width="40" height="40" fill="white" transform="translate(21.7383 22)"/>
</clipPath>
</defs>
</svg>
