<svg width="86" height="86" viewBox="0 0 86 86" fill="none" xmlns="http://www.w3.org/2000/svg">
<rect x="0.134277" y="67.7485" width="70" height="70" rx="18" transform="rotate(-75 0.134277 67.7485)" fill="url(#paint0_linear_1_15662)"/>
<path d="M60.7632 33.43C59.0552 29.9334 55.0538 28.2034 51.3366 29.3543L51.3073 29.3633C45.6223 31.1234 39.5379 31.1234 33.8528 29.3633L33.8236 29.3543C30.1063 28.2034 26.1049 29.9335 24.397 33.43C21.9745 38.3892 21.9745 44.1885 24.397 49.1478C26.1049 52.6443 30.1063 54.3744 33.8236 53.2235L33.8528 53.2145C39.5379 51.4544 45.6223 51.4544 51.3073 53.2145L51.3366 53.2235C55.0538 54.3744 59.0552 52.6443 60.7632 49.1478C63.1857 44.1885 63.1857 38.3892 60.7632 33.43Z" fill="#69CB3A"/>
<path d="M60.7632 33.4299C59.6952 31.2435 57.7306 29.7479 55.4995 29.2153C56.3364 29.9108 57.04 30.7886 57.5439 31.8202C59.9664 36.7795 59.9664 42.5788 57.5439 47.5381C55.8359 51.0345 51.8345 52.7646 48.1173 51.6138L48.0881 51.6047C42.403 49.8446 36.3186 49.8446 30.6335 51.6047L30.6043 51.6138C29.2113 52.045 27.7785 52.0717 26.4414 51.7526C28.4413 53.4143 31.203 54.0348 33.8236 53.2235L33.8528 53.2144C39.5379 51.4543 45.6223 51.4543 51.3074 53.2144L51.3366 53.2235C55.0538 54.3743 59.0552 52.6442 60.7632 49.1478C63.1857 44.1885 63.1857 38.3892 60.7632 33.4299Z" fill="#69CB3A"/>
<path d="M60.7632 33.4299C59.6952 31.2435 57.7306 29.7479 55.4995 29.2153C56.3364 29.9108 57.04 30.7886 57.5439 31.8202C59.9664 36.7795 59.9664 42.5788 57.5439 47.5381C55.8359 51.0345 51.8345 52.7646 48.1173 51.6138L48.0881 51.6047C42.403 49.8446 36.3186 49.8446 30.6335 51.6047L30.6043 51.6138C29.2113 52.045 27.7785 52.0717 26.4414 51.7526C28.4413 53.4143 31.203 54.0348 33.8236 53.2235L33.8528 53.2144C39.5379 51.4543 45.6223 51.4543 51.3074 53.2144L51.3366 53.2235C55.0538 54.3743 59.0552 52.6442 60.7632 49.1478C63.1857 44.1885 63.1857 38.3892 60.7632 33.4299Z" fill="black" fill-opacity="0.1"/>
<path d="M49.098 46.1757C44.7654 46.6446 40.3948 46.6446 36.0623 46.1757C35.4057 46.1047 34.8805 45.598 34.7861 44.9444L34.7176 44.4707C34.4125 42.3604 34.4125 40.2172 34.7176 38.107L34.7861 37.6332C34.8806 36.9796 35.4057 36.473 36.0623 36.4019C40.3948 35.9331 44.7654 35.9331 49.098 36.4019C49.7545 36.4729 50.2797 36.9796 50.3741 37.6332L50.4427 38.107C50.7477 40.2172 50.7477 42.3604 50.4427 44.4707L50.3741 44.9444C50.2796 45.598 49.7545 46.1047 49.098 46.1757Z" fill="#69CB3A"/>
<path d="M49.098 46.1757C44.7654 46.6446 40.3948 46.6446 36.0623 46.1757C35.4057 46.1047 34.8805 45.598 34.7861 44.9444L34.7176 44.4707C34.4125 42.3604 34.4125 40.2172 34.7176 38.107L34.7861 37.6332C34.8806 36.9796 35.4057 36.473 36.0623 36.4019C40.3948 35.9331 44.7654 35.9331 49.098 36.4019C49.7545 36.4729 50.2797 36.9796 50.3741 37.6332L50.4427 38.107C50.7477 40.2172 50.7477 42.3604 50.4427 44.4707L50.3741 44.9444C50.2796 45.598 49.7545 46.1047 49.098 46.1757Z" fill="white" fill-opacity="0.3"/>
<path d="M60.972 41.8653C60.972 41.532 60.7018 41.2617 60.3684 41.2617C60.0351 41.2617 59.7648 41.532 59.7648 41.8653C59.7648 44.1205 59.2416 46.3837 58.2518 48.4102C57.4358 50.0808 55.7079 51.1602 53.8498 51.1602C53.3604 51.1602 52.8729 51.0861 52.4005 50.9398L52.3052 50.9104C48.6901 49.7995 44.8365 49.8138 41.1609 50.9518L33.8237 53.2234L33.8529 53.2143C36.5875 52.3677 39.4144 51.9284 42.2448 51.8962C45.4658 51.0423 48.8057 51.098 51.9506 52.0644L52.0436 52.0931C52.6316 52.2752 53.2393 52.3675 53.8497 52.3675C56.1658 52.3675 58.3194 51.0221 59.3364 48.9401C60.4065 46.7495 60.972 44.3031 60.972 41.8653Z" fill="#69CB3A"/>
<path d="M60.972 41.8653C60.972 41.532 60.7018 41.2617 60.3684 41.2617C60.0351 41.2617 59.7648 41.532 59.7648 41.8653C59.7648 44.1205 59.2416 46.3837 58.2518 48.4102C57.4358 50.0808 55.7079 51.1602 53.8498 51.1602C53.3604 51.1602 52.8729 51.0861 52.4005 50.9398L52.3052 50.9104C48.6901 49.7995 44.8365 49.8138 41.1609 50.9518L33.8237 53.2234L33.8529 53.2143C36.5875 52.3677 39.4144 51.9284 42.2448 51.8962C45.4658 51.0423 48.8057 51.098 51.9506 52.0644L52.0436 52.0931C52.6316 52.2752 53.2393 52.3675 53.8497 52.3675C56.1658 52.3675 58.3194 51.0221 59.3364 48.9401C60.4065 46.7495 60.972 44.3031 60.972 41.8653Z" fill="white" fill-opacity="0.3"/>
<path d="M47.0215 51.2964C45.6658 50.932 44.2905 50.666 42.9062 50.4985C42.3212 50.6219 41.7388 50.7731 41.1609 50.952L33.8237 53.2235L33.8529 53.2145C36.5875 52.3679 39.4144 51.9286 42.2448 51.8964C43.8209 51.4786 45.4253 51.2786 47.0215 51.2964Z" fill="#69CB3A"/>
<path d="M47.0215 51.2964C45.6658 50.932 44.2905 50.666 42.9062 50.4985C42.3212 50.6219 41.7388 50.7731 41.1609 50.952L33.8237 53.2235L33.8529 53.2145C36.5875 52.3679 39.4144 51.9286 42.2448 51.8964C43.8209 51.4786 45.4253 51.2786 47.0215 51.2964Z" fill="white" fill-opacity="0.3"/>
<path d="M60.9722 41.8653C60.9722 41.532 60.702 41.2617 60.3686 41.2617C60.0352 41.2617 59.765 41.532 59.765 41.8653C59.765 44.1205 59.2418 46.3837 58.252 48.4102C57.4476 50.057 55.7571 51.1294 53.9294 51.1595C53.142 51.5458 52.2917 51.8006 51.4141 51.9088C51.5936 51.9577 51.7726 52.0096 51.9509 52.0644L52.0439 52.0931C52.6319 52.2752 53.2395 52.3675 53.85 52.3675C56.166 52.3675 58.3196 51.0221 59.3366 48.9401C60.4066 46.7495 60.9722 44.3031 60.9722 41.8653Z" fill="#69CB3A"/>
<path d="M60.9722 41.8653C60.9722 41.532 60.702 41.2617 60.3686 41.2617C60.0352 41.2617 59.765 41.532 59.765 41.8653C59.765 44.1205 59.2418 46.3837 58.252 48.4102C57.4476 50.057 55.7571 51.1294 53.9294 51.1595C53.142 51.5458 52.2917 51.8006 51.4141 51.9088C51.5936 51.9577 51.7726 52.0096 51.9509 52.0644L52.0439 52.0931C52.6319 52.2752 53.2395 52.3675 53.85 52.3675C56.166 52.3675 58.3196 51.0221 59.3366 48.9401C60.4066 46.7495 60.9722 44.3031 60.9722 41.8653Z" fill="white" fill-opacity="0.3"/>
<path d="M32.8256 31.6763C36.4406 32.7871 40.2942 32.7728 43.9699 31.6348L51.3071 29.3633C48.5741 30.2094 45.7488 30.6487 42.9199 30.6813C39.6884 31.5445 36.3361 31.492 33.1801 30.5222L33.0871 30.4934C32.4991 30.3114 31.8914 30.2191 31.281 30.2191C28.9649 30.2191 26.8113 31.5645 25.7943 33.6465C24.7243 35.837 24.1587 38.2834 24.1587 40.7213C24.1587 41.0546 24.4289 41.3248 24.7623 41.3248C25.0956 41.3248 25.3659 41.0546 25.3659 40.7213C25.3659 38.466 25.8891 36.2028 26.8789 34.1764C27.6949 32.5058 29.4228 31.4263 31.2809 31.4263C31.7703 31.4263 32.2578 31.5005 32.7302 31.6467L32.8256 31.6763Z" fill="#69CB3A"/>
<path d="M32.8256 31.6763C36.4406 32.7871 40.2942 32.7728 43.9699 31.6348L51.3071 29.3633C48.5741 30.2094 45.7488 30.6487 42.9199 30.6813C39.6884 31.5445 36.3361 31.492 33.1801 30.5222L33.0871 30.4934C32.4991 30.3114 31.8914 30.2191 31.281 30.2191C28.9649 30.2191 26.8113 31.5645 25.7943 33.6465C24.7243 35.837 24.1587 38.2834 24.1587 40.7213C24.1587 41.0546 24.4289 41.3248 24.7623 41.3248C25.0956 41.3248 25.3659 41.0546 25.3659 40.7213C25.3659 38.466 25.8891 36.2028 26.8789 34.1764C27.6949 32.5058 29.4228 31.4263 31.2809 31.4263C31.7703 31.4263 32.2578 31.5005 32.7302 31.6467L32.8256 31.6763Z" fill="white" fill-opacity="0.3"/>
<path d="M47.145 40.6462H38.0142C37.6809 40.6462 37.4106 40.3759 37.4106 40.0426C37.4106 39.7092 37.6809 39.439 38.0142 39.439H47.145C47.4784 39.439 47.7486 39.7092 47.7486 40.0426C47.7486 40.3758 47.4784 40.6462 47.145 40.6462Z" fill="#69CB3A"/>
<path d="M44.6411 43.1388H40.5196C40.1862 43.1388 39.916 42.8686 39.916 42.5352C39.916 42.2019 40.1862 41.9316 40.5196 41.9316H44.6411C44.9745 41.9316 45.2447 42.2019 45.2447 42.5352C45.2448 42.8686 44.9745 43.1388 44.6411 43.1388Z" fill="#69CB3A"/>
<defs>
<linearGradient id="paint0_linear_1_15662" x1="35.4573" y1="67.7485" x2="35.4573" y2="138.75" gradientUnits="userSpaceOnUse">
<stop stop-color="#69CB3A" stop-opacity="0.2"/>
<stop offset="1" stop-color="#69CB3A" stop-opacity="0"/>
</linearGradient>
</defs>
</svg>
