<svg width="86" height="86" viewBox="0 0 86 86" fill="none" xmlns="http://www.w3.org/2000/svg">
<rect x="0.134277" y="67.7485" width="70" height="70" rx="18" transform="rotate(-75 0.134277 67.7485)" fill="url(#paint0_linear_1_15621)"/>
<g clip-path="url(#clip0_1_15621)">
<path d="M54.6075 55.3883L43.1387 48.1448L54.6075 40.9014H56.4184C56.7517 40.9014 57.022 41.1716 57.022 41.505V54.7847C57.022 55.118 56.7517 55.3883 56.4184 55.3883H54.6075Z" fill="#99583C"/>
<path d="M29.2554 54.7847V52.9738L30.4626 51.7666L29.2554 50.5593V41.505C29.2554 41.1716 29.5256 40.9014 29.859 40.9014H54.6075V55.3883H29.859C29.5256 55.3883 29.2554 55.118 29.2554 54.7847Z" fill="#BA6541"/>
<path d="M54.6075 38.4869L43.1387 31.2435L54.6075 24H56.4184C56.7517 24 57.022 24.2703 57.022 24.6036V26.4145L55.8147 27.6217L57.022 28.829V37.8833C57.022 38.2167 56.7517 38.4869 56.4184 38.4869H54.6075Z" fill="#99583C"/>
<path d="M29.2554 37.8833V24.6036C29.2554 24.2703 29.5256 24 29.859 24H54.6075V38.4869H29.859C29.5256 38.4869 29.2554 38.2167 29.2554 37.8833Z" fill="#BA6541"/>
<path d="M53.4003 43.3159H50.9858V45.7304H53.4003C54.067 45.7304 54.6076 45.1899 54.6076 44.5232C54.6076 43.8564 54.067 43.3159 53.4003 43.3159Z" fill="#FFD787"/>
<path d="M52.193 44.5232C52.193 43.8564 51.6525 43.3159 50.9858 43.3159H49.7785C49.1118 43.3159 48.5713 43.8564 48.5713 44.5232C48.5713 45.1899 49.1118 45.7304 49.7785 45.7304H50.9858C51.6525 45.7304 52.193 45.1899 52.193 44.5232Z" fill="#FFE9C4"/>
<path d="M49.7787 48.145H47.3643V50.5595H49.7787C50.4455 50.5595 50.986 50.019 50.986 49.3523C50.986 48.6855 50.4455 48.145 49.7787 48.145Z" fill="#FFD787"/>
<path d="M48.5714 49.3523C48.5714 48.6855 48.0309 48.145 47.3642 48.145H46.1569C45.4902 48.145 44.9497 48.6855 44.9497 49.3523C44.9497 50.019 45.4902 50.5595 46.1569 50.5595H47.3642C48.0309 50.5595 48.5714 50.019 48.5714 49.3523Z" fill="#FFE9C4"/>
<path d="M32.8769 50.5596H30.4624V52.9741H32.8769C33.5436 52.9741 34.0841 52.4335 34.0841 51.7668C34.0841 51.1001 33.5436 50.5596 32.8769 50.5596Z" fill="#FFD787"/>
<path d="M30.4626 50.5596H29.2554V52.9741H30.4626C31.1293 52.9741 31.6699 52.4335 31.6699 51.7668C31.6699 51.1001 31.1293 50.5596 30.4626 50.5596Z" fill="#FFE9C4"/>
<path d="M36.499 33.6577H34.0845V36.0722H36.499C37.1657 36.0722 37.7062 35.5317 37.7062 34.865C37.7062 34.1982 37.1657 33.6577 36.499 33.6577Z" fill="#FFD787"/>
<path d="M35.2917 34.865C35.2917 34.1982 34.7511 33.6577 34.0844 33.6577H32.8772C32.2104 33.6577 31.6699 34.1982 31.6699 34.865C31.6699 35.5317 32.2104 36.0722 32.8772 36.0722H34.0844C34.7511 36.0722 35.2917 35.5317 35.2917 34.865Z" fill="#FFE9C4"/>
<path d="M54.6076 26.4146L53.4004 27.6218L54.6076 28.829H57.0221V26.4146H54.6076Z" fill="#FFD787"/>
<path d="M53.4001 26.4146C52.7334 26.4146 52.1929 26.9551 52.1929 27.6218C52.1929 28.2885 52.7334 28.829 53.4001 28.829H54.6074V26.4146H53.4001Z" fill="#FFE9C4"/>
<path d="M35.2915 44.5229L36.4987 48.1447H38.9132C40.2467 48.1447 41.3277 47.0637 41.3277 45.7302L35.2915 44.5229Z" fill="#10B25F"/>
<path d="M34.0844 48.1447H36.4989C37.8323 48.1447 38.9134 47.0637 38.9134 45.7302L35.2917 44.5229L31.6699 45.7302C31.6699 47.0637 32.7509 48.1447 34.0844 48.1447Z" fill="#5CC563"/>
<path d="M38.9135 43.3159H36.499L38.9135 45.7304H41.328C41.328 44.3969 40.2469 43.3159 38.9135 43.3159Z" fill="#5CC563"/>
<path d="M36.4989 43.3159H34.0844C32.7509 43.3159 31.6699 44.3969 31.6699 45.7304H38.9134C38.9134 44.3969 37.8323 43.3159 36.4989 43.3159Z" fill="#83D47F"/>
<path d="M35.2915 27.6216L36.4987 31.2433H38.9132C40.2467 31.2433 41.3277 30.1623 41.3277 28.8288L35.2915 27.6216Z" fill="#10B25F"/>
<path d="M34.0844 31.2433H36.4989C37.8323 31.2433 38.9134 30.1623 38.9134 28.8288L35.2917 27.6216L31.6699 28.8288C31.6699 30.1623 32.7509 31.2433 34.0844 31.2433Z" fill="#5CC563"/>
<path d="M38.9135 26.4146H36.499L38.9135 28.829H41.328C41.328 27.4955 40.2469 26.4146 38.9135 26.4146Z" fill="#5CC563"/>
<path d="M36.4989 26.4146H34.0844C32.7509 26.4146 31.6699 27.4955 31.6699 28.829H38.9134C38.9134 27.4955 37.8323 26.4146 36.4989 26.4146Z" fill="#83D47F"/>
<path d="M48.5713 32.4507L49.7785 36.0724H52.193C53.5265 36.0724 54.6075 34.9915 54.6075 33.6579L48.5713 32.4507Z" fill="#10B25F"/>
<path d="M47.3642 36.0724H49.7787C51.1121 36.0724 52.1932 34.9915 52.1932 33.6579L48.5714 32.4507L44.9497 33.6579C44.9497 34.9915 46.0307 36.0724 47.3642 36.0724Z" fill="#5CC563"/>
<path d="M52.1928 31.2437H49.7783L52.1928 33.6581H54.6073C54.6073 32.3246 53.5263 31.2437 52.1928 31.2437Z" fill="#5CC563"/>
<path d="M49.7787 31.2437H47.3642C46.0307 31.2437 44.9497 32.3246 44.9497 33.6581H52.1932C52.1932 32.3246 51.1121 31.2437 49.7787 31.2437Z" fill="#83D47F"/>
<path d="M26.7603 60.2175C28.3062 60.2175 29.7887 60.832 30.8813 61.9255L31.8932 62.9382C32.5725 63.6181 33.4942 64.0001 34.4553 64.0001H51.8219C52.783 64.0001 53.7046 63.6181 54.384 62.9382L55.3959 61.9255C56.4884 60.832 57.9709 60.2175 59.5168 60.2175V59.0103H26.7603V60.2175Z" fill="#CBE2FF"/>
<path d="M61.9316 57.8027H59.5171V60.2172H61.9316C62.5983 60.2172 63.1388 59.6767 63.1388 59.01C63.1388 58.3433 62.5983 57.8027 61.9316 57.8027Z" fill="#CBE2FF"/>
<path d="M60.7242 59.01C60.7242 58.3433 60.1837 57.8027 59.5169 57.8027H24.3459C23.6792 57.8027 23.1387 58.3433 23.1387 59.01C23.1387 59.6767 23.6792 60.2172 24.3459 60.2172H59.5169C60.1837 60.2172 60.7242 59.6767 60.7242 59.01Z" fill="#E1EEFF"/>
<path d="M36.4986 53.5778C36.832 53.5778 37.1023 53.3076 37.1023 52.9742C37.1023 52.6409 36.832 52.3706 36.4986 52.3706C36.1653 52.3706 35.895 52.6409 35.895 52.9742C35.895 53.3076 36.1653 53.5778 36.4986 53.5778Z" fill="#99583C"/>
<path d="M38.9132 51.1633C39.2466 51.1633 39.5168 50.893 39.5168 50.5597C39.5168 50.2263 39.2466 49.9561 38.9132 49.9561C38.5798 49.9561 38.3096 50.2263 38.3096 50.5597C38.3096 50.893 38.5798 51.1633 38.9132 51.1633Z" fill="#99583C"/>
<path d="M49.7784 53.5778C50.1118 53.5778 50.382 53.3076 50.382 52.9742C50.382 52.6409 50.1118 52.3706 49.7784 52.3706C49.4451 52.3706 49.1748 52.6409 49.1748 52.9742C49.1748 53.3076 49.4451 53.5778 49.7784 53.5778Z" fill="#99583C"/>
<path d="M47.3639 27.0183C47.6972 27.0183 47.9675 26.748 47.9675 26.4147C47.9675 26.0813 47.6972 25.811 47.3639 25.811C47.0305 25.811 46.7603 26.0813 46.7603 26.4147C46.7603 26.748 47.0305 27.0183 47.3639 27.0183Z" fill="#99583C"/>
<path d="M49.7784 29.4328C50.1118 29.4328 50.382 29.1626 50.382 28.8292C50.382 28.4958 50.1118 28.2256 49.7784 28.2256C49.4451 28.2256 49.1748 28.4958 49.1748 28.8292C49.1748 29.1626 49.4451 29.4328 49.7784 29.4328Z" fill="#99583C"/>
</g>
<defs>
<linearGradient id="paint0_linear_1_15621" x1="35.4573" y1="67.7485" x2="35.4573" y2="138.75" gradientUnits="userSpaceOnUse">
<stop stop-color="#BA6541" stop-opacity="0.2"/>
<stop offset="1" stop-color="#BA6541" stop-opacity="0"/>
</linearGradient>
<clipPath id="clip0_1_15621">
<rect width="40" height="40" fill="white" transform="translate(23.1387 24)"/>
</clipPath>
</defs>
</svg>
