<svg width="86" height="86" viewBox="0 0 86 86" fill="none" xmlns="http://www.w3.org/2000/svg">
<rect x="0.134277" y="67.7485" width="70" height="70" rx="18" transform="rotate(-75 0.134277 67.7485)" fill="url(#paint0_linear_1_15454)"/>
<path d="M37.4756 25.5171V33.1033C37.4756 33.8653 38.0929 34.4826 38.8549 34.4826C39.6169 34.4826 40.2342 33.8653 40.2342 33.1033C40.2342 32.3412 40.8514 31.724 41.6135 31.724C42.3755 31.724 42.9928 32.3412 42.9928 33.1033V33.7929C42.9928 34.555 43.61 35.1722 44.3721 35.1722C45.1341 35.1722 45.7514 34.555 45.7514 33.7929V25.5171H37.4756Z" fill="#FFCD6B"/>
<path d="M60.234 22.7588H46.4409V25.5174H60.234C60.9961 25.5174 61.6133 24.9001 61.6133 24.1381C61.6133 23.3761 60.9954 22.7588 60.234 22.7588Z" fill="#965735"/>
<path d="M29.8893 37.9312H53.3376C54.4803 37.9312 55.4066 38.8573 55.4066 40.0001C55.4066 41.1429 54.4804 42.0691 53.3376 42.0691H29.8893C28.7466 42.0691 27.8203 41.143 27.8203 40.0001C27.8204 38.8574 28.7466 37.9312 29.8893 37.9312Z" fill="#F0DBC2"/>
<path d="M52.6478 60.0004H30.5789L28.3864 56.2762C25.6471 51.6218 26.5637 45.6818 30.5789 42.0693H52.6478C56.663 45.6818 57.5796 51.6218 54.8403 56.2762L52.6478 60.0004Z" fill="#F0DBC2"/>
<path d="M40.2342 20H42.9928C45.2783 20 47.1307 21.8524 47.1307 24.138C47.1307 26.4235 45.2783 28.2759 42.9928 28.2759H40.2342C37.9486 28.2759 36.0962 26.4235 36.0962 24.138C36.0963 21.8524 37.9487 20 40.2342 20Z" fill="#BF7341"/>
<path d="M56.0169 47.5859H27.21C26.421 50.5232 26.8451 53.6542 28.3866 56.2756L30.579 59.9998H52.648L54.8404 56.2756C56.3817 53.6542 56.8059 50.5232 56.0169 47.5859Z" fill="#FFCD6B"/>
<path d="M42.3046 20H40.9253V28.2759H42.3046V20Z" fill="#FFCD6B"/>
<path d="M38.165 20.5579V27.718C38.5912 27.9648 39.0589 28.1324 39.5443 28.2138V20.062C39.0582 20.1434 38.5913 20.311 38.165 20.5579Z" fill="#FFCD6B"/>
<path d="M43.6826 20.062V28.2137C44.1682 28.1323 44.6357 27.9647 45.0619 27.7179V20.5579C44.635 20.311 44.1682 20.1434 43.6826 20.062Z" fill="#FFCD6B"/>
<path d="M52.6478 42.7588H34.0271C33.6464 42.7588 33.3374 42.4498 33.3374 42.0691C33.3374 41.6884 33.6464 41.3794 34.0271 41.3794H52.6478C53.0285 41.3794 53.3375 41.6884 53.3375 42.0691C53.3375 42.4498 53.0285 42.7588 52.6478 42.7588Z" fill="#E6CCAF"/>
<path d="M56.0168 47.5859H49.81C48.2968 53.1377 44.3471 57.7032 39.0713 59.9998H52.6479L54.8403 56.2756C56.3816 53.6542 56.8057 50.5232 56.0168 47.5859Z" fill="#FFB75E"/>
<defs>
<linearGradient id="paint0_linear_1_15454" x1="35.4573" y1="67.7485" x2="35.4573" y2="138.75" gradientUnits="userSpaceOnUse">
<stop stop-color="#FFB75E" stop-opacity="0.2"/>
<stop offset="1" stop-color="#FFB75E" stop-opacity="0"/>
</linearGradient>
</defs>
</svg>
