<svg width="86" height="86" viewBox="0 0 86 86" fill="none" xmlns="http://www.w3.org/2000/svg">
<rect x="0.134277" y="67.7485" width="70" height="70" rx="18" transform="rotate(-75 0.134277 67.7485)" fill="url(#paint0_linear_1_15562)"/>
<g clip-path="url(#clip0_1_15562)">
<path d="M52.7891 58.8618H30.7298C28.7305 58.8604 27.0181 57.4308 26.6608 55.4638L24.5181 43.6895H59.0008L56.8628 55.4639C56.5049 57.4322 54.7898 58.8632 52.7891 58.8618Z" fill="#BF7341"/>
<path d="M31.6987 58.8619H52.789C54.7883 58.8605 56.5008 57.4309 56.858 55.4639L59.0008 43.6895H54.4601C48.449 52.3647 37.9532 56.8495 31.6987 58.8619Z" fill="#B56D3E"/>
<path d="M38.311 40.931H30.0352V27.138C30.0352 24.8524 31.8876 23 34.173 23C36.4586 23 38.311 24.8524 38.311 27.138V40.931Z" fill="#C96E23"/>
<path d="M33.2237 34.573L36.6719 31.8149L35.8104 30.7378L32.3621 33.4959L33.2237 34.573Z" fill="#B5611D"/>
<path d="M56.9316 40.9308H48.6558V39.5515C48.6558 37.266 50.5082 35.4136 52.7937 35.4136C55.0793 35.4136 56.9317 37.266 56.9317 39.5515V40.9308H56.9316Z" fill="#C96E23"/>
<path d="M52.1039 37.4829H50.7246V38.8622H52.1039V37.4829Z" fill="#B5611D"/>
<path d="M55.5521 38.1724H54.1729V39.5517H55.5521V38.1724Z" fill="#B5611D"/>
<path d="M51.6339 40.931H42.6685L49.8974 25.2759C50.5353 23.8897 51.9208 23.0014 53.4464 23H53.7098C54.5981 23 55.4601 23.302 56.1532 23.8573C57.5512 24.9752 58.0112 26.9 57.2705 28.5297L51.6339 40.931Z" fill="#D68033"/>
<path d="M50.446 29.8709L55.2734 28.4907L54.8942 27.1645L50.0668 28.5447L50.446 29.8709Z" fill="#C96E23"/>
<path d="M49.6758 34.4301L49.2593 33.115L52.8047 31.9971L53.2213 33.3129L49.6758 34.4301Z" fill="#C96E23"/>
<path d="M46.1046 39.519L50.4619 38.1401L50.0458 36.8251L45.6884 38.204L46.1046 39.519Z" fill="#C96E23"/>
<path d="M24.518 40.9312H59.0007C59.7627 40.9312 60.38 41.5484 60.38 42.3104C60.38 43.0725 59.7627 43.6897 59.0007 43.6897H24.518C23.7559 43.6898 23.1387 43.0726 23.1387 42.3104C23.1387 41.5484 23.7559 40.9312 24.518 40.9312Z" fill="#BF7341"/>
<path d="M55.5524 40.931V39.5517C55.5524 31.9338 49.3772 25.7586 41.7592 25.7586C34.1413 25.7586 27.9661 31.9338 27.9661 39.5517V40.931H25.2075V39.5517C25.2075 30.4103 32.6178 23 41.7592 23C50.9006 23 58.311 30.4103 58.311 39.5517V40.931H55.5524Z" fill="#965735"/>
<path d="M48.6559 40.9309C48.4656 34.0165 45.4552 28.5171 41.7594 28.5171C38.0635 28.5171 35.0532 34.0164 34.8628 40.9309H48.6559Z" fill="#F09E3E"/>
<path d="M41.9007 36.9757L38.311 38.1723C38.3117 36.524 39.3676 35.0613 40.9317 34.5413L44.5179 33.3447C44.518 34.9923 43.4635 36.455 41.9007 36.9757Z" fill="#D68033"/>
<path d="M48.0275 36.1201C46.1172 38.1781 43.7999 39.8167 41.2227 40.9311H48.6558C48.6165 39.3098 48.4061 37.6974 48.0275 36.1201Z" fill="#EB9634"/>
<path d="M54.1731 46.4482H50.0352V47.8275H54.1731V46.4482Z" fill="#965735"/>
<path d="M47.2766 46.4482H43.1387V47.8275H47.2766V46.4482Z" fill="#965735"/>
<path d="M40.3802 46.4482H36.2422V47.8275H40.3802V46.4482Z" fill="#965735"/>
<path d="M33.4837 46.4482H29.3457V47.8275H33.4837V46.4482Z" fill="#965735"/>
<path d="M33.4837 50.5859H29.3457V51.9652H33.4837V50.5859Z" fill="#965735"/>
<path d="M33.4837 54.7241H29.3457V56.1034H33.4837V54.7241Z" fill="#965735"/>
<path d="M34.8628 40.9308H26.5869V39.5515C26.5869 37.266 28.4393 35.4136 30.7249 35.4136C33.0104 35.4136 34.8629 37.266 34.8629 39.5515V40.9308H34.8628Z" fill="#D68033"/>
<path d="M34.8629 39.5516C34.8636 38.3302 34.3236 37.1716 33.3877 36.3867C32.4553 38.3433 30.9063 39.9398 28.978 40.9309H34.8629V39.5516Z" fill="#D97A27"/>
<path d="M30.0351 37.4829H28.6558V38.8622H30.0351V37.4829Z" fill="#C96E23"/>
<path d="M32.7938 38.1724H31.4146V39.5517H32.7938V38.1724Z" fill="#C96E23"/>
<path d="M58.3113 44.3793H26.5871C26.2064 44.3793 25.8975 44.0703 25.8975 43.6896C25.8975 43.3089 26.2064 43 26.5871 43H58.3113C58.692 43 59.001 43.309 59.001 43.6897C59.001 44.0704 58.692 44.3793 58.3113 44.3793Z" fill="#965735"/>
<path d="M63.1385 52.6549C63.1385 53.7977 62.2123 54.7239 61.0695 54.7239V61.6205C61.0695 62.3825 60.4522 62.9998 59.6902 62.9998H39.0005C38.2385 62.9998 37.6212 62.3825 37.6212 61.6205V54.7239C36.4785 54.7239 35.5522 53.7977 35.5522 52.6549C35.5522 51.5122 36.4784 50.5859 37.6212 50.5859H61.0695C62.2123 50.5859 63.1385 51.5122 63.1385 52.6549Z" fill="#F09E3E"/>
<path d="M58.5703 54.7241C58.5586 54.7372 58.5447 54.7483 58.533 54.7614C56.6337 58.7614 53.2227 61.3965 50.3213 63H59.6903C60.4523 63 61.0696 62.3827 61.0696 61.6207V54.7241H58.5703Z" fill="#F09235"/>
<path d="M50.7247 52.6549C50.7247 53.7977 49.7985 54.7239 48.6557 54.7239V61.6205C48.6557 62.3825 48.0384 62.9998 47.2764 62.9998H39.0005C38.2385 62.9998 37.6212 62.3825 37.6212 61.6205V54.7239C36.4785 54.7239 35.5522 53.7977 35.5522 52.6549C35.5522 51.5122 36.4784 50.5859 37.6212 50.5859H48.6557C49.7985 50.5859 50.7247 51.5122 50.7247 52.6549Z" fill="#F0DBC2"/>
<path d="M58.3109 52.6553H56.9316V54.0346H58.3109V52.6553Z" fill="#D68033"/>
<path d="M54.8627 54.7241H53.4834V56.1034H54.8627V54.7241Z" fill="#D68033"/>
<path d="M59.0004 58.1724H57.6211V59.5517H59.0004V58.1724Z" fill="#D68033"/>
<path d="M52.1039 59.5518H50.7246V60.9311H52.1039V59.5518Z" fill="#D68033"/>
</g>
<defs>
<linearGradient id="paint0_linear_1_15562" x1="35.4573" y1="67.7485" x2="35.4573" y2="138.75" gradientUnits="userSpaceOnUse">
<stop stop-color="#F09235" stop-opacity="0.2"/>
<stop offset="1" stop-color="#F09235" stop-opacity="0"/>
</linearGradient>
<clipPath id="clip0_1_15562">
<rect width="40" height="40" fill="white" transform="translate(23.1387 23)"/>
</clipPath>
</defs>
</svg>
