<svg width="86" height="86" viewBox="0 0 86 86" fill="none" xmlns="http://www.w3.org/2000/svg">
<rect x="0.134277" y="67.7485" width="70" height="70" rx="18" transform="rotate(-75 0.134277 67.7485)" fill="url(#paint0_linear_1_15606)"/>
<path d="M43.0358 64.0003H42.853C42.0188 64.0003 41.3428 63.3241 41.3428 62.4901V37.4272H44.5461V62.4901C44.5461 63.3241 43.8699 64.0003 43.0358 64.0003Z" fill="#FDDEB0"/>
<path d="M44.5458 37.4277V62.49C44.5458 63.3241 43.8704 64.0004 43.0363 64.0004H42.8529C42.6503 64.0004 42.4565 63.9605 42.2803 63.8871C42.8305 63.6614 43.2173 63.1207 43.2173 62.4899V37.4277H44.5458Z" fill="#FDD79B"/>
<path d="M42.9445 38.718C48.1133 38.718 52.3035 34.5279 52.3035 29.359C52.3035 24.1902 48.1133 20 42.9445 20C37.7756 20 33.5854 24.1902 33.5854 29.359C33.5854 34.5279 37.7756 38.718 42.9445 38.718Z" fill="#D4ECAC"/>
<path d="M52.3032 29.359C52.3032 34.5284 48.1128 38.7181 42.9442 38.7181C40.8734 38.7181 38.9596 38.0453 37.4097 36.9069C38.599 37.4544 39.9217 37.759 41.316 37.759C46.4846 37.759 50.6749 33.5694 50.6749 28.4001C50.6749 25.3023 49.1699 22.5564 46.8512 20.853C50.0693 22.3329 52.3032 25.5848 52.3032 29.359Z" fill="#69CB3A"/>
<path d="M52.1199 32.2064H33.7686C33.0289 32.2064 32.4292 31.6067 32.4292 30.8669V27.8511C32.4292 27.1114 33.0289 26.5117 33.7686 26.5117H52.12C52.8597 26.5117 53.4594 27.1114 53.4594 27.8511V30.8669C53.4593 31.6067 52.8596 32.2064 52.1199 32.2064Z" fill="#A2E62E"/>
<path d="M53.459 27.8516V30.8675C53.459 31.607 52.8598 32.2069 52.1195 32.2069H33.7686C33.0284 32.2069 32.4292 31.607 32.4292 30.8675V30.3215H50.3979C51.1374 30.3215 51.7373 29.7215 51.7373 28.9821V26.5122H52.1195C52.8598 26.5122 53.459 27.1113 53.459 27.8516Z" fill="#69CB3A"/>
<defs>
<linearGradient id="paint0_linear_1_15606" x1="35.4573" y1="67.7485" x2="35.4573" y2="138.75" gradientUnits="userSpaceOnUse">
<stop stop-color="#69CB3A" stop-opacity="0.2"/>
<stop offset="1" stop-color="#69CB3A" stop-opacity="0"/>
</linearGradient>
</defs>
</svg>
