<svg width="86" height="86" viewBox="0 0 86 86" fill="none" xmlns="http://www.w3.org/2000/svg">
<rect x="0.134277" y="67.7485" width="70" height="70" rx="18" transform="rotate(-75 0.134277 67.7485)" fill="url(#paint0_linear_1_15472)"/>
<g clip-path="url(#clip0_1_15472)">
<path d="M56.4635 49.1175H53.3333C52.4254 49.1175 51.6895 48.3816 51.6895 47.4737V33.3967C51.6895 32.4889 52.4253 31.7529 53.3333 31.7529H61.2784C63.841 31.7529 65.9259 33.8377 65.9259 36.4003V39.6551C65.9259 44.8727 61.6811 49.1175 56.4635 49.1175ZM54.9771 45.83H56.4636C59.8684 45.83 62.6384 43.0601 62.6384 39.6552V36.4003C62.6384 35.6505 62.0283 35.0406 61.2785 35.0406H54.9771V45.83Z" fill="#CBE2FF"/>
<path d="M62.638 36.4002V39.6551C62.638 42.9198 60.0909 45.5991 56.8799 45.8143V45.8299H58.3664C61.7712 45.8299 64.5412 43.06 64.5412 39.6552V36.4003C64.5412 35.6505 63.9311 35.0405 63.1813 35.0405H61.2782C62.028 35.0404 62.638 35.6504 62.638 36.4002Z" fill="#CBE2FF"/>
<path d="M62.638 36.4002V39.6551C62.638 42.9198 60.0909 45.5991 56.8799 45.8143V45.8299H58.3664C61.7712 45.8299 64.5412 43.06 64.5412 39.6552V36.4003C64.5412 35.6505 63.9311 35.0405 63.1813 35.0405H61.2782C62.028 35.0404 62.638 35.6504 62.638 36.4002Z" fill="black" fill-opacity="0.2"/>
<path d="M58.5765 30.739V35.7366C55.558 40.4153 52.9088 40.4158 47.2401 40.4158C41.5715 40.4158 41.5715 43.957 35.9028 43.957C30.2341 43.957 27.1745 36.4635 24.5664 32.1954V30.7391C24.5664 29.7617 25.3588 28.9702 26.3361 28.9702H56.8077C57.7842 28.9701 58.5765 29.7616 58.5765 30.739Z" fill="#CBE2FF"/>
<path d="M24.5664 30.7391V32.1954C26.992 36.1647 29.8085 42.9226 34.7505 43.8493C34.645 43.2247 34.5892 42.5831 34.5892 41.9285V30.7398C34.5892 29.7623 35.381 28.9705 36.3586 28.9705L36.3578 28.9702H26.3361C25.3587 28.9702 24.5664 29.7617 24.5664 30.7391Z" fill="#CBE2FF"/>
<path d="M24.5664 30.7391V32.1954C26.992 36.1647 29.8085 42.9226 34.7505 43.8493C34.645 43.2247 34.5892 42.5831 34.5892 41.9285V30.7398C34.5892 29.7623 35.381 28.9705 36.3586 28.9705L36.3578 28.9702H26.3361C25.3587 28.9702 24.5664 29.7617 24.5664 30.7391Z" fill="black" fill-opacity="0.1"/>
<path d="M58.5765 35.7365V41.9276C58.5765 48.2522 53.4497 53.3791 47.125 53.3791H36.0179C29.6933 53.3791 24.5664 48.2522 24.5664 41.9276V32.1953C30.2342 32.1953 30.2342 35.7365 35.9029 35.7365C41.5715 35.7365 41.5715 32.1953 47.2402 32.1953C52.9088 32.1953 52.9088 35.7365 58.5765 35.7365Z" fill="#D4ECAC"/>
<path d="M46.0218 53.379C39.7056 53.3686 34.5893 48.2461 34.5893 41.9284V35.6654C30.1951 35.1665 29.7584 32.1953 24.5664 32.1953V41.9276C24.5664 48.2522 29.6933 53.3791 36.0179 53.3791H46.0218V53.379Z" fill="#CCF49F"/>
<path d="M40.3474 49.3491V52.0325H37.6632C34.5496 52.0325 32.0264 49.5085 32.0264 46.3957V43.7114H34.7098C37.8235 43.7114 40.3474 46.2355 40.3474 49.3491Z" fill="#87DC5E"/>
<path d="M51.9474 40.4316V44.1739C51.9474 48.5146 48.4292 52.0328 44.0885 52.0328H40.3472V48.2915C40.3472 43.9508 43.8654 40.4317 48.2061 40.4317H51.9474V40.4316Z" fill="#69CB3A"/>
<path d="M51.9474 40.4316L40.3472 52.0328V48.2915C40.3472 43.9508 43.8654 40.4317 48.2061 40.4317H51.9474V40.4316Z" fill="#87DC5E"/>
<path d="M40.3474 52.0325H37.6632C34.5496 52.0325 32.0264 49.5085 32.0264 46.3957V43.7114L40.3474 52.0325Z" fill="#69CB3A"/>
<path d="M25.3804 56.3039C25.5833 57.8633 26.9117 59.0302 28.4843 59.0302H54.6594C56.232 59.0302 57.5605 57.8633 57.7634 56.3039L41.5719 54.1685L25.3804 56.3039Z" fill="#CBE2FF"/>
<path d="M35.8878 59.0298H28.4846C26.9119 59.0298 25.5833 57.8629 25.3804 56.3035L41.5719 54.168L45.2739 54.6563L32.7836 56.3035C32.9864 57.8628 34.315 59.0298 35.8878 59.0298Z" fill="#CBE2FF"/>
<path d="M35.8878 59.0298H28.4846C26.9119 59.0298 25.5833 57.8629 25.3804 56.3035L41.5719 54.168L45.2739 54.6563L32.7836 56.3035C32.9864 57.8628 34.315 59.0298 35.8878 59.0298Z" fill="black" fill-opacity="0.1"/>
<path d="M59.0827 52.0327H24.0612C22.8818 52.0327 21.9258 52.9888 21.9258 54.1682C21.9258 55.3476 22.8818 56.3036 24.0612 56.3036H59.0827C60.2621 56.3036 61.2181 55.3476 61.2181 54.1682C61.2181 52.9888 60.2621 52.0327 59.0827 52.0327Z" fill="#CBE2FF"/>
<path d="M33.7124 55.6772C34.0993 56.0641 34.6334 56.303 35.2223 56.303H24.0613C23.4715 56.303 22.9374 56.0641 22.5514 55.6772C22.1646 55.2912 21.9258 54.7571 21.9258 54.1683C21.9258 52.9887 22.8818 52.0327 24.0613 52.0327H35.2222C34.0436 52.0327 33.0867 52.9888 33.0867 54.1683C33.0867 54.7571 33.3263 55.2912 33.7124 55.6772Z" fill="#CBE2FF"/>
<path d="M33.7124 55.6772C34.0993 56.0641 34.6334 56.303 35.2223 56.303H24.0613C23.4715 56.303 22.9374 56.0641 22.5514 55.6772C22.1646 55.2912 21.9258 54.7571 21.9258 54.1683C21.9258 52.9887 22.8818 52.0327 24.0613 52.0327H35.2222C34.0436 52.0327 33.0867 52.9888 33.0867 54.1683C33.0867 54.7571 33.3263 55.2912 33.7124 55.6772Z" fill="black" fill-opacity="0.1"/>
</g>
<defs>
<linearGradient id="paint0_linear_1_15472" x1="35.4573" y1="67.7485" x2="35.4573" y2="138.75" gradientUnits="userSpaceOnUse">
<stop stop-color="#53B175" stop-opacity="0.2"/>
<stop offset="1" stop-color="#53B175" stop-opacity="0"/>
</linearGradient>
<clipPath id="clip0_1_15472">
<rect width="44" height="44" fill="white" transform="translate(21.9258 22)"/>
</clipPath>
</defs>
</svg>
