<svg width="86" height="86" viewBox="0 0 86 86" fill="none" xmlns="http://www.w3.org/2000/svg">
<rect x="0.134277" y="67.7485" width="70" height="70" rx="18" transform="rotate(-75 0.134277 67.7485)" fill="url(#paint0_linear_1_15541)"/>
<g clip-path="url(#clip0_1_15541)">
<path d="M41.1194 58.61C41.8005 58.61 42.3526 58.0578 42.3526 57.3768C42.3526 56.6957 41.8005 56.1436 41.1194 56.1436C40.4384 56.1436 39.8862 56.6957 39.8862 57.3768C39.8862 58.0578 40.4384 58.61 41.1194 58.61Z" fill="#7FDBD5"/>
<path d="M46.2848 59.9646C46.9328 59.9646 47.4582 59.4392 47.4582 58.7911C47.4582 58.143 46.9328 57.6177 46.2848 57.6177C45.6367 57.6177 45.1113 58.143 45.1113 58.7911C45.1113 59.4392 45.6367 59.9646 46.2848 59.9646Z" fill="#38648C"/>
<path d="M42.6466 53.1726C43.2947 53.1726 43.82 52.6472 43.82 51.9991C43.82 51.3511 43.2947 50.8257 42.6466 50.8257C41.9985 50.8257 41.4731 51.3511 41.4731 51.9991C41.4731 52.6472 41.9985 53.1726 42.6466 53.1726Z" fill="#38648C"/>
<path d="M47.1732 55.6673C47.99 55.6673 48.6522 55.0052 48.6522 54.1884C48.6522 53.3716 47.99 52.7095 47.1732 52.7095C46.3565 52.7095 45.6943 53.3716 45.6943 54.1884C45.6943 55.0052 46.3565 55.6673 47.1732 55.6673Z" fill="#7FDBD5"/>
<path d="M42.6468 64.0001C43.5218 64.0001 44.2311 63.2908 44.2311 62.4158C44.2311 61.5409 43.5218 60.8315 42.6468 60.8315C41.7718 60.8315 41.0625 61.5409 41.0625 62.4158C41.0625 63.2908 41.7718 64.0001 42.6468 64.0001Z" fill="#F28B74"/>
<path d="M36.1208 30.5664L30.7534 35.3461L37.5531 42.9817L42.9205 38.202C45.029 36.3244 45.2161 33.0929 43.3385 30.9844C41.4608 28.8759 38.2293 28.6887 36.1208 30.5664Z" fill="#7FDBD5"/>
<path d="M25.3863 40.1259L30.7536 35.3462L37.5533 42.9818L32.186 47.7615C30.0774 49.6392 26.846 49.4521 24.9683 47.3436C23.0906 45.235 23.2777 42.0036 25.3863 40.1259Z" fill="#287D99"/>
<path opacity="0.1" d="M43.3385 30.9847C42.2747 29.7901 40.7763 29.2129 39.2938 29.2779C38.8744 30.6446 39.0261 32.1784 39.8426 33.4863L41.5353 36.1977C41.827 36.6651 41.7312 37.2769 41.3084 37.6302C38.1414 40.2765 34.0908 43.1323 31.9723 44.0003C28.7324 45.3276 25.9018 41.9693 26.3588 39.2601L25.4431 40.0755C23.3448 41.944 23.0822 45.1706 24.9234 47.2928C26.7941 49.4493 30.0604 49.6545 32.1858 47.7618L42.9205 38.2024C45.029 36.3247 45.2161 33.0932 43.3385 30.9847Z" fill="black"/>
<path d="M41.1533 31.8201L44.9593 37.9167L53.6324 32.5022L49.8264 26.4057C48.3312 24.0107 45.1776 23.2812 42.7826 24.7764C40.3877 26.2715 39.6581 29.4251 41.1533 31.8201Z" fill="#76B7EB"/>
<path d="M48.7655 44.0135L44.9595 37.9169L53.6325 32.5024L57.4386 38.599C58.9337 40.994 58.2043 44.1476 55.8093 45.6428C53.4143 47.1379 50.2607 46.4085 48.7655 44.0135Z" fill="#D1EFF2"/>
<path opacity="0.1" d="M55.8091 45.6427C56.0393 45.4991 56.2536 45.3398 56.4526 45.1676C50.375 44.2745 42.4522 29.7665 42.8092 24.7607C42.8004 24.7661 42.7914 24.771 42.7826 24.7764C40.3876 26.2716 39.6582 29.4252 41.1533 31.8202L48.7653 44.0134C50.2605 46.4084 53.4141 47.1379 55.8091 45.6427Z" fill="black"/>
<path d="M34.0766 51.8302L40.3009 54.4085C40.5305 54.5035 40.7937 54.3945 40.8888 54.1649L44.4571 45.5502C44.5522 45.3206 44.4432 45.0574 44.2136 44.9623L37.9893 42.3841C35.3809 41.3037 32.3904 42.5423 31.3099 45.1509C30.2294 47.7594 31.4682 50.7498 34.0766 51.8302Z" fill="#F28B74"/>
<path opacity="0.1" d="M40.8888 54.1649L41.7676 52.0433C34.4161 50.6442 31.9477 46.2995 32.523 43.3906C32.0141 43.8707 31.595 44.4625 31.3099 45.1508C30.2294 47.7592 31.4681 50.7497 34.0766 51.8302L40.301 54.4084C40.5305 54.5035 40.7936 54.3945 40.8888 54.1649Z" fill="black"/>
<path d="M54.9153 51.8302L48.691 54.4085C48.4615 54.5035 48.1983 54.3945 48.1032 54.1649L44.5349 45.5502C44.4398 45.3206 44.5488 45.0574 44.7784 44.9623L51.0027 42.3841C53.6111 41.3037 56.6016 42.5423 57.6821 45.1509C58.7625 47.7594 57.5238 50.7498 54.9153 51.8302Z" fill="#76B7EB"/>
</g>
<defs>
<linearGradient id="paint0_linear_1_15541" x1="35.4573" y1="67.7485" x2="35.4573" y2="138.75" gradientUnits="userSpaceOnUse">
<stop stop-color="#76B7EB" stop-opacity="0.2"/>
<stop offset="1" stop-color="#76B7EB" stop-opacity="0"/>
</linearGradient>
<clipPath id="clip0_1_15541">
<rect width="40" height="40" fill="white" transform="translate(20.9443 24)"/>
</clipPath>
</defs>
</svg>
