<svg width="86" height="86" viewBox="0 0 86 86" fill="none" xmlns="http://www.w3.org/2000/svg">
<rect x="0.134277" y="67.7485" width="70" height="70" rx="18" transform="rotate(-75 0.134277 67.7485)" fill="url(#paint0_linear_1_15676)"/>
<path d="M32.2974 39.1431H44.9959V59.4606C44.9959 59.9658 44.7952 60.4503 44.438 60.8075C44.0807 61.1647 43.5963 61.3654 43.0911 61.3654H34.2021C33.697 61.3654 33.2125 61.1647 32.8553 60.8075C32.498 60.4503 32.2974 59.9658 32.2974 59.4606V39.1431Z" fill="#AFEFDE"/>
<path d="M44.9959 48.3027C43.637 50.5624 41.7927 52.4916 39.5965 53.9507C37.4002 55.4098 34.907 56.3624 32.2974 56.7393V59.4606C32.2974 59.9658 32.498 60.4502 32.8553 60.8075C33.2125 61.1647 33.697 61.3654 34.2021 61.3654H43.0911C43.5963 61.3654 44.0807 61.1647 44.438 60.8075C44.7952 60.4502 44.9959 59.9658 44.9959 59.4606V48.3027Z" fill="#96E0D7"/>
<path d="M36.1064 25.8096H41.1858V32.1588H36.1064V25.8096Z" fill="#AAD0FF"/>
<path d="M60.2342 54.3811L58.9644 35.9683L50.0755 24.5397L35.4722 22C35.4722 24.104 36.1071 24.5397 38.0119 25.1746C39.9167 25.8095 46.4838 28.3492 46.4838 28.3492L52.6152 38.508C52.6152 38.508 52.6152 43.5874 50.0755 45.4922C47.1137 47.7136 37.8186 38.6357 37.8186 38.6357C37.2261 38.1125 36.4524 37.8418 35.6629 37.8815C34.8735 37.9212 34.1308 38.268 33.5937 38.8479C33.0565 39.4277 32.7674 40.1947 32.7882 40.9849C32.8089 41.7751 33.1379 42.5258 33.7047 43.0767L41.8214 50.9622C41.8214 50.9622 43.3184 55.2432 44.3611 56.2859C46.2659 58.1907 48.1707 58.1907 48.1707 58.1907L48.8056 61.3653V62.0002H62.139V61.3653L60.2342 54.3811Z" fill="#FFDFC5"/>
<path d="M36.1064 30.254V32.1588H41.1858V27.7153C40.5939 28.5032 39.8269 29.1427 38.9453 29.5833C38.0638 30.0239 37.0919 30.2535 36.1064 30.254Z" fill="#AAD0FF"/>
<path d="M60.2341 54.3812L59.5392 44.3057C58.2966 50.8692 55.522 56.8108 48.2578 58.6273L48.8054 61.3654V62.0003H62.1388V61.3654L60.2341 54.3812Z" fill="#FFD5C7"/>
<path d="M55.4722 44.8571C56.6995 44.8571 57.6945 43.8621 57.6945 42.6348C57.6945 41.4075 56.6995 40.4126 55.4722 40.4126C54.2449 40.4126 53.25 41.4075 53.25 42.6348C53.25 43.8621 54.2449 44.8571 55.4722 44.8571Z" fill="#FFF7E6"/>
<path d="M53.2503 48.6667C53.9516 48.6667 54.5202 48.0981 54.5202 47.3968C54.5202 46.6955 53.9516 46.127 53.2503 46.127C52.549 46.127 51.9805 46.6955 51.9805 47.3968C51.9805 48.0981 52.549 48.6667 53.2503 48.6667Z" fill="#FFF7E6"/>
<path d="M33.5672 28.3493C33.5672 27.5098 32.2974 27.5086 32.2974 28.3493C32.2974 29.1887 33.5672 29.1899 33.5672 28.3493Z" fill="#AAD0FF"/>
<path d="M29.7578 27.0793C29.7578 27.9187 31.0277 27.9199 31.0277 27.0793C31.0277 26.2398 29.7578 26.2386 29.7578 27.0793Z" fill="#AAD0FF"/>
<path d="M29.7578 29.6188C29.7578 30.4583 31.0277 30.4594 31.0277 29.6188C31.0277 28.7794 29.7578 28.7782 29.7578 29.6188Z" fill="#AAD0FF"/>
<path d="M27.8532 31.5238C28.2038 31.5238 28.4881 31.2395 28.4881 30.8888C28.4881 30.5382 28.2038 30.2539 27.8532 30.2539C27.5025 30.2539 27.2183 30.5382 27.2183 30.8888C27.2183 31.2395 27.5025 31.5238 27.8532 31.5238Z" fill="#AAD0FF"/>
<path d="M27.8532 28.9842C28.2038 28.9842 28.4881 28.6999 28.4881 28.3493C28.4881 27.9986 28.2038 27.7144 27.8532 27.7144C27.5025 27.7144 27.2183 27.9986 27.2183 28.3493C27.2183 28.6999 27.5025 28.9842 27.8532 28.9842Z" fill="#AAD0FF"/>
<path d="M27.8532 26.4442C28.2038 26.4442 28.4881 26.1599 28.4881 25.8092C28.4881 25.4586 28.2038 25.1743 27.8532 25.1743C27.5025 25.1743 27.2183 25.4586 27.2183 25.8092C27.2183 26.1599 27.5025 26.4442 27.8532 26.4442Z" fill="#AAD0FF"/>
<path d="M25.3131 30.2537C25.6638 30.2537 25.9481 29.9695 25.9481 29.6188C25.9481 29.2682 25.6638 28.9839 25.3131 28.9839C24.9625 28.9839 24.6782 29.2682 24.6782 29.6188C24.6782 29.9695 24.9625 30.2537 25.3131 30.2537Z" fill="#AAD0FF"/>
<path d="M25.3131 32.7933C25.6638 32.7933 25.9481 32.509 25.9481 32.1584C25.9481 31.8077 25.6638 31.5234 25.3131 31.5234C24.9625 31.5234 24.6782 31.8077 24.6782 32.1584C24.6782 32.509 24.9625 32.7933 25.3131 32.7933Z" fill="#AAD0FF"/>
<path d="M25.3131 27.7142C25.6638 27.7142 25.9481 27.4299 25.9481 27.0793C25.9481 26.7286 25.6638 26.4443 25.3131 26.4443C24.9625 26.4443 24.6782 26.7286 24.6782 27.0793C24.6782 27.4299 24.9625 27.7142 25.3131 27.7142Z" fill="#AAD0FF"/>
<path d="M25.3131 25.1746C25.6638 25.1746 25.9481 24.8904 25.9481 24.5397C25.9481 24.1891 25.6638 23.9048 25.3131 23.9048C24.9625 23.9048 24.6782 24.1891 24.6782 24.5397C24.6782 24.8904 24.9625 25.1746 25.3131 25.1746Z" fill="#AAD0FF"/>
<path d="M22.7736 28.9842C23.1243 28.9842 23.4085 28.6999 23.4085 28.3493C23.4085 27.9986 23.1243 27.7144 22.7736 27.7144C22.4229 27.7144 22.1387 27.9986 22.1387 28.3493C22.1387 28.6999 22.4229 28.9842 22.7736 28.9842Z" fill="#AAD0FF"/>
<path d="M22.7736 31.5238C23.1243 31.5238 23.4085 31.2395 23.4085 30.8888C23.4085 30.5382 23.1243 30.2539 22.7736 30.2539C22.4229 30.2539 22.1387 30.5382 22.1387 30.8888C22.1387 31.2395 22.4229 31.5238 22.7736 31.5238Z" fill="#AAD0FF"/>
<path d="M22.7736 34.0633C23.1243 34.0633 23.4085 33.779 23.4085 33.4284C23.4085 33.0777 23.1243 32.7935 22.7736 32.7935C22.4229 32.7935 22.1387 33.0777 22.1387 33.4284C22.1387 33.779 22.4229 34.0633 22.7736 34.0633Z" fill="#AAD0FF"/>
<path d="M22.7736 26.4442C23.1243 26.4442 23.4085 26.1599 23.4085 25.8092C23.4085 25.4586 23.1243 25.1743 22.7736 25.1743C22.4229 25.1743 22.1387 25.4586 22.1387 25.8092C22.1387 26.1599 22.4229 26.4442 22.7736 26.4442Z" fill="#AAD0FF"/>
<path d="M22.7736 23.9046C23.1243 23.9046 23.4085 23.6203 23.4085 23.2697C23.4085 22.919 23.1243 22.6348 22.7736 22.6348C22.4229 22.6348 22.1387 22.919 22.1387 23.2697C22.1387 23.6203 22.4229 23.9046 22.7736 23.9046Z" fill="#AAD0FF"/>
<path d="M32.9324 36.6031V34.0634C32.9328 33.7268 33.0668 33.404 33.3048 33.1659C33.5429 32.9279 33.8656 32.794 34.2023 32.7936H38.0118V35.9682C38.0118 36.8077 39.2817 36.8088 39.2817 35.9682V32.7936H43.0912C43.4279 32.794 43.7507 32.9279 43.9887 33.1659C44.2268 33.404 44.3607 33.7268 44.3611 34.0634V38.5079H41.8214C41.653 38.5079 41.4915 38.5748 41.3724 38.6939C41.2534 38.8129 41.1865 38.9744 41.1865 39.1428C41.1865 39.3112 41.2534 39.4727 41.3724 39.5918C41.4915 39.7108 41.653 39.7777 41.8214 39.7777H44.3611V41.0476C44.3611 41.8871 45.6309 41.8881 45.6309 41.0476V34.0634C45.6302 33.3901 45.3624 32.7445 44.8862 32.2684C44.4101 31.7923 43.7646 31.5245 43.0912 31.5237H41.8214V28.984C41.8214 28.1445 40.5515 28.1435 40.5515 28.984V31.5237H36.742V27.0793C36.742 26.2397 35.4721 26.2387 35.4721 27.0793V31.5237H34.2023C33.529 31.5245 32.8834 31.7923 32.4073 32.2684C31.9312 32.7445 31.6634 33.3901 31.6626 34.0634V36.6031C31.6626 37.4426 32.9324 37.4437 32.9324 36.6031Z" fill="#AAD0FF"/>
<defs>
<linearGradient id="paint0_linear_1_15676" x1="35.4573" y1="67.7485" x2="35.4573" y2="138.75" gradientUnits="userSpaceOnUse">
<stop stop-color="#AAD0FF" stop-opacity="0.2"/>
<stop offset="0.994792" stop-color="#AAD0FF" stop-opacity="0"/>
</linearGradient>
</defs>
</svg>
