<svg width="86" height="86" viewBox="0 0 86 86" fill="none" xmlns="http://www.w3.org/2000/svg">
<rect x="0.134766" y="67.7485" width="70" height="70" rx="18" transform="rotate(-75 0.134766 67.7485)" fill="url(#paint0_linear_1_15432)"/>
<g clip-path="url(#clip0_1_15432)">
<path d="M54.4475 34.2313V28.9181C54.4475 28.5248 54.1287 28.2061 53.7355 28.2061H37.5963C37.203 28.2061 36.8843 28.5248 36.8843 28.9181V34.2313H54.4475Z" fill="#DBEDFF"/>
<path d="M41.6195 28.2061H37.5963C37.203 28.2061 36.8843 28.5248 36.8843 28.9181V34.2313H41.0346V29.1885C41.0345 28.7661 41.2717 28.3965 41.6195 28.2061Z" fill="#B5DCFF"/>
<path d="M58.0271 18.6671C57.6619 18.0309 56.8501 17.8114 56.2143 18.1765L50.7451 21.3161C49.7753 21.8729 49.1729 22.9134 49.1729 24.0316V34.2296H51.8288V24.0316C51.8288 23.8619 51.9202 23.7041 52.0673 23.6196L57.5365 20.4799C58.1726 20.1148 58.3922 19.3032 58.0271 18.6671Z" fill="#B5DCFF"/>
<path d="M51.6947 20.771L50.7451 21.3161C49.7753 21.8728 49.1729 22.9133 49.1729 24.0316V34.2296H50.538V23.1987C50.538 22.2507 50.9721 21.3598 51.6947 20.771Z" fill="#8BCAFF"/>
<path d="M37.834 60.8354L37.9714 63.5114C38.3987 63.8184 38.9224 63.9997 39.4886 63.9997H51.8433C53.2816 63.9997 54.4476 62.8338 54.4476 61.3954V60.8354H37.834Z" fill="#69CB3A"/>
<path d="M37.834 60.8354L37.9714 63.5114C38.3987 63.8184 38.9224 63.9997 39.4886 63.9997H41.6196C41.2719 63.8094 41.0346 63.4398 41.0346 63.0173V60.8354H37.834Z" fill="#69CB3A"/>
<path d="M37.834 60.8354L37.9714 63.5114C38.3987 63.8184 38.9224 63.9997 39.4886 63.9997H41.6196C41.2719 63.8094 41.0346 63.4398 41.0346 63.0173V60.8354H37.834Z" fill="black" fill-opacity="0.2"/>
<path d="M36.8843 34.0444V42.3424C41.8922 43.3426 45.666 47.7629 45.666 53.0649C45.666 56.201 44.3454 59.0283 42.2305 61.0223H54.4476V34.0444H36.8843Z" fill="#FFB640"/>
<path d="M54.4476 34.0444H36.8843V42.3423L37.8435 61.0223H54.4476V34.0444Z" fill="#69CB3A"/>
<path d="M36.8843 34.0444V42.3423L37.8435 61.0223H41.0346V34.0444H36.8843Z" fill="#69CB3A"/>
<path d="M36.8843 34.0444V42.3423L37.8435 61.0223H41.0346V34.0444H36.8843Z" fill="black" fill-opacity="0.2"/>
<path d="M34.7309 63.9998C40.7701 63.9998 45.6658 59.1041 45.6658 53.0649C45.6658 47.0256 40.7701 42.1299 34.7309 42.1299C28.6917 42.1299 23.7959 47.0256 23.7959 53.0649C23.7959 59.1041 28.6917 63.9998 34.7309 63.9998Z" fill="#69CB3A"/>
<path d="M34.7309 63.9998C40.7701 63.9998 45.6658 59.1041 45.6658 53.0649C45.6658 47.0256 40.7701 42.1299 34.7309 42.1299C28.6917 42.1299 23.7959 47.0256 23.7959 53.0649C23.7959 59.1041 28.6917 63.9998 34.7309 63.9998Z" fill="white" fill-opacity="0.2"/>
<path d="M29.812 53.0649C29.812 48.0689 33.1625 43.8556 37.739 42.549C36.7834 42.2761 35.7742 42.1299 34.731 42.1299C28.6918 42.1299 23.7959 47.0256 23.7959 53.0649C23.7959 59.1041 28.6917 63.9999 34.731 63.9999C35.7742 63.9999 36.7834 63.8536 37.739 63.5808C33.1626 62.2742 29.812 58.0609 29.812 53.0649Z" fill="#69CB3A"/>
<path d="M34.7311 61.4641C39.3697 61.4641 43.1301 57.7037 43.1301 53.0651C43.1301 48.4264 39.3697 44.666 34.7311 44.666C30.0924 44.666 26.332 48.4264 26.332 53.0651C26.332 57.7037 30.0924 61.4641 34.7311 61.4641Z" fill="#69CB3A"/>
<path d="M33.6689 44.7324C29.5317 45.2546 26.332 48.786 26.332 53.0649C26.332 57.3438 29.5317 60.8752 33.6689 61.3974C31.31 59.3916 29.8121 56.4038 29.8121 53.0649C29.8121 49.7259 31.31 46.7381 33.6689 44.7324Z" fill="#69CB3A"/>
<path d="M33.6689 44.7324C29.5317 45.2546 26.332 48.786 26.332 53.0649C26.332 57.3438 29.5317 60.8752 33.6689 61.3974C31.31 59.3916 29.8121 56.4038 29.8121 53.0649C29.8121 49.7259 31.31 46.7381 33.6689 44.7324Z" fill="black" fill-opacity="0.04"/>
<path d="M34.731 43.9717C29.7192 43.9717 25.6377 48.0508 25.6377 53.0649C25.6377 58.0731 29.7126 62.1581 34.731 62.1581C39.7391 62.1581 43.8241 58.0833 43.8241 53.0649C43.8241 48.0565 39.749 43.9717 34.731 43.9717ZM27.0906 52.0785C27.2686 50.6915 27.8162 49.4187 28.6321 48.3628C28.7279 48.2388 28.9107 48.2264 29.0216 48.3372L32.7075 52.0231C32.8358 52.1514 32.745 52.3707 32.5635 52.3707H27.348C27.1919 52.3707 27.0708 52.2334 27.0906 52.0785ZM28.6321 57.767C27.8162 56.7111 27.2686 55.4383 27.0906 54.0513C27.0708 53.8965 27.1919 53.7591 27.3481 53.7591H32.5636C32.745 53.7591 32.8358 53.9784 32.7076 54.1067L29.0217 57.7926C28.9108 57.9034 28.728 57.891 28.6321 57.767ZM34.0367 60.4478C34.0367 60.6039 33.8994 60.725 33.7445 60.7052C32.3575 60.5272 31.0847 59.9796 30.0288 59.1637C29.9048 59.0679 29.8924 58.8851 30.0032 58.7742L33.6891 55.0883C33.8174 54.96 34.0367 55.0509 34.0367 55.2322V60.4478ZM34.0367 50.8976C34.0367 51.079 33.8174 51.1698 33.6891 51.0415L30.0032 47.3556C29.8924 47.2448 29.9048 47.0619 30.0288 46.9661C31.0847 46.1501 32.3575 45.6026 33.7445 45.4245C33.8994 45.4047 34.0367 45.5258 34.0367 45.6819V50.8976ZM40.8297 48.3629C41.6456 49.4188 42.1932 50.6915 42.3712 52.0786C42.391 52.2334 42.2699 52.3708 42.1138 52.3708H36.8984C36.717 52.3708 36.6261 52.1515 36.7543 52.0232L40.4403 48.3373C40.551 48.2264 40.734 48.2389 40.8297 48.3629ZM35.4251 45.682C35.4251 45.5259 35.5625 45.4048 35.7174 45.4246C37.1044 45.6026 38.377 46.1502 39.433 46.9661C39.557 47.0619 39.5694 47.2447 39.4586 47.3556L35.7727 51.0415C35.6444 51.1698 35.4251 51.0789 35.4251 50.8975V45.682ZM39.4329 59.1637C38.377 59.9796 37.1044 60.5272 35.7174 60.7052C35.5625 60.725 35.4251 60.6039 35.4251 60.4478V55.2323C35.4251 55.0509 35.6444 54.9601 35.7727 55.0884L39.4586 58.7742C39.5694 58.885 39.557 59.0679 39.4329 59.1637ZM42.3712 54.0513C42.1932 55.4383 41.6456 56.711 40.8297 57.7669C40.734 57.8909 40.5511 57.9033 40.4403 57.7925L36.7543 54.1066C36.626 53.9783 36.7169 53.759 36.8984 53.759H42.1138C42.2699 53.7591 42.391 53.8965 42.3712 54.0513Z" fill="#69CB3A"/>
<path d="M34.731 43.9717C29.7192 43.9717 25.6377 48.0508 25.6377 53.0649C25.6377 58.0731 29.7126 62.1581 34.731 62.1581C39.7391 62.1581 43.8241 58.0833 43.8241 53.0649C43.8241 48.0565 39.749 43.9717 34.731 43.9717ZM27.0906 52.0785C27.2686 50.6915 27.8162 49.4187 28.6321 48.3628C28.7279 48.2388 28.9107 48.2264 29.0216 48.3372L32.7075 52.0231C32.8358 52.1514 32.745 52.3707 32.5635 52.3707H27.348C27.1919 52.3707 27.0708 52.2334 27.0906 52.0785ZM28.6321 57.767C27.8162 56.7111 27.2686 55.4383 27.0906 54.0513C27.0708 53.8965 27.1919 53.7591 27.3481 53.7591H32.5636C32.745 53.7591 32.8358 53.9784 32.7076 54.1067L29.0217 57.7926C28.9108 57.9034 28.728 57.891 28.6321 57.767ZM34.0367 60.4478C34.0367 60.6039 33.8994 60.725 33.7445 60.7052C32.3575 60.5272 31.0847 59.9796 30.0288 59.1637C29.9048 59.0679 29.8924 58.8851 30.0032 58.7742L33.6891 55.0883C33.8174 54.96 34.0367 55.0509 34.0367 55.2322V60.4478ZM34.0367 50.8976C34.0367 51.079 33.8174 51.1698 33.6891 51.0415L30.0032 47.3556C29.8924 47.2448 29.9048 47.0619 30.0288 46.9661C31.0847 46.1501 32.3575 45.6026 33.7445 45.4245C33.8994 45.4047 34.0367 45.5258 34.0367 45.6819V50.8976ZM40.8297 48.3629C41.6456 49.4188 42.1932 50.6915 42.3712 52.0786C42.391 52.2334 42.2699 52.3708 42.1138 52.3708H36.8984C36.717 52.3708 36.6261 52.1515 36.7543 52.0232L40.4403 48.3373C40.551 48.2264 40.734 48.2389 40.8297 48.3629ZM35.4251 45.682C35.4251 45.5259 35.5625 45.4048 35.7174 45.4246C37.1044 45.6026 38.377 46.1502 39.433 46.9661C39.557 47.0619 39.5694 47.2447 39.4586 47.3556L35.7727 51.0415C35.6444 51.1698 35.4251 51.0789 35.4251 50.8975V45.682ZM39.4329 59.1637C38.377 59.9796 37.1044 60.5272 35.7174 60.7052C35.5625 60.725 35.4251 60.6039 35.4251 60.4478V55.2323C35.4251 55.0509 35.6444 54.9601 35.7727 55.0884L39.4586 58.7742C39.5694 58.885 39.557 59.0679 39.4329 59.1637ZM42.3712 54.0513C42.1932 55.4383 41.6456 56.711 40.8297 57.7669C40.734 57.8909 40.5511 57.9033 40.4403 57.7925L36.7543 54.1066C36.626 53.9783 36.7169 53.759 36.8984 53.759H42.1138C42.2699 53.7591 42.391 53.8965 42.3712 54.0513Z" fill="white" fill-opacity="0.4"/>
<path d="M25.6377 53.0651C25.6377 58.0542 29.6817 62.1266 34.6737 62.1575C33.9653 61.6834 33.3159 61.1288 32.7376 60.5067C31.741 60.2397 30.8236 59.7778 30.0289 59.1638C29.9049 59.068 29.8925 58.8852 30.0033 58.7743L30.9171 57.8605C30.6974 57.411 30.5095 56.9434 30.3522 56.462L29.0217 57.7926C28.9109 57.9033 28.728 57.8909 28.6322 57.767C27.8163 56.711 27.2687 55.4383 27.0907 54.0513C27.0709 53.8964 27.192 53.759 27.3481 53.759H29.8361C29.8217 53.5293 29.812 53.2982 29.812 53.0648C29.812 52.8314 29.8217 52.6004 29.8361 52.3707H27.3481C27.192 52.3707 27.0709 52.2333 27.0907 52.0784C27.2687 50.6914 27.8163 49.4187 28.6322 48.3627C28.728 48.2388 28.9108 48.2264 29.0217 48.3371L30.3522 49.6677C30.5095 49.1863 30.6974 48.7187 30.9171 48.2692L30.0033 47.3554C29.8925 47.2446 29.9049 47.0618 30.0289 46.9659C30.8236 46.3519 31.7411 45.89 32.7377 45.623C33.316 45.001 33.9654 44.4463 34.6738 43.9722C29.6882 44.0034 25.6377 48.0699 25.6377 53.0651Z" fill="#69CB3A"/>
<path d="M25.6377 53.0651C25.6377 58.0542 29.6817 62.1266 34.6737 62.1575C33.9653 61.6834 33.3159 61.1288 32.7376 60.5067C31.741 60.2397 30.8236 59.7778 30.0289 59.1638C29.9049 59.068 29.8925 58.8852 30.0033 58.7743L30.9171 57.8605C30.6974 57.411 30.5095 56.9434 30.3522 56.462L29.0217 57.7926C28.9109 57.9033 28.728 57.8909 28.6322 57.767C27.8163 56.711 27.2687 55.4383 27.0907 54.0513C27.0709 53.8964 27.192 53.759 27.3481 53.759H29.8361C29.8217 53.5293 29.812 53.2982 29.812 53.0648C29.812 52.8314 29.8217 52.6004 29.8361 52.3707H27.3481C27.192 52.3707 27.0709 52.2333 27.0907 52.0784C27.2687 50.6914 27.8163 49.4187 28.6322 48.3627C28.728 48.2388 28.9108 48.2264 29.0217 48.3371L30.3522 49.6677C30.5095 49.1863 30.6974 48.7187 30.9171 48.2692L30.0033 47.3554C29.8925 47.2446 29.9049 47.0618 30.0289 46.9659C30.8236 46.3519 31.7411 45.89 32.7377 45.623C33.316 45.001 33.9654 44.4463 34.6738 43.9722C29.6882 44.0034 25.6377 48.0699 25.6377 53.0651Z" fill="white" fill-opacity="0.2"/>
</g>
<defs>
<linearGradient id="paint0_linear_1_15432" x1="35.4578" y1="67.7485" x2="35.4578" y2="138.75" gradientUnits="userSpaceOnUse">
<stop stop-color="#53B175" stop-opacity="0.2"/>
<stop offset="1" stop-color="#53B175" stop-opacity="0"/>
</linearGradient>
<clipPath id="clip0_1_15432">
<rect width="46" height="46" fill="white" transform="translate(18 18)"/>
</clipPath>
</defs>
</svg>
