<svg width="48" height="48" viewBox="0 0 48 48" fill="none" xmlns="http://www.w3.org/2000/svg">
<path d="M14.6668 9.3335H10.6668C10.3132 9.3335 9.97407 9.47397 9.72402 9.72402C9.47397 9.97407 9.3335 10.3132 9.3335 10.6668V37.3335C9.3335 37.6871 9.47397 38.0263 9.72402 38.2763C9.97407 38.5264 10.3132 38.6668 10.6668 38.6668H14.6668V9.3335Z" fill="#B0B7C3"/>
<path d="M17.3335 38.6668H30.6668V9.3335H17.3335V38.6668ZM24.0002 33.3335C23.6465 33.3335 23.3074 33.193 23.0574 32.943C22.8073 32.6929 22.6668 32.3538 22.6668 32.0002C22.6668 31.6465 22.8073 31.3074 23.0574 31.0574C23.3074 30.8073 23.6465 30.6668 24.0002 30.6668C24.3538 30.6668 24.6929 30.8073 24.943 31.0574C25.193 31.3074 25.3335 31.6465 25.3335 32.0002C25.3335 32.3538 25.193 32.6929 24.943 32.943C24.6929 33.193 24.3538 33.3335 24.0002 33.3335ZM24.0002 14.6668C24.3538 14.6668 24.6929 14.8073 24.943 15.0574C25.193 15.3074 25.3335 15.6465 25.3335 16.0002C25.3335 16.3538 25.193 16.6929 24.943 16.943C24.6929 17.193 24.3538 17.3335 24.0002 17.3335C23.6465 17.3335 23.3074 17.193 23.0574 16.943C22.8073 16.6929 22.6668 16.3538 22.6668 16.0002C22.6668 15.6465 22.8073 15.3074 23.0574 15.0574C23.3074 14.8073 23.6465 14.6668 24.0002 14.6668ZM24.0002 22.6668C24.3538 22.6668 24.6929 22.8073 24.943 23.0574C25.193 23.3074 25.3335 23.6465 25.3335 24.0002C25.3335 24.3538 25.193 24.6929 24.943 24.943C24.6929 25.193 24.3538 25.3335 24.0002 25.3335C23.6465 25.3335 23.3074 25.193 23.0574 24.943C22.8073 24.6929 22.6668 24.3538 22.6668 24.0002C22.6668 23.6465 22.8073 23.3074 23.0574 23.0574C23.3074 22.8073 23.6465 22.6668 24.0002 22.6668Z" fill="#69CB3A"/>
<path d="M37.3335 9.3335H33.3335V38.6668H37.3335C37.6871 38.6668 38.0263 38.5264 38.2763 38.2763C38.5264 38.0263 38.6668 37.6871 38.6668 37.3335V10.6668C38.6668 10.3132 38.5264 9.97407 38.2763 9.72402C38.0263 9.47397 37.6871 9.3335 37.3335 9.3335Z" fill="#69CB3A" fill-opacity="0.4"/>
</svg>
