<svg width="48" height="48" viewBox="0 0 48 48" fill="none" xmlns="http://www.w3.org/2000/svg">
<path d="M20.0002 21.3335H10.6668C10.3132 21.3335 9.97407 21.193 9.72402 20.943C9.47397 20.6929 9.3335 20.3538 9.3335 20.0002V10.6668C9.3335 10.3132 9.47397 9.97407 9.72402 9.72402C9.97407 9.47397 10.3132 9.3335 10.6668 9.3335H20.0002C20.3538 9.3335 20.6929 9.47397 20.943 9.72402C21.193 9.97407 21.3335 10.3132 21.3335 10.6668V20.0002C21.3335 20.3538 21.193 20.6929 20.943 20.943C20.6929 21.193 20.3538 21.3335 20.0002 21.3335Z" fill="#69CB3A"/>
<path d="M20.0002 38.667H10.6668C10.3132 38.667 9.97407 38.5265 9.72402 38.2765C9.47397 38.0264 9.3335 37.6873 9.3335 37.3337V28.0003C9.3335 27.6467 9.47397 27.3076 9.72402 27.0575C9.97407 26.8075 10.3132 26.667 10.6668 26.667H20.0002C20.3538 26.667 20.6929 26.8075 20.943 27.0575C21.193 27.3076 21.3335 27.6467 21.3335 28.0003V37.3337C21.3335 37.6873 21.193 38.0264 20.943 38.2765C20.6929 38.5265 20.3538 38.667 20.0002 38.667Z" fill="#69CB3A"/>
<path d="M25.3335 10.667H38.6668V13.3337H25.3335V10.667Z" fill="#69CB3A" fill-opacity="0.4"/>
<path d="M38.6668 28H25.3335V30.6667H38.6668V28Z" fill="#69CB3A" fill-opacity="0.4"/>
<path d="M38.6668 34.667H25.3335V37.3337H38.6668V34.667Z" fill="#B0B7C3"/>
<path d="M38.6668 17.3335H25.3335V20.0002H38.6668V17.3335Z" fill="#B0B7C3"/>
</svg>
