<svg width="21" height="20" viewBox="0 0 21 20" fill="none" xmlns="http://www.w3.org/2000/svg">
<path d="M6.54805 5.5501C7.00203 5.09536 7.31103 4.51626 7.43599 3.88597C7.56096 3.25568 7.49628 2.60249 7.25014 2.00894C7.004 1.4154 6.58743 0.908133 6.05309 0.551256C5.51875 0.19438 4.89061 0.00390625 4.24805 0.00390625C3.60549 0.00390625 2.97735 0.19438 2.443 0.551256C1.90866 0.908133 1.4921 1.4154 1.24596 2.00894C0.999812 2.60249 0.935137 3.25568 1.0601 3.88597C1.18507 4.51626 1.49407 5.09536 1.94805 5.5501C2.24991 5.85246 2.60842 6.09233 3.00308 6.256C3.39774 6.41966 3.8208 6.50391 4.24805 6.50391C4.6753 6.50391 5.09835 6.41966 5.49301 6.256C5.88767 6.09233 6.24619 5.85246 6.54805 5.5501ZM19.548 13.9501C19.0933 13.4961 18.5142 13.1871 17.8839 13.0622C17.2536 12.9372 16.6004 13.0019 16.0069 13.248C15.4133 13.4942 14.9061 13.9107 14.5492 14.4451C14.1923 14.9794 14.0019 15.6075 14.0019 16.2501C14.0019 16.8927 14.1923 17.5208 14.5492 18.0551C14.9061 18.5895 15.4133 19.006 16.0069 19.2522C16.6004 19.4983 17.2536 19.563 17.8839 19.438C18.5142 19.3131 19.0933 19.0041 19.548 18.5501C19.8504 18.2482 20.0903 17.8897 20.2539 17.4951C20.4176 17.1004 20.5019 16.6773 20.5019 16.2501C20.5019 15.8229 20.4176 15.3998 20.2539 15.0051C20.0903 14.6105 19.8504 14.252 19.548 13.9501ZM19.448 2.1981L18.3 1.0501C18.1492 0.898799 17.9699 0.778756 17.7726 0.696848C17.5753 0.614941 17.3637 0.572779 17.15 0.572779C16.9364 0.572779 16.7248 0.614941 16.5275 0.696848C16.3301 0.778756 16.1509 0.898799 16 1.0501L2.05105 15.0031C1.89975 15.154 1.77971 15.3332 1.6978 15.5305C1.61589 15.7279 1.57373 15.9394 1.57373 16.1531C1.57373 16.3668 1.61589 16.5783 1.6978 16.7757C1.77971 16.973 1.89975 17.1522 2.05105 17.3031L3.20005 18.4501C3.35091 18.6014 3.53015 18.7214 3.72749 18.8034C3.92482 18.8853 4.13639 18.9274 4.35005 18.9274C4.56371 18.9274 4.77527 18.8853 4.97261 18.8034C5.16995 18.7214 5.34918 18.6014 5.50005 18.4501L19.449 4.4971C19.6003 4.34624 19.7204 4.167 19.8023 3.96966C19.8842 3.77232 19.9264 3.56076 19.9264 3.3471C19.9264 3.13344 19.8842 2.92188 19.8023 2.72454C19.7204 2.5272 19.6003 2.34796 19.449 2.1971L19.448 2.1981Z" fill="#53B175"/>
</svg>
