<svg width="36" height="33" viewBox="0 0 36 33" fill="none" xmlns="http://www.w3.org/2000/svg">
<g id="surgery">
<path id="Path" d="M14.6514 22.2695H20.4579V28.2635H14.6514L14.6514 22.2695Z" fill="#4E5660"/>
<path id="Path_2" d="M14.6514 25.0726L14.9427 25.1674C15.7875 25.442 16.6663 25.5814 17.5546 25.5814C18.4429 25.5814 19.3218 25.4421 20.1666 25.1674L20.4579 25.0727V22.2695H14.6514L14.6514 25.0726Z" fill="#3A4351"/>
<path id="Path_3" d="M22.6641 31.5437H12.4463C11.6623 31.5437 11.1896 30.6755 11.6152 30.017L12.0771 29.3023C12.4956 28.6548 13.214 28.2637 13.9851 28.2637H21.1254C21.8965 28.2637 22.6149 28.6548 23.0334 29.3023L23.4953 30.017C23.9208 30.6755 23.4481 31.5437 22.6641 31.5437Z" fill="#A0E7E7"/>
<path id="Path_4" d="M32.9308 22.5481L30.8919 23.211C29.6078 23.6285 28.2244 23.6285 26.9403 23.211L25.2116 22.649C23.9275 22.2315 22.5441 22.2315 21.26 22.649L19.5314 23.211C18.2472 23.6285 16.8639 23.6285 15.5797 23.211L13.8511 22.649C12.567 22.2315 11.1836 22.2315 9.89947 22.649L8.17084 23.211C6.8867 23.6285 5.50334 23.6285 4.2192 23.211L2.18033 22.5481C1.18703 22.2253 0.514648 21.2996 0.514648 20.2552V14.1923C0.514648 12.7679 1.66931 11.6133 3.09368 11.6133H32.0173C33.4417 11.6133 34.5963 12.7679 34.5963 14.1923V20.2552C34.5964 21.2996 33.924 22.2253 32.9308 22.5481Z" fill="#A0E7E7"/>
<path id="Path_5" d="M27.0675 11.6133H13.5725L6.34007 18.8457C5.09777 20.0881 4.71251 21.8676 5.18362 23.4435C6.17878 23.6029 7.2024 23.5255 8.16979 23.211L9.89842 22.649C11.1826 22.2315 12.5659 22.2315 13.8501 22.649L15.5787 23.211C15.8053 23.2847 16.0351 23.3447 16.2668 23.3923L25.9236 13.7355C26.5132 13.1461 26.9053 12.4119 27.0675 11.6133V11.6133Z" fill="#8ED2E2"/>
<path id="Path_6" d="M22.2041 8.5319C22.6884 7.31717 25.8816 3.39358 30.2368 0.676574C30.6495 0.419144 31.1911 0.662448 31.2788 1.14083C31.7237 3.57112 30.5695 5.64065 28.9155 7.29461C27.0526 9.15758 24.4436 10.7713 24.4436 10.7713L22.2041 8.5319Z" fill="#A3DEFE"/>
<path id="Path_7" d="M12.1229 24.6277L24.4701 12.2806C24.8708 11.8799 25.096 11.3363 25.096 10.7696V4.55667C25.096 3.98228 24.4015 3.69461 23.9953 4.10078L7.79566 20.3004C6.79467 21.3014 6.79467 22.9243 7.79566 23.9253L8.49808 24.6277C9.499 25.6287 11.122 25.6287 12.1229 24.6277Z" fill="#F6EE86"/>
<path id="Path_8" d="M14.1408 22.6102C12.9491 20.8712 12.5134 17.2724 12.7796 15.3169L7.79566 20.3008C6.79467 21.3018 6.79467 22.9247 7.79566 23.9257L8.49808 24.6281C9.49907 25.6291 11.122 25.6291 12.1229 24.6281L14.1408 22.6102Z" fill="#F2D98D"/>
<path id="Path_9" d="M25.0958 4.55667V10.7696C25.0958 11.3363 24.8706 11.8799 24.4699 12.2806L20.0149 16.7356C18.8386 16.7341 17.7324 16.3334 16.9111 15.5121C16.0898 14.6907 15.6891 13.5846 15.6875 12.4084L23.9951 4.10078C24.4013 3.69461 25.0958 3.98228 25.0958 4.55667Z" fill="#C0ADE2"/>
<g id="Group">
<path id="Path_10" d="M19.2931 14.2839C19.1615 14.2839 19.0298 14.2337 18.9293 14.1332L18.2903 13.4942C18.0894 13.2933 18.0894 12.9676 18.2903 12.7669C18.4912 12.566 18.8168 12.566 19.0177 12.7669L19.6567 13.4059C19.8576 13.6068 19.8576 13.9324 19.6567 14.1332C19.5563 14.2336 19.4247 14.2839 19.2931 14.2839Z" fill="white"/>
<path id="Path_11" d="M20.9503 12.6262C20.8187 12.6262 20.687 12.576 20.5866 12.4756L19.9475 11.8365C19.7467 11.6357 19.7467 11.31 19.9475 11.1091C20.1484 10.9083 20.474 10.9083 20.6749 11.1091L21.3139 11.7482C21.5148 11.949 21.5148 12.2747 21.3139 12.4755C21.2135 12.576 21.0819 12.6262 20.9503 12.6262Z" fill="white"/>
</g>
<path id="Shape" fill-rule="evenodd" clip-rule="evenodd" d="M25.5891 11.0991H32.017C33.7227 11.0991 35.1104 12.4867 35.1104 14.1924V20.2553C35.1104 21.5264 34.2982 22.6444 33.0894 23.0373C32.5791 23.1999 32.2672 23.3034 32.0687 23.3692C31.7456 23.4764 31.7229 23.484 31.6344 23.484C31.4177 23.484 31.2161 23.3459 31.1454 23.1285C31.0576 22.8584 31.2054 22.5683 31.4755 22.4804L32.7714 22.0591C33.5551 21.8044 34.0817 21.0795 34.0817 20.2553V14.1924C34.0817 13.0539 33.1555 12.1277 32.017 12.1277H25.237L25.2283 12.1422L25.2282 12.1423L25.2279 12.1428C25.2095 12.1736 25.1929 12.2014 25.1756 12.2286C25.025 12.4663 24.8205 12.6698 22.8448 14.6361C21.4 16.0741 19.0079 18.4548 14.9969 22.481C15.0619 22.4938 15.1627 22.5293 15.2961 22.5763C15.968 22.8132 17.4667 23.3415 19.3719 22.722L21.1006 22.1601C22.4973 21.706 23.9737 21.706 25.3703 22.1601L27.099 22.722C27.7853 22.9451 28.4987 23.0395 29.2195 23.0021C29.5036 22.9882 29.7451 23.2055 29.7597 23.4892C29.7744 23.7728 29.5564 24.0147 29.2727 24.0294C28.4253 24.0731 27.5874 23.9624 26.7809 23.7002L25.0523 23.1382C23.1674 22.5254 21.6733 23.0449 21.1483 23.2274L21.1482 23.2274C21.064 23.2567 21.0047 23.2773 20.9728 23.2832V27.7493H21.1254C22.0752 27.7493 22.9498 28.2256 23.4653 29.0232L23.9272 29.7378C24.5731 30.7371 23.8541 32.0581 22.6641 32.0581H12.4463C11.2564 32.0581 10.5372 30.7374 11.1832 29.7379L11.6451 29.0232C12.1605 28.2255 13.0353 27.7493 13.985 27.7493H14.1376V23.3403L12.4864 24.9915C11.2864 26.1915 9.33408 26.1914 8.13416 24.9915C7.91681 24.7707 7.75895 24.6146 7.63713 24.4941L7.63711 24.4941C7.39531 24.2549 7.29549 24.1562 7.15422 23.9704C6.08466 24.1203 5.02504 24.0141 4.05971 23.7003L2.0209 23.0373C0.812133 22.6443 0 21.5264 0 20.2553V14.1924C0 12.4867 1.38768 11.0991 3.09335 11.0991H3.63248C3.91659 11.0991 4.1468 11.3293 4.1468 11.6134C4.1468 11.8974 3.91659 12.1277 3.63248 12.1277H3.09335C1.95487 12.1277 1.02862 13.0539 1.02862 14.1924V20.2553C1.02862 21.0794 1.55521 21.8043 2.33895 22.0591L4.37782 22.722C5.11158 22.9606 5.8886 23.0506 6.65691 22.99C6.34846 21.9468 6.6002 20.7684 7.43181 19.9369L15.2409 12.1277H6.0972C5.8131 12.1277 5.58289 11.8974 5.58289 11.6134C5.58289 11.3293 5.8131 11.0991 6.0972 11.0991H16.2695L23.6314 3.7372C24.1346 3.234 24.9465 3.30662 25.3655 3.8437C26.4884 2.76961 28.0632 1.42684 29.965 0.240427C30.6845 -0.208259 31.632 0.212859 31.785 1.04845C32.2066 3.35051 31.3636 5.57446 29.2796 7.65852C28.0621 8.876 26.5373 9.98623 25.61 10.6199C25.6095 10.6446 25.6097 10.671 25.6099 10.7C25.6105 10.7953 25.6113 10.9183 25.5891 11.0991ZM30.5092 1.11308C28.3985 2.42986 26.702 3.95037 25.6098 5.04304V9.36484C28.4791 7.31363 31.4095 4.7097 30.773 1.23357C30.7505 1.11089 30.6132 1.04828 30.5092 1.11308ZM15.1661 23.6175C15.1895 23.6235 15.2292 23.6368 15.2841 23.6552C15.6028 23.7621 16.4331 24.0407 17.555 24.0407C18.6746 24.0407 19.5782 23.7386 19.8614 23.644C19.9022 23.6303 19.9301 23.621 19.944 23.6175V27.7492H15.1661V23.6175ZM22.6014 29.5815C22.2763 29.0783 21.7245 28.778 21.1255 28.778H13.985C13.386 28.778 12.8342 29.0784 12.509 29.5815L12.0472 30.2962C11.8424 30.613 12.0696 31.0295 12.4463 31.0295H22.6642C23.0414 31.0295 23.2677 30.6125 23.0633 30.2962L22.6014 29.5815ZM11.7589 24.2642C10.9583 25.0649 9.6622 25.065 8.86152 24.2642L8.15904 23.5617C7.35835 22.761 7.35822 21.465 8.1591 20.6642L15.2922 13.5311C15.6851 15.3581 17.0166 16.7273 18.8927 17.1304L11.7589 24.2642ZM24.1061 11.9171C24.4126 11.6105 24.5813 11.203 24.5813 10.7697V4.55676C24.5813 4.46714 24.5078 4.42462 24.4468 4.42462C24.4417 4.42462 24.4386 4.42305 24.4358 4.42163L24.4331 4.42033C24.4072 4.40977 24.3561 4.461 22.8694 5.95192L22.8692 5.95208L22.8689 5.95241C21.7207 7.10388 19.7164 9.11381 16.2067 12.6166C16.2998 14.6648 17.7592 16.1234 19.8066 16.2165L24.1061 11.9171ZM6.91702 18.731V16.3738C6.91702 16.0897 6.68681 15.8594 6.40271 15.8594C6.1186 15.8594 5.88839 16.0897 5.88839 16.3738V18.731C5.88839 19.0151 6.1186 19.2453 6.40271 19.2453C6.68681 19.2453 6.91702 19.0151 6.91702 18.731ZM26.4241 18.731V16.3738C26.4241 16.0897 26.6543 15.8594 26.9384 15.8594C27.2225 15.8594 27.4527 16.0897 27.4527 16.3738V18.731C27.4527 19.0151 27.2225 19.2453 26.9384 19.2453C26.6543 19.2453 26.4241 19.0151 26.4241 18.731Z" fill="black"/>
</g>
</svg>
