<svg width="36" height="33" viewBox="0 0 36 33" fill="none" xmlns="http://www.w3.org/2000/svg">
<g id="dentist">
<path id="Path" d="M0.483363 8.95369C0.415201 4.4058 4.05655 0.578507 8.62831 0.550935C10.7583 0.538076 12.7007 1.33378 14.1649 2.64735C15.0482 3.43986 16.4044 3.43986 17.2878 2.64735C18.752 1.33378 20.6945 0.53814 22.8244 0.550935C27.3962 0.578507 31.0375 4.4058 30.9694 8.95369C30.8717 15.4821 26.9161 17.2144 26.9161 22.7424C26.9161 28.233 24.366 31.5913 21.8707 31.5913C19.2322 31.5913 17.7091 28.5243 16.6522 25.8887C16.3193 25.0584 15.1336 25.0584 14.8005 25.8887C13.7436 28.5243 12.2205 31.5913 9.58207 31.5913C7.08675 31.5913 4.53671 28.233 4.53671 22.7424C4.53664 17.2144 0.581106 15.4821 0.483363 8.95369Z" fill="#FCF2D0"/>
<path id="Path_2" d="M6.27729 0.914551C2.87129 1.97357 0.427418 5.22062 0.483363 8.95381C0.581105 15.4823 4.53671 17.2145 4.53671 22.7425C4.53671 28.2331 7.08675 31.5914 9.58207 31.5914C12.021 31.5914 13.5067 28.9709 14.5524 26.4929C8.03658 24.1754 3.72918 8.23756 6.27729 0.914551Z" fill="#FAE0BD"/>
<g id="Group">
<path id="Path_3" d="M12.3669 11.2294C12.3673 12.0891 11.488 12.7864 10.403 12.7869C9.31789 12.7874 8.43789 12.091 8.4375 11.2314C8.43705 10.3717 9.31634 9.6744 10.4014 9.67383C11.4865 9.67332 12.3665 10.3697 12.3669 11.2294Z" fill="#EDA1AB"/>
<path id="Path_4" d="M19.0869 11.226C19.0874 12.0857 19.9673 12.7821 21.0524 12.7815C22.1374 12.781 23.0167 12.0837 23.0163 11.224C23.0158 10.3644 22.1359 9.66795 21.0508 9.66846C19.9658 9.66903 19.0865 10.3663 19.0869 11.226Z" fill="#EDA1AB"/>
<path id="Path_5" d="M17.6525 10.5229C17.652 9.33881 16.7896 9.22801 15.726 9.22852C14.6624 9.22903 13.8002 9.34073 13.8008 10.5248C13.8014 11.7089 14.6641 12.6683 15.7277 12.6678C16.7914 12.6673 17.6531 11.707 17.6525 10.5229Z" fill="#4E5660"/>
</g>
<path id="Oval" d="M30.3912 25.4097C33.1168 22.6982 33.1168 18.3018 30.3912 15.5903C27.6656 12.8787 23.2466 12.8787 20.521 15.5903C17.7955 18.3018 17.7955 22.6982 20.521 25.4097C23.2466 28.1213 27.6656 28.1213 30.3912 25.4097Z" fill="#EDA1AB"/>
<path id="Path_6" d="M26.8394 18.7644V16.749C26.8394 16.5481 26.6757 16.3853 26.4738 16.3853H24.4479C24.246 16.3853 24.0823 16.5481 24.0823 16.749V18.7644C24.0823 18.9653 23.9186 19.1282 23.7167 19.1282H21.6908C21.4888 19.1282 21.3252 19.2911 21.3252 19.4919V21.5074C21.3252 21.7083 21.4889 21.8711 21.6908 21.8711H23.7167C23.9186 21.8711 24.0823 22.034 24.0823 22.2349V24.2503C24.0823 24.4512 24.246 24.6141 24.4479 24.6141H26.4738C26.6757 24.6141 26.8394 24.4512 26.8394 24.2503V22.2349C26.8394 22.034 27.0031 21.8711 27.205 21.8711H29.2309C29.4328 21.8711 29.5965 21.7082 29.5965 21.5074V19.4919C29.5965 19.291 29.4328 19.1282 29.2309 19.1282H27.205C27.0031 19.1282 26.8394 18.9653 26.8394 18.7644Z" fill="white"/>
<path id="Shape" fill-rule="evenodd" clip-rule="evenodd" d="M5.58626 26.8396C5.20976 25.6104 5.01884 24.232 5.01884 22.7427C5.01884 19.9572 4.07179 18.1257 3.09303 16.233C2.07099 14.2565 1.01438 12.2132 0.965434 8.94684C0.900745 4.62861 4.35644 1.05683 8.63112 1.03105C10.5619 1.01896 12.4107 1.72005 13.8418 3.00393C14.9162 3.96776 16.5364 3.9677 17.6106 3.00393C19.0418 1.71998 20.89 1.01864 22.8213 1.03105C24.4549 1.0409 26.0137 1.56414 27.3293 2.54435C27.5424 2.70319 27.8447 2.66001 28.0044 2.44794C28.1641 2.2358 28.1207 1.93513 27.9075 1.77628C26.4255 0.672093 24.6687 0.0825754 22.8272 0.071444C20.6577 0.0585853 18.575 0.846677 16.9647 2.29133C16.2703 2.91431 15.1823 2.91437 14.4877 2.29133C12.8907 0.858576 10.8295 0.071316 8.67858 0.071316L8.62527 0.071444C3.80999 0.100488 -0.0715972 4.11273 0.00100205 8.9611C0.0532147 12.4478 1.16161 14.5925 2.20604 16.6135C3.15666 18.4529 4.05428 20.1898 4.05428 22.7426C4.05428 24.3268 4.25928 25.7994 4.66363 27.1193C4.74124 27.3728 5.01055 27.5157 5.26558 27.4384C5.52028 27.3612 5.66388 27.093 5.58626 26.8396ZM19.9533 8.19741C19.6874 8.19741 19.4715 8.41166 19.471 8.67632L19.4696 9.444C19.4691 9.70898 19.6846 9.92419 19.951 9.9247H19.9519C20.2178 9.9247 20.4337 9.71045 20.4342 9.44579L20.4356 8.67811C20.4362 8.41313 20.2206 8.19792 19.9543 8.19741H19.9533ZM31.4514 8.96098C31.4132 11.5135 30.8033 13.3157 30.1663 14.7415C31.8476 16.104 32.9236 18.179 32.9236 20.4995C32.9236 24.2289 30.145 27.3244 26.5392 27.846C25.5417 30.4603 23.7712 32.0713 21.8704 32.0713C18.9133 32.0713 17.2902 28.7754 16.204 26.0668C16.0324 25.6391 15.4198 25.6391 15.2482 26.0668C14.1616 28.7765 12.5365 32.0713 9.58178 32.0713C8.0941 32.0713 6.6472 31.0654 5.6121 29.3116C5.47719 29.0831 5.55409 28.7891 5.78379 28.6549C6.01335 28.5206 6.30902 28.5971 6.44387 28.8256C7.3013 30.2784 8.44501 31.1116 9.58178 31.1116C11.8771 31.1116 13.2814 28.3816 14.3523 25.7111C14.8462 24.4795 16.606 24.4795 17.0999 25.7111C18.1709 28.3816 19.5751 31.1116 21.8705 31.1116C23.2412 31.1116 24.6062 29.8817 25.4657 27.9236C21.3299 27.9236 17.9983 24.5789 17.9983 20.4994C17.9983 16.4057 21.3461 13.0751 25.461 13.0751C26.8904 13.0751 28.2271 13.4774 29.3633 14.1736C29.9303 12.8663 30.4529 11.2241 30.487 8.94671C30.5131 7.19882 29.9417 5.46885 28.8777 4.07556C28.7166 3.86458 28.7579 3.56358 28.97 3.40327C29.1822 3.24295 29.4847 3.28415 29.6457 3.49507C30.8396 5.05839 31.4809 6.99955 31.4514 8.96098ZM25.4612 26.9642C21.8781 26.9642 18.9631 24.0642 18.9631 20.4995C18.9631 16.9349 21.8781 14.0349 25.4612 14.0349C29.0442 14.0349 31.9592 16.9349 31.9592 20.4995C31.9592 24.0642 29.0442 26.9642 25.4612 26.9642ZM27.3217 18.6482H29.2309C29.6985 18.6482 30.0789 19.0266 30.0789 19.4917V21.5072C30.0789 21.9723 29.6985 22.3507 29.2309 22.3507H27.3217V24.2501C27.3217 24.7152 26.9413 25.0937 26.4738 25.0937H24.4479C23.9804 25.0937 23.6 24.7152 23.6 24.2501V22.3507H21.6908C21.2232 22.3507 20.8429 21.9723 20.8429 21.5072V19.4917C20.8429 19.0266 21.2232 18.6482 21.6908 18.6482H23.6V16.7488C23.6 16.2836 23.9804 15.9052 24.4479 15.9052H26.4738C26.9413 15.9052 27.3217 16.2836 27.3217 16.7488V18.6482ZM29.1145 21.3912H27.2053C26.7378 21.3912 26.3573 21.7696 26.3573 22.2347V24.1342H24.5647V22.2347C24.5647 21.7696 24.1844 21.3912 23.7168 21.3912H21.8076V19.6079H23.7168C24.1844 19.6079 24.5647 19.2294 24.5647 18.7643V16.8649H26.3573V18.7643C26.3573 19.2294 26.7378 19.6079 27.2053 19.6079H29.1145V21.3912ZM10.4863 9.36962C10.488 8.61006 11.1097 7.99316 11.8729 7.99316V7.99323H11.8758C12.6404 7.99495 13.261 8.61512 13.2594 9.3757C13.2588 9.64029 13.043 9.85441 12.7771 9.85441H12.7761C12.5097 9.85377 12.2943 9.6385 12.2949 9.37352C12.2954 9.142 12.1065 8.95328 11.8737 8.95277H11.8728C11.6406 8.95277 11.4514 9.14047 11.4509 9.37167C11.4504 9.63633 11.2345 9.85045 10.9687 9.85045H10.9676C10.7012 9.84987 10.4857 9.6346 10.4863 9.36962ZM15.7259 8.74899C14.9443 8.74937 13.3178 8.75021 13.3187 10.5254C13.3194 11.943 14.3671 13.1479 15.727 13.1479H15.7282C17.056 13.1473 18.1357 11.9697 18.1349 10.523C18.1346 9.79189 17.8557 9.28074 17.3059 9.00373C16.8855 8.79185 16.369 8.7511 15.7259 8.74899ZM15.7272 12.1882H15.7279C16.5239 12.1878 17.1711 11.4409 17.1707 10.5233C17.1704 10.0729 17.0262 9.93814 16.8704 9.85964C16.6076 9.72722 16.1696 9.70847 15.7344 9.70847H15.7267C14.4822 9.70911 14.2832 9.90283 14.2835 10.5248C14.2839 11.4016 14.8979 12.1882 15.7272 12.1882Z" fill="black"/>
</g>
</svg>
