<svg width="23" height="32" viewBox="0 0 23 32" fill="none" xmlns="http://www.w3.org/2000/svg">
<g id="dna icon">
<path id="Path" d="M20.1168 31.5312C21.3018 31.5312 22.2625 30.5701 22.2625 29.3843C22.2625 26.1318 21.2216 23.2024 19.08 20.4289C15.6118 15.9373 10.125 12.9321 7.04713 8.94581C5.48685 6.925 4.76014 4.9135 4.76014 2.61563C4.76008 1.42994 3.79945 0.46875 2.61445 0.46875C1.42944 0.46875 0.46875 1.42994 0.46875 2.61569C0.46875 5.86825 1.50971 8.79756 3.65122 11.571C7.11946 16.0627 12.6062 19.0679 15.6842 23.0541C17.2445 25.0749 17.9712 27.0864 17.9712 29.3844C17.9712 30.5701 18.9318 31.5312 20.1168 31.5312Z" fill="#7ACEFA"/>
<path id="Path_2" d="M18.5989 4.32839H11.3658C10.6476 4.32839 10.0654 3.74582 10.0654 3.0272C10.0654 2.30857 10.6476 1.72607 11.3658 1.72607H18.5989C19.3171 1.72607 19.8994 2.30864 19.8994 3.0272C19.8994 3.74576 19.3171 4.32839 18.5989 4.32839Z" fill="#EDA1AB"/>
<path id="Path_3" d="M11.3655 4.32839H4.1324C3.41419 4.32839 2.83203 3.74582 2.83203 3.0272C2.83203 2.30857 3.41419 1.72607 4.1324 1.72607H11.3655C12.0837 1.72607 12.666 2.30864 12.666 3.0272C12.666 3.74576 12.0837 4.32839 11.3655 4.32839Z" fill="#F6EE86"/>
<path id="Path_4" d="M11.3655 9.62093H5.7369C5.01869 9.62093 4.43652 9.03837 4.43652 8.31974C4.43652 7.60112 5.01869 7.01855 5.7369 7.01855H11.3655C12.0837 7.01855 12.6659 7.60112 12.6659 8.31974C12.6659 9.03837 12.0837 9.62093 11.3655 9.62093Z" fill="#EDA1AB"/>
<path id="Path_5" d="M16.9944 9.62093H11.3658C10.6476 9.62093 10.0654 9.03837 10.0654 8.31974C10.0654 7.60112 10.6476 7.01855 11.3658 7.01855H16.9944C17.7126 7.01855 18.2949 7.60112 18.2949 8.31974C18.2949 9.03837 17.7126 9.62093 16.9944 9.62093Z" fill="#F6EE86"/>
<path id="Path_6" d="M11.3655 30.2742H4.1324C3.41419 30.2742 2.83203 29.6917 2.83203 28.9731C2.83203 28.2544 3.41419 27.6719 4.1324 27.6719H11.3655C12.0837 27.6719 12.666 28.2544 12.666 28.9731C12.666 29.6917 12.0837 30.2742 11.3655 30.2742Z" fill="#EDA1AB"/>
<path id="Path_7" d="M4.13247 27.6719C3.41426 27.6719 2.83203 28.2544 2.83203 28.9731C2.83203 29.6917 3.41426 30.2743 4.13247 30.2743H6.53358C6.72909 29.412 6.52939 28.9638 6.81329 27.6719H4.13247V27.6719Z" fill="#E8899E"/>
<path id="Path_8" d="M18.5989 30.2742H11.3658C10.6476 30.2742 10.0654 29.6917 10.0654 28.9731C10.0654 28.2544 10.6476 27.6719 11.3658 27.6719H18.5989C19.3171 27.6719 19.8994 28.2544 19.8994 28.9731C19.8994 29.6917 19.3171 30.2742 18.5989 30.2742Z" fill="#F6EE86"/>
<path id="Path_9" d="M16.9944 24.9817H11.3658C10.6476 24.9817 10.0654 24.3991 10.0654 23.6805C10.0654 22.9619 10.6476 22.3794 11.3658 22.3794H16.9944C17.7126 22.3794 18.2949 22.9619 18.2949 23.6805C18.2949 24.3991 17.7126 24.9817 16.9944 24.9817Z" fill="#EDA1AB"/>
<path id="Path_10" d="M11.3655 24.9817H5.7369C5.01869 24.9817 4.43652 24.3991 4.43652 23.6805C4.43652 22.9619 5.01869 22.3794 5.7369 22.3794H11.3655C12.0837 22.3794 12.6659 22.9619 12.6659 23.6805C12.6659 24.3991 12.0837 24.9817 11.3655 24.9817Z" fill="#F6EE86"/>
<path id="Path_11" d="M5.73696 24.9817H7.97404C8.58999 24.0343 9.36842 23.1683 10.1712 22.3794H5.73696C5.01875 22.3794 4.43652 22.962 4.43652 23.6806C4.43652 24.3991 5.01875 24.9817 5.73696 24.9817Z" fill="#F2D98D"/>
<path id="Path_12" d="M16.9938 7.01855H14.7567C14.1408 7.96593 13.3624 8.83193 12.5596 9.62087H16.9938C17.712 9.62087 18.2943 9.03837 18.2943 8.31974C18.2943 7.60112 17.712 7.01855 16.9938 7.01855Z" fill="#F2D98D"/>
<path id="Path_13" d="M18.5988 4.32839C19.317 4.32839 19.8992 3.74582 19.8992 3.02726C19.8992 2.30864 19.317 1.72607 18.5988 1.72607H16.1977C16.0022 2.58832 16.2019 3.03651 15.918 4.32839H18.5988Z" fill="#E8899E"/>
<path id="Path_14" d="M2.61445 31.5312C1.42938 31.5312 0.46875 30.5701 0.46875 29.3843C0.46875 26.1318 1.50971 23.2024 3.65122 20.4289C7.11946 15.9373 12.6062 12.9321 15.6842 8.94581C17.2445 6.925 17.9712 4.9135 17.9712 2.61563C17.9712 1.42994 18.9318 0.46875 20.1168 0.46875C21.3018 0.46875 22.2625 1.42994 22.2625 2.61569C22.2625 5.86825 21.2216 8.79756 19.08 11.571C15.6118 16.0627 10.125 19.0679 7.04713 23.0541C5.48685 25.0749 4.76014 27.0864 4.76014 29.3844C4.76008 30.5701 3.79945 31.5312 2.61445 31.5312Z" fill="#A3DEFE"/>
<path id="Shape" fill-rule="evenodd" clip-rule="evenodd" d="M3.39998 19.989C4.55057 18.5284 5.90266 17.2275 7.30741 15.9999C6.04583 14.8983 4.53632 13.4843 3.2803 11.8576C1.07302 8.999 7.41758e-05 5.97594 7.41758e-05 2.61569C7.41758e-05 1.17338 1.17277 0 2.61419 0C3.53053 0 4.37542 0.485187 4.84583 1.257H17.8837C18.3431 0.503875 19.1722 0 20.1167 0C21.5581 0 22.7308 1.17338 22.7308 2.61575C22.7308 4.584 22.3705 6.40063 21.6294 8.16944C21.5294 8.40825 21.2549 8.52063 21.0163 8.4205C20.7777 8.32038 20.6653 8.04569 20.7654 7.80694C21.4575 6.15513 21.7939 4.45706 21.7939 2.61569C21.7939 1.69031 21.0415 0.9375 20.1167 0.9375C19.1918 0.9375 18.4395 1.69031 18.4395 2.61569C18.4395 7.98676 14.4788 11.2553 10.3166 14.6903C8.13032 16.4945 5.88846 18.3446 4.13574 20.5694C3.97559 20.7727 3.68101 20.8076 3.47787 20.6473C3.27468 20.4871 3.23982 20.1923 3.39998 19.989ZM8.65954 10.0895C9.5256 10.9941 10.4816 11.8425 11.3657 12.5941C12.3368 11.7686 13.2549 10.9454 14.0736 10.0895H8.65954ZM9.80506 9.152H5.73691C5.27818 9.152 4.90502 8.77857 4.90502 8.31963C4.90502 7.86063 5.27824 7.48725 5.73691 7.48725C5.85042 7.48737 9.11934 7.48727 9.71326 7.48726L9.80506 7.48725C9.53259 7.9965 9.52166 8.62225 9.80506 9.152ZM11.3656 9.152H14.9147C15.3534 8.62882 15.747 8.10388 16.1207 7.48725H11.365C10.9066 7.48757 10.5337 7.86082 10.5337 8.31963C10.5337 8.77857 10.9069 9.152 11.3656 9.152ZM16.6263 6.54965H6.1042C5.83086 5.97377 5.62529 5.39446 5.4815 4.79677H17.2498C17.1056 5.3934 16.8984 5.97527 16.6263 6.54965ZM17.5 2.75636C17.5032 2.55217 17.5059 2.38554 17.5369 2.19449H12.926C13.2093 2.72418 13.1985 3.34993 12.926 3.8593H17.4232C17.4906 3.34241 17.4958 3.01844 17.5 2.75636ZM11.3652 2.19455C11.824 2.19455 12.1971 2.56799 12.1971 3.02693C12.1971 3.48593 11.8239 3.8593 11.3652 3.8593H4.13212C3.67332 3.8593 3.30016 3.48587 3.30016 3.02693C3.30016 2.56793 3.67339 2.19449 4.13212 2.19449C4.73034 2.19449 11.3937 2.19455 11.3652 2.19455ZM3.67413 1.31756C3.3798 1.07731 3.00739 0.9375 2.61424 0.9375C1.68947 0.9375 0.937089 1.69031 0.937089 2.61569C0.937089 8.12119 3.95515 11.8445 8.02455 15.3818C8.58003 14.9099 9.12344 14.4606 9.68096 13.9996L9.68105 13.9995C9.99412 13.7406 10.3116 13.4781 10.6382 13.2058C9.5611 12.286 8.38846 11.2271 7.38667 10.0895H5.73669C4.76131 10.0895 3.96783 9.29556 3.96783 8.31962C3.96783 7.55925 4.44956 6.90944 5.12367 6.65944C4.85676 6.05 4.65681 5.43412 4.51914 4.79681H4.1323C3.15693 4.79681 2.36339 4.00288 2.36339 3.02694C2.36339 2.2095 2.92019 1.52006 3.67413 1.31756ZM15.4234 16C17.3964 14.2758 19.2464 12.4248 20.602 10.1827C20.736 9.96119 20.6651 9.67301 20.4437 9.53901C20.2222 9.40495 19.9343 9.47588 19.8004 9.69744C17.9659 12.7313 15.1495 15.0539 12.4178 17.3068C8.25651 20.7385 4.29139 24.0086 4.29139 29.3843C4.29139 30.3097 3.53901 31.0625 2.61417 31.0625C1.68933 31.0625 0.936958 30.3097 0.936958 29.3843C0.936958 26.8725 1.57078 24.5864 2.87484 22.3954C3.0072 22.173 2.9343 21.8853 2.71193 21.7529C2.48981 21.6204 2.20216 21.6933 2.06974 21.9158C0.677046 24.2559 0 26.6989 0 29.3843C0 30.8266 1.1727 32 2.61417 32C3.55869 32 4.38777 31.4961 4.84719 30.7429H17.885C18.3554 31.5148 19.2003 32 20.1167 32C21.5581 32 22.7308 30.8266 22.7308 29.3843C22.7308 26.0241 21.6579 23.001 19.4506 20.1424C18.1945 18.5158 16.6849 17.1016 15.4234 16ZM14.0715 21.9105C13.2055 21.0058 12.2495 20.1575 11.3654 19.4058C10.3944 20.2314 9.4762 21.0546 8.65748 21.9105H14.0715ZM12.926 22.848H16.9941C17.4529 22.848 17.826 23.2214 17.826 23.6803C17.826 24.1393 17.4528 24.5127 16.9941 24.5127H12.926C13.1985 24.0034 13.2094 23.3777 12.926 22.848ZM11.3653 22.848H7.81606C7.37788 23.3708 6.98411 23.8957 6.6102 24.5127H11.3653C11.8239 24.5127 12.1972 24.1393 12.1972 23.6803C12.1972 23.2214 11.824 22.848 11.3653 22.848ZM6.10454 25.4503H16.6266C16.9 26.0262 17.1055 26.6055 17.2493 27.2032H5.48109C5.62519 26.6066 5.83244 26.0247 6.10454 25.4503ZM5.19408 29.8054H9.80504C9.52164 29.2757 9.53257 28.6499 9.80504 28.1406H5.30783C5.24035 28.6578 5.23521 28.9816 5.23104 29.2435C5.2278 29.4476 5.22516 29.6142 5.19408 29.8054ZM11.3656 29.8055C10.9069 29.8055 10.5337 29.432 10.5337 28.9731C10.5337 28.5141 10.9069 28.1407 11.3656 28.1407L18.0477 28.1408L18.5987 28.1407C19.0575 28.1407 19.4306 28.5142 19.4306 28.9731C19.4306 29.4321 19.0574 29.8055 18.5987 29.8055H11.3656ZM20.3673 28.973C20.3673 29.7905 19.8106 30.4799 19.0566 30.6824C20.1466 31.5724 21.7937 30.802 21.7938 29.3843C21.7938 23.8788 18.7758 20.1556 14.7062 16.6181C14.1518 17.0891 13.6093 17.5377 13.0521 17.9985C12.7385 18.2577 12.4202 18.5209 12.0925 18.7941C13.1696 19.7139 14.3423 20.7729 15.3441 21.9105H16.9941C17.9694 21.9105 18.7629 22.7044 18.7629 23.6804C18.7629 24.4407 18.2812 25.0906 17.6071 25.3406C17.874 25.9501 18.0739 26.5659 18.2116 27.2032H18.5984C19.5738 27.2032 20.3673 27.9971 20.3673 28.973Z" fill="black"/>
</g>
</svg>
